<?xml version="1.0" encoding="UTF-8" standalone="no"?>
<!DOCTYPE svg PUBLIC "-//W3C//DTD SVG 1.1//EN"
 "http://www.w3.org/Graphics/SVG/1.1/DTD/svg11.dtd">
<!-- Generated by graphviz version 2.43.0 (0)
 -->
<!-- Title: %3 Pages: 1 -->
<svg width="3566pt" height="2707pt"
 viewBox="0.00 0.00 3566.00 2706.50" xmlns="http://www.w3.org/2000/svg" xmlns:xlink="http://www.w3.org/1999/xlink">
<g id="graph0" class="graph" transform="scale(1 1) rotate(0) translate(4 2702.5)">
<title>%3</title>
<polygon fill="white" stroke="transparent" points="-4,4 -4,-2702.5 3562,-2702.5 3562,4 -4,4"/>
<text text-anchor="start" x="1490" y="-35.8" font-family="Arial" font-size="34.00">Dynamic View: ai&#45;usage &#45; CLI process</text>
<text text-anchor="start" x="1484.5" y="-9.8" font-family="Arial" font-size="24.00">Live fetch sequence for ai&#45;usage [&#45;p providers] [&#45;m] [&#45;j].</text>
<g id="clust1" class="cluster">
<title>cluster_2</title>
<polygon fill="none" stroke="#444444" points="659,-687.5 659,-2690.5 3550,-2690.5 3550,-687.5 659,-687.5"/>
<text text-anchor="start" x="2057.5" y="-716.3" font-family="Arial" font-size="24.00" fill="#444444">ai&#45;usage</text>
<text text-anchor="start" x="2027.5" y="-696.3" font-family="Arial" font-size="19.00" fill="#444444">[Software System]</text>
</g>
<g id="clust2" class="cluster">
<title>cluster_3</title>
<polygon fill="none" stroke="#444444" points="684,-787.5 684,-2308.5 3525,-2308.5 3525,-787.5 684,-787.5"/>
<text text-anchor="start" x="2039.5" y="-816.3" font-family="Arial" font-size="24.00" fill="#444444">CLI process</text>
<text text-anchor="start" x="1979.5" y="-796.3" font-family="Arial" font-size="19.00" fill="#444444">[Container: Python 3.10+ CLI]</text>
</g>
<!-- 1 -->
<g id="1" class="node">
<title>1</title>
<polygon fill="#dbeafe" stroke="#2563eb" points="374,-1677 0,-1677 0,-1446 374,-1446 374,-1677"/>
<text text-anchor="start" x="120" y="-1628.8" font-family="Arial" font-size="34.00" fill="#111827">Operator</text>
<text text-anchor="start" x="151.5" y="-1606.8" font-family="Arial" font-size="19.00" fill="#111827">[Person]</text>
<text text-anchor="start" x="29" y="-1569.8" font-family="Arial" font-size="24.00" fill="#111827">Runs ai&#45;usage from a shell to</text>
<text text-anchor="start" x="46" y="-1545.8" font-family="Arial" font-size="24.00" fill="#111827">inspect provider balances,</text>
<text text-anchor="start" x="39.5" y="-1521.8" font-family="Arial" font-size="24.00" fill="#111827">spend, subscription quotas,</text>
<text text-anchor="start" x="65.5" y="-1497.8" font-family="Arial" font-size="24.00" fill="#111827">token usage, and local</text>
<text text-anchor="start" x="148.5" y="-1473.8" font-family="Arial" font-size="24.00" fill="#111827">history.</text>
</g>
<!-- 4 -->
<g id="4" class="node">
<title>4</title>
<polygon fill="#f0fdf4" stroke="#22c55e" points="1061,-1665 709,-1665 709,-1458 1061,-1458 1061,-1665"/>
<text text-anchor="start" x="757" y="-1616.8" font-family="Arial" font-size="34.00" fill="#111827">Command router</text>
<text text-anchor="start" x="775" y="-1594.8" font-family="Arial" font-size="19.00" fill="#111827">[Component: ai_usage.cli]</text>
<text text-anchor="start" x="742" y="-1557.8" font-family="Arial" font-size="24.00" fill="#111827">Parses CLI flags, validates</text>
<text text-anchor="start" x="738" y="-1533.8" font-family="Arial" font-size="24.00" fill="#111827">provider selection, chooses</text>
<text text-anchor="start" x="745" y="-1509.8" font-family="Arial" font-size="24.00" fill="#111827">live&#45;fetch vs history mode,</text>
<text text-anchor="start" x="758" y="-1485.8" font-family="Arial" font-size="24.00" fill="#111827">and coordinates output.</text>
</g>
<!-- 1&#45;&gt;4 -->
<g id="20" class="edge">
<title>1&#45;&gt;4</title>
<path fill="none" stroke="#475569" stroke-dasharray="5,2" d="M374.06,-1561.5C474.5,-1561.5 598.11,-1561.5 698.47,-1561.5"/>
<polygon fill="#475569" stroke="#475569" points="698.72,-1565 708.72,-1561.5 698.72,-1558 698.72,-1565"/>
<polygon fill="white" stroke="transparent" points="410,-1561.5 410,-1636.5 651,-1636.5 651,-1561.5 410,-1561.5"/>
<text text-anchor="start" x="414.5" y="-1613.8" font-family="Arial" font-size="24.00" fill="#475569">1. Runs ai&#45;usage with</text>
<text text-anchor="start" x="421" y="-1589.8" font-family="Arial" font-size="24.00" fill="#475569">provider/output flags</text>
<text text-anchor="start" x="505.5" y="-1569.8" font-family="Arial" font-size="19.00" fill="#475569">[shell]</text>
</g>
<!-- 15 -->
<g id="15" class="node">
<title>15</title>
<polygon fill="#f3e8ff" stroke="#9333ea" points="3486,-662 3106,-662 3106,-431 3486,-431 3486,-662"/>
<text text-anchor="start" x="3136" y="-613.8" font-family="Arial" font-size="34.00" fill="#111827">Local developer CLIs</text>
<text text-anchor="start" x="3219" y="-591.8" font-family="Arial" font-size="19.00" fill="#111827">[Software System]</text>
<text text-anchor="start" x="3148.5" y="-554.8" font-family="Arial" font-size="24.00" fill="#111827">Codex CLI app&#45;server/login</text>
<text text-anchor="start" x="3135" y="-530.8" font-family="Arial" font-size="24.00" fill="#111827">fallback and Claude Code CLI</text>
<text text-anchor="start" x="3177.5" y="-506.8" font-family="Arial" font-size="24.00" fill="#111827">refresh paths used for</text>
<text text-anchor="start" x="3136.5" y="-482.8" font-family="Arial" font-size="24.00" fill="#111827">subscription quota and OAuth</text>
<text text-anchor="start" x="3205.5" y="-458.8" font-family="Arial" font-size="24.00" fill="#111827">refresh behavior.</text>
</g>
<!-- 16 -->
<g id="16" class="node">
<title>16</title>
<polygon fill="#f3e8ff" stroke="#9333ea" points="3488,-359 3104,-359 3104,-80 3488,-80 3488,-359"/>
<text text-anchor="start" x="3144" y="-310.8" font-family="Arial" font-size="34.00" fill="#111827">Provider HTTP APIs</text>
<text text-anchor="start" x="3219" y="-288.8" font-family="Arial" font-size="19.00" fill="#111827">[Software System]</text>
<text text-anchor="start" x="3143" y="-251.8" font-family="Arial" font-size="24.00" fill="#111827">External APIs for DeepSeek,</text>
<text text-anchor="start" x="3133" y="-227.8" font-family="Arial" font-size="24.00" fill="#111827">xAI, OpenRouter, Vast.ai, Exa,</text>
<text text-anchor="start" x="3159" y="-203.8" font-family="Arial" font-size="24.00" fill="#111827">X Console, Codex usage,</text>
<text text-anchor="start" x="3136" y="-179.8" font-family="Arial" font-size="24.00" fill="#111827">Anthropic OAuth usage, Nous</text>
<text text-anchor="start" x="3154" y="-155.8" font-family="Arial" font-size="24.00" fill="#111827">Portal, Google OAuth, and</text>
<text text-anchor="start" x="3189.5" y="-131.8" font-family="Arial" font-size="24.00" fill="#111827">Google Cloud Code</text>
<text text-anchor="start" x="3172.5" y="-107.8" font-family="Arial" font-size="24.00" fill="#111827">entitlement/quota data.</text>
</g>
<!-- 17 -->
<g id="17" class="node">
<title>17</title>
<polygon fill="#f3e8ff" stroke="#9333ea" points="2650.5,-662 2261.5,-662 2261.5,-469 2650.5,-469 2650.5,-662"/>
<text text-anchor="start" x="2329" y="-613.8" font-family="Arial" font-size="34.00" fill="#111827">Terminal / calling</text>
<text text-anchor="start" x="2396" y="-579.8" font-family="Arial" font-size="34.00" fill="#111827">process</text>
<text text-anchor="start" x="2379" y="-557.8" font-family="Arial" font-size="19.00" fill="#111827">[Software System]</text>
<text text-anchor="start" x="2290.5" y="-520.8" font-family="Arial" font-size="24.00" fill="#111827">Receives stdout table or JSON</text>
<text text-anchor="start" x="2341" y="-496.8" font-family="Arial" font-size="24.00" fill="#111827">output from ai&#45;usage.</text>
</g>
<!-- 10 -->
<g id="10" class="node">
<title>10</title>
<polygon fill="#f0fdf4" stroke="#22c55e" points="3500,-1119 3092,-1119 3092,-888 3500,-888 3500,-1119"/>
<text text-anchor="start" x="3121" y="-1070.8" font-family="Arial" font-size="34.00" fill="#111827">Normalized data model</text>
<text text-anchor="start" x="3164.5" y="-1048.8" font-family="Arial" font-size="19.00" fill="#111827">[Component: ai_usage.models]</text>
<text text-anchor="start" x="3141" y="-1011.8" font-family="Arial" font-size="24.00" fill="#111827">ProviderData and TokenData</text>
<text text-anchor="start" x="3159" y="-987.8" font-family="Arial" font-size="24.00" fill="#111827">dataclasses for balances,</text>
<text text-anchor="start" x="3126.5" y="-963.8" font-family="Arial" font-size="24.00" fill="#111827">spend, tokens, per&#45;model rows,</text>
<text text-anchor="start" x="3158" y="-939.8" font-family="Arial" font-size="24.00" fill="#111827">provider extras, and meta</text>
<text text-anchor="start" x="3260.5" y="-915.8" font-family="Arial" font-size="24.00" fill="#111827">errors.</text>
</g>
<!-- 11 -->
<g id="11" class="node">
<title>11</title>
<polygon fill="#f0fdf4" stroke="#22c55e" points="1828,-2283 1436,-2283 1436,-2100 1828,-2100 1828,-2283"/>
<text text-anchor="start" x="1480.5" y="-2234.8" font-family="Arial" font-size="34.00" fill="#111827">Snapshot repository</text>
<text text-anchor="start" x="1465" y="-2212.8" font-family="Arial" font-size="19.00" fill="#111827">[Component: ai_usage.db.SnapshotDB]</text>
<text text-anchor="start" x="1481" y="-2175.8" font-family="Arial" font-size="24.00" fill="#111827">Creates, writes, and queries</text>
<text text-anchor="start" x="1507.5" y="-2151.8" font-family="Arial" font-size="24.00" fill="#111827">the local SQLite history</text>
<text text-anchor="start" x="1578.5" y="-2127.8" font-family="Arial" font-size="24.00" fill="#111827">database.</text>
</g>
<!-- 13 -->
<g id="13" class="node">
<title>13</title>
<path fill="#fef3c7" stroke="#d97706" d="M2711,-2635.22C2711,-2651.86 2596.7,-2665.38 2456,-2665.38 2315.3,-2665.38 2201,-2651.86 2201,-2635.22 2201,-2635.22 2201,-2363.78 2201,-2363.78 2201,-2347.14 2315.3,-2333.62 2456,-2333.62 2596.7,-2333.62 2711,-2347.14 2711,-2363.78 2711,-2363.78 2711,-2635.22 2711,-2635.22"/>
<path fill="none" stroke="#d97706" d="M2711,-2635.22C2711,-2618.57 2596.7,-2605.06 2456,-2605.06 2315.3,-2605.06 2201,-2618.57 2201,-2635.22"/>
<text text-anchor="start" x="2329" y="-2571.8" font-family="Arial" font-size="34.00" fill="#111827">Snapshot history</text>
<text text-anchor="start" x="2386" y="-2537.8" font-family="Arial" font-size="34.00" fill="#111827">database</text>
<text text-anchor="start" x="2230" y="-2515.8" font-family="Arial" font-size="19.00" fill="#111827">[Container: SQLite WAL file at ~/.hermes/ai&#45;usage.db]</text>
<text text-anchor="start" x="2311" y="-2478.8" font-family="Arial" font-size="24.00" fill="#111827">Stores normalized provider</text>
<text text-anchor="start" x="2335.5" y="-2454.8" font-family="Arial" font-size="24.00" fill="#111827">snapshots for &#45;&#45;history</text>
<text text-anchor="start" x="2290.5" y="-2430.8" font-family="Arial" font-size="24.00" fill="#111827">queries; raw provider payloads</text>
<text text-anchor="start" x="2377.5" y="-2406.8" font-family="Arial" font-size="24.00" fill="#111827">are not stored.</text>
</g>
<!-- 11&#45;&gt;13 -->
<g id="44" class="edge">
<title>11&#45;&gt;13</title>
<path fill="none" stroke="#475569" stroke-dasharray="5,2" d="M1828.06,-2264.59C1936.58,-2305.25 2073.15,-2356.42 2191.1,-2400.62"/>
<polygon fill="#475569" stroke="#475569" points="2190.04,-2403.96 2200.64,-2404.19 2192.5,-2397.4 2190.04,-2403.96"/>
<polygon fill="white" stroke="transparent" points="1872,-2381.5 1872,-2432.5 2165,-2432.5 2165,-2381.5 1872,-2381.5"/>
<text text-anchor="start" x="1876.5" y="-2409.8" font-family="Arial" font-size="24.00" fill="#475569">11. Insert normalized rows</text>
<text text-anchor="start" x="1985.5" y="-2389.8" font-family="Arial" font-size="19.00" fill="#475569">[sqlite3]</text>
</g>
<!-- 12 -->
<g id="12" class="node">
<title>12</title>
<polygon fill="#f0fdf4" stroke="#22c55e" points="1804,-1071 1460,-1071 1460,-888 1804,-888 1804,-1071"/>
<text text-anchor="start" x="1561" y="-1022.8" font-family="Arial" font-size="34.00" fill="#111827">Renderer</text>
<text text-anchor="start" x="1504" y="-1000.8" font-family="Arial" font-size="19.00" fill="#111827">[Component: ai_usage.render]</text>
<text text-anchor="start" x="1489" y="-963.8" font-family="Arial" font-size="24.00" fill="#111827">Formats normalized live or</text>
<text text-anchor="start" x="1510.5" y="-939.8" font-family="Arial" font-size="24.00" fill="#111827">history data as aligned</text>
<text text-anchor="start" x="1500" y="-915.8" font-family="Arial" font-size="24.00" fill="#111827">terminal tables or JSON.</text>
</g>
<!-- 12&#45;&gt;17 -->
<g id="46" class="edge">
<title>12&#45;&gt;17</title>
<path fill="none" stroke="#475569" stroke-dasharray="5,2" d="M1804.32,-893.22C1935.3,-827.24 2116.22,-736.13 2254.04,-666.72"/>
<polygon fill="#475569" stroke="#475569" points="2255.69,-669.8 2263.05,-662.18 2252.55,-663.55 2255.69,-669.8"/>
<polygon fill="white" stroke="transparent" points="1905,-856.5 1905,-907.5 2132,-907.5 2132,-856.5 1905,-856.5"/>
<text text-anchor="start" x="1909.5" y="-884.8" font-family="Arial" font-size="24.00" fill="#475569">13. Write final report</text>
<text text-anchor="start" x="1987.5" y="-864.8" font-family="Arial" font-size="19.00" fill="#475569">[stdout]</text>
</g>
<!-- 4&#45;&gt;11 -->
<g id="33" class="edge">
<title>4&#45;&gt;11</title>
<path fill="none" stroke="#475569" stroke-dasharray="5,2" d="M941.99,-1665.13C979.93,-1728.91 1034.44,-1809.47 1097,-1868.5 1194.25,-1960.26 1321.83,-2038.61 1427.9,-2095.16"/>
<polygon fill="#475569" stroke="#475569" points="1426.32,-2098.28 1436.8,-2099.87 1429.6,-2092.09 1426.32,-2098.28"/>
<polygon fill="white" stroke="transparent" points="1097,-2071.5 1097,-2131.5 1392,-2131.5 1392,-2071.5 1097,-2071.5"/>
<text text-anchor="start" x="1101.5" y="-2108.3" font-family="Arial" font-size="24.00" fill="#475569">10. Save fetched snapshot</text>
<text text-anchor="start" x="1219" y="-2082.3" font-family="Arial" font-size="24.00" fill="#475569">rows</text>
</g>
<!-- 4&#45;&gt;12 -->
<g id="34" class="edge">
<title>4&#45;&gt;12</title>
<path fill="none" stroke="#475569" stroke-dasharray="5,2" d="M954.6,-1457.69C992.55,-1405.14 1042.92,-1342.67 1097,-1295.5 1203.8,-1202.35 1341.84,-1121.49 1450.82,-1064.88"/>
<polygon fill="#475569" stroke="#475569" points="1452.67,-1067.87 1459.94,-1060.17 1449.45,-1061.65 1452.67,-1067.87"/>
<polygon fill="white" stroke="transparent" points="1101,-1295.5 1101,-1329.5 1388,-1329.5 1388,-1295.5 1101,-1295.5"/>
<text text-anchor="start" x="1105.5" y="-1306.3" font-family="Arial" font-size="24.00" fill="#475569">12. Render table or JSON</text>
</g>
<!-- 5 -->
<g id="5" class="node">
<title>5</title>
<polygon fill="#f0fdf4" stroke="#22c55e" points="1829.5,-1701 1434.5,-1701 1434.5,-1422 1829.5,-1422 1829.5,-1701"/>
<text text-anchor="start" x="1502.5" y="-1652.8" font-family="Arial" font-size="34.00" fill="#111827">Credential loader</text>
<text text-anchor="start" x="1505.5" y="-1630.8" font-family="Arial" font-size="19.00" fill="#111827">[Component: ai_usage.config]</text>
<text text-anchor="start" x="1545.5" y="-1593.8" font-family="Arial" font-size="24.00" fill="#111827">Loads API keys,</text>
<text text-anchor="start" x="1496" y="-1569.8" font-family="Arial" font-size="24.00" fill="#111827">browser&#45;session cookies,</text>
<text text-anchor="start" x="1476.5" y="-1545.8" font-family="Arial" font-size="24.00" fill="#111827">timeout settings, OAuth state</text>
<text text-anchor="start" x="1463.5" y="-1521.8" font-family="Arial" font-size="24.00" fill="#111827">references, and Hermes Codex</text>
<text text-anchor="start" x="1472.5" y="-1497.8" font-family="Arial" font-size="24.00" fill="#111827">credential&#45;pool accounts from</text>
<text text-anchor="start" x="1488.5" y="-1473.8" font-family="Arial" font-size="24.00" fill="#111827">local files and environment</text>
<text text-anchor="start" x="1580" y="-1449.8" font-family="Arial" font-size="24.00" fill="#111827">variables.</text>
</g>
<!-- 4&#45;&gt;5 -->
<g id="30" class="edge">
<title>4&#45;&gt;5</title>
<path fill="none" stroke="#475569" stroke-dasharray="5,2" d="M1061.14,-1561.5C1169.8,-1561.5 1309.97,-1561.5 1424.1,-1561.5"/>
<polygon fill="#475569" stroke="#475569" points="1424.36,-1565 1434.36,-1561.5 1424.36,-1558 1424.36,-1565"/>
<polygon fill="white" stroke="transparent" points="1114,-1561.5 1114,-1621.5 1375,-1621.5 1375,-1561.5 1114,-1561.5"/>
<text text-anchor="start" x="1118.5" y="-1598.3" font-family="Arial" font-size="24.00" fill="#475569">2. Load credentials and</text>
<text text-anchor="start" x="1160" y="-1572.3" font-family="Arial" font-size="24.00" fill="#475569">timeout settings</text>
</g>
<!-- 6 -->
<g id="6" class="node">
<title>6</title>
<polygon fill="#f0fdf4" stroke="#22c55e" points="1836,-2028 1428,-2028 1428,-1773 1836,-1773 1836,-2028"/>
<text text-anchor="start" x="1508" y="-1979.8" font-family="Arial" font-size="34.00" fill="#111827">Provider registry</text>
<text text-anchor="start" x="1492" y="-1957.8" font-family="Arial" font-size="19.00" fill="#111827">[Component: ai_usage.providers]</text>
<text text-anchor="start" x="1498.5" y="-1920.8" font-family="Arial" font-size="24.00" fill="#111827">Registers and constructs</text>
<text text-anchor="start" x="1506" y="-1896.8" font-family="Arial" font-size="24.00" fill="#111827">Provider subclasses for</text>
<text text-anchor="start" x="1476" y="-1872.8" font-family="Arial" font-size="24.00" fill="#111827">DeepSeek, xAI, OpenRouter,</text>
<text text-anchor="start" x="1487" y="-1848.8" font-family="Arial" font-size="24.00" fill="#111827">Vast.ai, Exa, X API, Codex,</text>
<text text-anchor="start" x="1457" y="-1824.8" font-family="Arial" font-size="24.00" fill="#111827">Claude Code, Nous, and Google</text>
<text text-anchor="start" x="1579.5" y="-1800.8" font-family="Arial" font-size="24.00" fill="#111827">AI Studio.</text>
</g>
<!-- 4&#45;&gt;6 -->
<g id="31" class="edge">
<title>4&#45;&gt;6</title>
<path fill="none" stroke="#475569" stroke-dasharray="5,2" d="M1061.14,-1641.19C1168.14,-1689.88 1305.69,-1752.47 1418.84,-1803.96"/>
<polygon fill="#475569" stroke="#475569" points="1417.43,-1807.16 1427.98,-1808.12 1420.33,-1800.79 1417.43,-1807.16"/>
<polygon fill="white" stroke="transparent" points="1145,-1790.5 1145,-1850.5 1344,-1850.5 1344,-1790.5 1145,-1790.5"/>
<text text-anchor="start" x="1149.5" y="-1827.3" font-family="Arial" font-size="24.00" fill="#475569">3. Select selected</text>
<text text-anchor="start" x="1150" y="-1801.3" font-family="Arial" font-size="24.00" fill="#475569">provider adapters</text>
</g>
<!-- 7 -->
<g id="7" class="node">
<title>7</title>
<polygon fill="#f0fdf4" stroke="#22c55e" points="1827.5,-1350 1436.5,-1350 1436.5,-1143 1827.5,-1143 1827.5,-1350"/>
<text text-anchor="start" x="1493.5" y="-1301.8" font-family="Arial" font-size="34.00" fill="#111827">Fetch orchestrator</text>
<text text-anchor="start" x="1502.5" y="-1279.8" font-family="Arial" font-size="19.00" fill="#111827">[Component: ai_usage.fetcher]</text>
<text text-anchor="start" x="1465.5" y="-1242.8" font-family="Arial" font-size="24.00" fill="#111827">Runs selected provider fetches</text>
<text text-anchor="start" x="1484.5" y="-1218.8" font-family="Arial" font-size="24.00" fill="#111827">sequentially or concurrently</text>
<text text-anchor="start" x="1507" y="-1194.8" font-family="Arial" font-size="24.00" fill="#111827">with a total timeout and</text>
<text text-anchor="start" x="1486" y="-1170.8" font-family="Arial" font-size="24.00" fill="#111827">per&#45;provider error isolation.</text>
</g>
<!-- 4&#45;&gt;7 -->
<g id="32" class="edge">
<title>4&#45;&gt;7</title>
<path fill="none" stroke="#475569" stroke-dasharray="5,2" d="M1061.14,-1487.45C1170.76,-1441.1 1312.44,-1381.19 1427.1,-1332.71"/>
<polygon fill="#475569" stroke="#475569" points="1428.51,-1335.92 1436.36,-1328.8 1425.78,-1329.47 1428.51,-1335.92"/>
<polygon fill="white" stroke="transparent" points="1148,-1467.5 1148,-1527.5 1341,-1527.5 1341,-1467.5 1148,-1467.5"/>
<text text-anchor="start" x="1152.5" y="-1504.3" font-family="Arial" font-size="24.00" fill="#475569">4. Fetch selected</text>
<text text-anchor="start" x="1195" y="-1478.3" font-family="Arial" font-size="24.00" fill="#475569">providers</text>
</g>
<!-- 8 -->
<g id="8" class="node">
<title>8</title>
<polygon fill="#f0fdf4" stroke="#22c55e" points="2640,-1107 2272,-1107 2272,-900 2640,-900 2640,-1107"/>
<text text-anchor="start" x="2322" y="-1058.8" font-family="Arial" font-size="34.00" fill="#111827">Provider adapters</text>
<text text-anchor="start" x="2301" y="-1036.8" font-family="Arial" font-size="19.00" fill="#111827">[Component: src/ai_usage/providers]</text>
<text text-anchor="start" x="2317.5" y="-999.8" font-family="Arial" font-size="24.00" fill="#111827">Provider&#45;specific modules</text>
<text text-anchor="start" x="2302.5" y="-975.8" font-family="Arial" font-size="24.00" fill="#111827">convert raw HTTP, local CLI,</text>
<text text-anchor="start" x="2306.5" y="-951.8" font-family="Arial" font-size="24.00" fill="#111827">and local file responses into</text>
<text text-anchor="start" x="2319" y="-927.8" font-family="Arial" font-size="24.00" fill="#111827">normalized ProviderData.</text>
</g>
<!-- 7&#45;&gt;8 -->
<g id="37" class="edge">
<title>7&#45;&gt;8</title>
<path fill="none" stroke="#475569" stroke-dasharray="5,2" d="M1784.1,-1142.97C1830.75,-1111.1 1870.48,-1084.09 1872,-1083.5 1996.37,-1035.62 2145.37,-1015.77 2261.61,-1007.81"/>
<polygon fill="#475569" stroke="#475569" points="2261.94,-1011.29 2271.69,-1007.14 2261.48,-1004.31 2261.94,-1011.29"/>
<polygon fill="white" stroke="transparent" points="1895.5,-1083.5 1895.5,-1134.5 2141.5,-1134.5 2141.5,-1083.5 1895.5,-1083.5"/>
<text text-anchor="start" x="1899.5" y="-1111.8" font-family="Arial" font-size="24.00" fill="#475569">5. Call provider.fetch()</text>
<text text-anchor="start" x="1926.5" y="-1091.8" font-family="Arial" font-size="19.00" fill="#475569">[ThreadPoolExecutor]</text>
</g>
<!-- 8&#45;&gt;15 -->
<g id="39" class="edge">
<title>8&#45;&gt;15</title>
<path fill="none" stroke="#475569" stroke-dasharray="5,2" d="M2640.13,-903.63C2775.03,-830.06 2958.33,-730.1 3096.69,-654.65"/>
<polygon fill="#475569" stroke="#475569" points="3098.64,-657.57 3105.74,-649.71 3095.28,-651.43 3098.64,-657.57"/>
<polygon fill="white" stroke="transparent" points="2765,-842.5 2765,-941.5 3038,-941.5 3038,-842.5 2765,-842.5"/>
<text text-anchor="start" x="2801.5" y="-918.8" font-family="Arial" font-size="24.00" fill="#475569">8. Use CLI&#45;backed</text>
<text text-anchor="start" x="2769.5" y="-894.8" font-family="Arial" font-size="24.00" fill="#475569">quota/auth fallback flows</text>
<text text-anchor="start" x="2815" y="-870.8" font-family="Arial" font-size="24.00" fill="#475569">when applicable</text>
<text text-anchor="start" x="2847.5" y="-850.8" font-family="Arial" font-size="19.00" fill="#475569">[subprocess]</text>
</g>
<!-- 8&#45;&gt;16 -->
<g id="41" class="edge">
<title>8&#45;&gt;16</title>
<path fill="none" stroke="#475569" stroke-dasharray="5,2" d="M2562.7,-899.91C2614.01,-844.41 2672.69,-772.36 2711,-698.5 2739.39,-643.76 2710.39,-614.12 2747,-564.5 2834.82,-445.48 2977.13,-357.67 3094.71,-300.43"/>
<polygon fill="#475569" stroke="#475569" points="3096.36,-303.51 3103.85,-296.01 3093.32,-297.21 3096.36,-303.51"/>
<polygon fill="white" stroke="transparent" points="2751.5,-564.5 2751.5,-663.5 3051.5,-663.5 3051.5,-564.5 2751.5,-564.5"/>
<text text-anchor="start" x="2834.5" y="-640.8" font-family="Arial" font-size="24.00" fill="#475569">7. Fetch raw</text>
<text text-anchor="start" x="2755.5" y="-616.8" font-family="Arial" font-size="24.00" fill="#475569">balance/spend/quota/token</text>
<text text-anchor="start" x="2877.5" y="-592.8" font-family="Arial" font-size="24.00" fill="#475569">data</text>
<text text-anchor="start" x="2865" y="-572.8" font-family="Arial" font-size="19.00" fill="#475569">[HTTPS]</text>
</g>
<!-- 8&#45;&gt;10 -->
<g id="42" class="edge">
<title>8&#45;&gt;10</title>
<path fill="none" stroke="#475569" stroke-dasharray="5,2" d="M2640.13,-1003.5C2770.17,-1003.5 2945.16,-1003.5 3081.54,-1003.5"/>
<polygon fill="#475569" stroke="#475569" points="3081.71,-1007 3091.71,-1003.5 3081.71,-1000 3081.71,-1007"/>
<polygon fill="white" stroke="transparent" points="2747,-1003.5 2747,-1037.5 3056,-1037.5 3056,-1003.5 2747,-1003.5"/>
<text text-anchor="start" x="2751.5" y="-1014.3" font-family="Arial" font-size="24.00" fill="#475569">9. Normalize raw responses</text>
</g>
<!-- 9 -->
<g id="9" class="node">
<title>9</title>
<polygon fill="#f0fdf4" stroke="#22c55e" points="3486,-1374 3106,-1374 3106,-1191 3486,-1191 3486,-1374"/>
<text text-anchor="start" x="3207" y="-1325.8" font-family="Arial" font-size="34.00" fill="#111827">HTTP client</text>
<text text-anchor="start" x="3135" y="-1303.8" font-family="Arial" font-size="19.00" fill="#111827">[Component: ai_usage.http.HttpClient]</text>
<text text-anchor="start" x="3141.5" y="-1266.8" font-family="Arial" font-size="24.00" fill="#111827">urllib&#45;based JSON client with</text>
<text text-anchor="start" x="3198.5" y="-1242.8" font-family="Arial" font-size="24.00" fill="#111827">timeout, retry, and</text>
<text text-anchor="start" x="3136" y="-1218.8" font-family="Arial" font-size="24.00" fill="#111827">non&#45;retryable status handling.</text>
</g>
<!-- 8&#45;&gt;9 -->
<g id="38" class="edge">
<title>8&#45;&gt;9</title>
<path fill="none" stroke="#475569" stroke-dasharray="5,2" d="M2640.13,-1064.47C2774.76,-1109.29 2957.6,-1170.17 3095.86,-1216.2"/>
<polygon fill="#475569" stroke="#475569" points="3095.15,-1219.65 3105.74,-1219.49 3097.36,-1213.01 3095.15,-1219.65"/>
<polygon fill="white" stroke="transparent" points="2779,-1199.5 2779,-1259.5 3024,-1259.5 3024,-1199.5 2779,-1199.5"/>
<text text-anchor="start" x="2788" y="-1236.3" font-family="Arial" font-size="24.00" fill="#475569">6. Use retrying HTTP</text>
<text text-anchor="start" x="2783.5" y="-1210.3" font-family="Arial" font-size="24.00" fill="#475569">client when applicable</text>
</g>
</g>
</svg>
