<?xml version="1.0" encoding="UTF-8" standalone="no"?>
<!DOCTYPE svg PUBLIC "-//W3C//DTD SVG 1.1//EN"
 "http://www.w3.org/Graphics/SVG/1.1/DTD/svg11.dtd">
<!-- Generated by graphviz version 2.43.0 (0)
 -->
<!-- Title: %3 Pages: 1 -->
<svg width="3566pt" height="2683pt"
 viewBox="0.00 0.00 3566.00 2682.50" xmlns="http://www.w3.org/2000/svg" xmlns:xlink="http://www.w3.org/1999/xlink">
<g id="graph0" class="graph" transform="scale(1 1) rotate(0) translate(4 2678.5)">
<title>%3</title>
<polygon fill="white" stroke="transparent" points="-4,4 -4,-2678.5 3562,-2678.5 3562,4 -4,4"/>
<text text-anchor="start" x="1490" y="-35.8" font-family="Arial" font-size="34.00">Dynamic View: ai&#45;usage &#45; CLI process</text>
<text text-anchor="start" x="1484.5" y="-9.8" font-family="Arial" font-size="24.00">Live fetch sequence for ai&#45;usage [&#45;p providers] [&#45;m] [&#45;j].</text>
<g id="clust1" class="cluster">
<title>cluster_2</title>
<polygon fill="none" stroke="#444444" points="659,-663.5 659,-2666.5 3550,-2666.5 3550,-663.5 659,-663.5"/>
<text text-anchor="start" x="2057.5" y="-692.3" font-family="Arial" font-size="24.00" fill="#444444">ai&#45;usage</text>
<text text-anchor="start" x="2027.5" y="-672.3" font-family="Arial" font-size="19.00" fill="#444444">[Software System]</text>
</g>
<g id="clust2" class="cluster">
<title>cluster_3</title>
<polygon fill="none" stroke="#444444" points="684,-763.5 684,-2284.5 3525,-2284.5 3525,-763.5 684,-763.5"/>
<text text-anchor="start" x="2039.5" y="-792.3" font-family="Arial" font-size="24.00" fill="#444444">CLI process</text>
<text text-anchor="start" x="1979.5" y="-772.3" font-family="Arial" font-size="19.00" fill="#444444">[Container: Python 3.10+ CLI]</text>
</g>
<!-- 1 -->
<g id="1" class="node">
<title>1</title>
<polygon fill="#dbeafe" stroke="#2563eb" points="374,-1653 0,-1653 0,-1422 374,-1422 374,-1653"/>
<text text-anchor="start" x="120" y="-1604.8" font-family="Arial" font-size="34.00" fill="#111827">Operator</text>
<text text-anchor="start" x="151.5" y="-1582.8" font-family="Arial" font-size="19.00" fill="#111827">[Person]</text>
<text text-anchor="start" x="29" y="-1545.8" font-family="Arial" font-size="24.00" fill="#111827">Runs ai&#45;usage from a shell to</text>
<text text-anchor="start" x="46" y="-1521.8" font-family="Arial" font-size="24.00" fill="#111827">inspect provider balances,</text>
<text text-anchor="start" x="39.5" y="-1497.8" font-family="Arial" font-size="24.00" fill="#111827">spend, subscription quotas,</text>
<text text-anchor="start" x="65.5" y="-1473.8" font-family="Arial" font-size="24.00" fill="#111827">token usage, and local</text>
<text text-anchor="start" x="148.5" y="-1449.8" font-family="Arial" font-size="24.00" fill="#111827">history.</text>
</g>
<!-- 4 -->
<g id="4" class="node">
<title>4</title>
<polygon fill="#f0fdf4" stroke="#22c55e" points="1061,-1641 709,-1641 709,-1434 1061,-1434 1061,-1641"/>
<text text-anchor="start" x="757" y="-1592.8" font-family="Arial" font-size="34.00" fill="#111827">Command router</text>
<text text-anchor="start" x="775" y="-1570.8" font-family="Arial" font-size="19.00" fill="#111827">[Component: ai_usage.cli]</text>
<text text-anchor="start" x="742" y="-1533.8" font-family="Arial" font-size="24.00" fill="#111827">Parses CLI flags, validates</text>
<text text-anchor="start" x="738" y="-1509.8" font-family="Arial" font-size="24.00" fill="#111827">provider selection, chooses</text>
<text text-anchor="start" x="745" y="-1485.8" font-family="Arial" font-size="24.00" fill="#111827">live&#45;fetch vs history mode,</text>
<text text-anchor="start" x="758" y="-1461.8" font-family="Arial" font-size="24.00" fill="#111827">and coordinates output.</text>
</g>
<!-- 1&#45;&gt;4 -->
<g id="20" class="edge">
<title>1&#45;&gt;4</title>
<path fill="none" stroke="#475569" stroke-dasharray="5,2" d="M374.06,-1537.5C474.5,-1537.5 598.11,-1537.5 698.47,-1537.5"/>
<polygon fill="#475569" stroke="#475569" points="698.72,-1541 708.72,-1537.5 698.72,-1534 698.72,-1541"/>
<polygon fill="white" stroke="transparent" points="410,-1537.5 410,-1612.5 651,-1612.5 651,-1537.5 410,-1537.5"/>
<text text-anchor="start" x="414.5" y="-1589.8" font-family="Arial" font-size="24.00" fill="#475569">1. Runs ai&#45;usage with</text>
<text text-anchor="start" x="421" y="-1565.8" font-family="Arial" font-size="24.00" fill="#475569">provider/output flags</text>
<text text-anchor="start" x="505.5" y="-1545.8" font-family="Arial" font-size="19.00" fill="#475569">[shell]</text>
</g>
<!-- 15 -->
<g id="15" class="node">
<title>15</title>
<polygon fill="#f3e8ff" stroke="#9333ea" points="3486,-638 3106,-638 3106,-407 3486,-407 3486,-638"/>
<text text-anchor="start" x="3136" y="-589.8" font-family="Arial" font-size="34.00" fill="#111827">Local developer CLIs</text>
<text text-anchor="start" x="3219" y="-567.8" font-family="Arial" font-size="19.00" fill="#111827">[Software System]</text>
<text text-anchor="start" x="3148.5" y="-530.8" font-family="Arial" font-size="24.00" fill="#111827">Codex CLI app&#45;server/login</text>
<text text-anchor="start" x="3135" y="-506.8" font-family="Arial" font-size="24.00" fill="#111827">fallback and Claude Code CLI</text>
<text text-anchor="start" x="3177.5" y="-482.8" font-family="Arial" font-size="24.00" fill="#111827">refresh paths used for</text>
<text text-anchor="start" x="3136.5" y="-458.8" font-family="Arial" font-size="24.00" fill="#111827">subscription quota and OAuth</text>
<text text-anchor="start" x="3205.5" y="-434.8" font-family="Arial" font-size="24.00" fill="#111827">refresh behavior.</text>
</g>
<!-- 16 -->
<g id="16" class="node">
<title>16</title>
<polygon fill="#f3e8ff" stroke="#9333ea" points="3495.5,-335 3096.5,-335 3096.5,-80 3495.5,-80 3495.5,-335"/>
<text text-anchor="start" x="3144" y="-286.8" font-family="Arial" font-size="34.00" fill="#111827">Provider HTTP APIs</text>
<text text-anchor="start" x="3219" y="-264.8" font-family="Arial" font-size="19.00" fill="#111827">[Software System]</text>
<text text-anchor="start" x="3143" y="-227.8" font-family="Arial" font-size="24.00" fill="#111827">External APIs for DeepSeek,</text>
<text text-anchor="start" x="3133" y="-203.8" font-family="Arial" font-size="24.00" fill="#111827">xAI, OpenRouter, Vast.ai, Exa,</text>
<text text-anchor="start" x="3159" y="-179.8" font-family="Arial" font-size="24.00" fill="#111827">X Console, Codex usage,</text>
<text text-anchor="start" x="3136" y="-155.8" font-family="Arial" font-size="24.00" fill="#111827">Anthropic OAuth usage, Nous</text>
<text text-anchor="start" x="3154" y="-131.8" font-family="Arial" font-size="24.00" fill="#111827">Portal, Google OAuth, and</text>
<text text-anchor="start" x="3125.5" y="-107.8" font-family="Arial" font-size="24.00" fill="#111827">Google Cloud Code quota data.</text>
</g>
<!-- 17 -->
<g id="17" class="node">
<title>17</title>
<polygon fill="#f3e8ff" stroke="#9333ea" points="2650.5,-638 2261.5,-638 2261.5,-445 2650.5,-445 2650.5,-638"/>
<text text-anchor="start" x="2329" y="-589.8" font-family="Arial" font-size="34.00" fill="#111827">Terminal / calling</text>
<text text-anchor="start" x="2396" y="-555.8" font-family="Arial" font-size="34.00" fill="#111827">process</text>
<text text-anchor="start" x="2379" y="-533.8" font-family="Arial" font-size="19.00" fill="#111827">[Software System]</text>
<text text-anchor="start" x="2290.5" y="-496.8" font-family="Arial" font-size="24.00" fill="#111827">Receives stdout table or JSON</text>
<text text-anchor="start" x="2341" y="-472.8" font-family="Arial" font-size="24.00" fill="#111827">output from ai&#45;usage.</text>
</g>
<!-- 10 -->
<g id="10" class="node">
<title>10</title>
<polygon fill="#f0fdf4" stroke="#22c55e" points="3500,-1095 3092,-1095 3092,-864 3500,-864 3500,-1095"/>
<text text-anchor="start" x="3121" y="-1046.8" font-family="Arial" font-size="34.00" fill="#111827">Normalized data model</text>
<text text-anchor="start" x="3164.5" y="-1024.8" font-family="Arial" font-size="19.00" fill="#111827">[Component: ai_usage.models]</text>
<text text-anchor="start" x="3141" y="-987.8" font-family="Arial" font-size="24.00" fill="#111827">ProviderData and TokenData</text>
<text text-anchor="start" x="3159" y="-963.8" font-family="Arial" font-size="24.00" fill="#111827">dataclasses for balances,</text>
<text text-anchor="start" x="3126.5" y="-939.8" font-family="Arial" font-size="24.00" fill="#111827">spend, tokens, per&#45;model rows,</text>
<text text-anchor="start" x="3158" y="-915.8" font-family="Arial" font-size="24.00" fill="#111827">provider extras, and meta</text>
<text text-anchor="start" x="3260.5" y="-891.8" font-family="Arial" font-size="24.00" fill="#111827">errors.</text>
</g>
<!-- 11 -->
<g id="11" class="node">
<title>11</title>
<polygon fill="#f0fdf4" stroke="#22c55e" points="1828,-2259 1436,-2259 1436,-2076 1828,-2076 1828,-2259"/>
<text text-anchor="start" x="1480.5" y="-2210.8" font-family="Arial" font-size="34.00" fill="#111827">Snapshot repository</text>
<text text-anchor="start" x="1465" y="-2188.8" font-family="Arial" font-size="19.00" fill="#111827">[Component: ai_usage.db.SnapshotDB]</text>
<text text-anchor="start" x="1481" y="-2151.8" font-family="Arial" font-size="24.00" fill="#111827">Creates, writes, and queries</text>
<text text-anchor="start" x="1507.5" y="-2127.8" font-family="Arial" font-size="24.00" fill="#111827">the local SQLite history</text>
<text text-anchor="start" x="1578.5" y="-2103.8" font-family="Arial" font-size="24.00" fill="#111827">database.</text>
</g>
<!-- 13 -->
<g id="13" class="node">
<title>13</title>
<path fill="#fef3c7" stroke="#d97706" d="M2711,-2611.22C2711,-2627.86 2596.7,-2641.38 2456,-2641.38 2315.3,-2641.38 2201,-2627.86 2201,-2611.22 2201,-2611.22 2201,-2339.78 2201,-2339.78 2201,-2323.14 2315.3,-2309.62 2456,-2309.62 2596.7,-2309.62 2711,-2323.14 2711,-2339.78 2711,-2339.78 2711,-2611.22 2711,-2611.22"/>
<path fill="none" stroke="#d97706" d="M2711,-2611.22C2711,-2594.57 2596.7,-2581.06 2456,-2581.06 2315.3,-2581.06 2201,-2594.57 2201,-2611.22"/>
<text text-anchor="start" x="2329" y="-2547.8" font-family="Arial" font-size="34.00" fill="#111827">Snapshot history</text>
<text text-anchor="start" x="2386" y="-2513.8" font-family="Arial" font-size="34.00" fill="#111827">database</text>
<text text-anchor="start" x="2230" y="-2491.8" font-family="Arial" font-size="19.00" fill="#111827">[Container: SQLite WAL file at ~/.hermes/ai&#45;usage.db]</text>
<text text-anchor="start" x="2311" y="-2454.8" font-family="Arial" font-size="24.00" fill="#111827">Stores normalized provider</text>
<text text-anchor="start" x="2335.5" y="-2430.8" font-family="Arial" font-size="24.00" fill="#111827">snapshots for &#45;&#45;history</text>
<text text-anchor="start" x="2290.5" y="-2406.8" font-family="Arial" font-size="24.00" fill="#111827">queries; raw provider payloads</text>
<text text-anchor="start" x="2377.5" y="-2382.8" font-family="Arial" font-size="24.00" fill="#111827">are not stored.</text>
</g>
<!-- 11&#45;&gt;13 -->
<g id="44" class="edge">
<title>11&#45;&gt;13</title>
<path fill="none" stroke="#475569" stroke-dasharray="5,2" d="M1828.06,-2240.59C1936.58,-2281.25 2073.15,-2332.42 2191.1,-2376.62"/>
<polygon fill="#475569" stroke="#475569" points="2190.04,-2379.96 2200.64,-2380.19 2192.5,-2373.4 2190.04,-2379.96"/>
<polygon fill="white" stroke="transparent" points="1872,-2357.5 1872,-2408.5 2165,-2408.5 2165,-2357.5 1872,-2357.5"/>
<text text-anchor="start" x="1876.5" y="-2385.8" font-family="Arial" font-size="24.00" fill="#475569">11. Insert normalized rows</text>
<text text-anchor="start" x="1985.5" y="-2365.8" font-family="Arial" font-size="19.00" fill="#475569">[sqlite3]</text>
</g>
<!-- 12 -->
<g id="12" class="node">
<title>12</title>
<polygon fill="#f0fdf4" stroke="#22c55e" points="1804,-1047 1460,-1047 1460,-864 1804,-864 1804,-1047"/>
<text text-anchor="start" x="1561" y="-998.8" font-family="Arial" font-size="34.00" fill="#111827">Renderer</text>
<text text-anchor="start" x="1504" y="-976.8" font-family="Arial" font-size="19.00" fill="#111827">[Component: ai_usage.render]</text>
<text text-anchor="start" x="1489" y="-939.8" font-family="Arial" font-size="24.00" fill="#111827">Formats normalized live or</text>
<text text-anchor="start" x="1510.5" y="-915.8" font-family="Arial" font-size="24.00" fill="#111827">history data as aligned</text>
<text text-anchor="start" x="1500" y="-891.8" font-family="Arial" font-size="24.00" fill="#111827">terminal tables or JSON.</text>
</g>
<!-- 12&#45;&gt;17 -->
<g id="46" class="edge">
<title>12&#45;&gt;17</title>
<path fill="none" stroke="#475569" stroke-dasharray="5,2" d="M1804.32,-869.22C1935.3,-803.24 2116.22,-712.13 2254.04,-642.72"/>
<polygon fill="#475569" stroke="#475569" points="2255.69,-645.8 2263.05,-638.18 2252.55,-639.55 2255.69,-645.8"/>
<polygon fill="white" stroke="transparent" points="1905,-832.5 1905,-883.5 2132,-883.5 2132,-832.5 1905,-832.5"/>
<text text-anchor="start" x="1909.5" y="-860.8" font-family="Arial" font-size="24.00" fill="#475569">13. Write final report</text>
<text text-anchor="start" x="1987.5" y="-840.8" font-family="Arial" font-size="19.00" fill="#475569">[stdout]</text>
</g>
<!-- 4&#45;&gt;11 -->
<g id="33" class="edge">
<title>4&#45;&gt;11</title>
<path fill="none" stroke="#475569" stroke-dasharray="5,2" d="M941.99,-1641.13C979.93,-1704.91 1034.44,-1785.47 1097,-1844.5 1194.25,-1936.26 1321.83,-2014.61 1427.9,-2071.16"/>
<polygon fill="#475569" stroke="#475569" points="1426.32,-2074.28 1436.8,-2075.87 1429.6,-2068.09 1426.32,-2074.28"/>
<polygon fill="white" stroke="transparent" points="1097,-2047.5 1097,-2107.5 1392,-2107.5 1392,-2047.5 1097,-2047.5"/>
<text text-anchor="start" x="1101.5" y="-2084.3" font-family="Arial" font-size="24.00" fill="#475569">10. Save fetched snapshot</text>
<text text-anchor="start" x="1219" y="-2058.3" font-family="Arial" font-size="24.00" fill="#475569">rows</text>
</g>
<!-- 4&#45;&gt;12 -->
<g id="34" class="edge">
<title>4&#45;&gt;12</title>
<path fill="none" stroke="#475569" stroke-dasharray="5,2" d="M954.6,-1433.69C992.55,-1381.14 1042.92,-1318.67 1097,-1271.5 1203.8,-1178.35 1341.84,-1097.49 1450.82,-1040.88"/>
<polygon fill="#475569" stroke="#475569" points="1452.67,-1043.87 1459.94,-1036.17 1449.45,-1037.65 1452.67,-1043.87"/>
<polygon fill="white" stroke="transparent" points="1101,-1271.5 1101,-1305.5 1388,-1305.5 1388,-1271.5 1101,-1271.5"/>
<text text-anchor="start" x="1105.5" y="-1282.3" font-family="Arial" font-size="24.00" fill="#475569">12. Render table or JSON</text>
</g>
<!-- 5 -->
<g id="5" class="node">
<title>5</title>
<polygon fill="#f0fdf4" stroke="#22c55e" points="1829.5,-1677 1434.5,-1677 1434.5,-1398 1829.5,-1398 1829.5,-1677"/>
<text text-anchor="start" x="1502.5" y="-1628.8" font-family="Arial" font-size="34.00" fill="#111827">Credential loader</text>
<text text-anchor="start" x="1505.5" y="-1606.8" font-family="Arial" font-size="19.00" fill="#111827">[Component: ai_usage.config]</text>
<text text-anchor="start" x="1545.5" y="-1569.8" font-family="Arial" font-size="24.00" fill="#111827">Loads API keys,</text>
<text text-anchor="start" x="1496" y="-1545.8" font-family="Arial" font-size="24.00" fill="#111827">browser&#45;session cookies,</text>
<text text-anchor="start" x="1476.5" y="-1521.8" font-family="Arial" font-size="24.00" fill="#111827">timeout settings, OAuth state</text>
<text text-anchor="start" x="1463.5" y="-1497.8" font-family="Arial" font-size="24.00" fill="#111827">references, and Hermes Codex</text>
<text text-anchor="start" x="1472.5" y="-1473.8" font-family="Arial" font-size="24.00" fill="#111827">credential&#45;pool accounts from</text>
<text text-anchor="start" x="1488.5" y="-1449.8" font-family="Arial" font-size="24.00" fill="#111827">local files and environment</text>
<text text-anchor="start" x="1580" y="-1425.8" font-family="Arial" font-size="24.00" fill="#111827">variables.</text>
</g>
<!-- 4&#45;&gt;5 -->
<g id="30" class="edge">
<title>4&#45;&gt;5</title>
<path fill="none" stroke="#475569" stroke-dasharray="5,2" d="M1061.14,-1537.5C1169.8,-1537.5 1309.97,-1537.5 1424.1,-1537.5"/>
<polygon fill="#475569" stroke="#475569" points="1424.36,-1541 1434.36,-1537.5 1424.36,-1534 1424.36,-1541"/>
<polygon fill="white" stroke="transparent" points="1114,-1537.5 1114,-1597.5 1375,-1597.5 1375,-1537.5 1114,-1537.5"/>
<text text-anchor="start" x="1118.5" y="-1574.3" font-family="Arial" font-size="24.00" fill="#475569">2. Load credentials and</text>
<text text-anchor="start" x="1160" y="-1548.3" font-family="Arial" font-size="24.00" fill="#475569">timeout settings</text>
</g>
<!-- 6 -->
<g id="6" class="node">
<title>6</title>
<polygon fill="#f0fdf4" stroke="#22c55e" points="1836,-2004 1428,-2004 1428,-1749 1836,-1749 1836,-2004"/>
<text text-anchor="start" x="1508" y="-1955.8" font-family="Arial" font-size="34.00" fill="#111827">Provider registry</text>
<text text-anchor="start" x="1492" y="-1933.8" font-family="Arial" font-size="19.00" fill="#111827">[Component: ai_usage.providers]</text>
<text text-anchor="start" x="1498.5" y="-1896.8" font-family="Arial" font-size="24.00" fill="#111827">Registers and constructs</text>
<text text-anchor="start" x="1506" y="-1872.8" font-family="Arial" font-size="24.00" fill="#111827">Provider subclasses for</text>
<text text-anchor="start" x="1476" y="-1848.8" font-family="Arial" font-size="24.00" fill="#111827">DeepSeek, xAI, OpenRouter,</text>
<text text-anchor="start" x="1487" y="-1824.8" font-family="Arial" font-size="24.00" fill="#111827">Vast.ai, Exa, X API, Codex,</text>
<text text-anchor="start" x="1457" y="-1800.8" font-family="Arial" font-size="24.00" fill="#111827">Claude Code, Nous, and Google</text>
<text text-anchor="start" x="1579.5" y="-1776.8" font-family="Arial" font-size="24.00" fill="#111827">AI Studio.</text>
</g>
<!-- 4&#45;&gt;6 -->
<g id="31" class="edge">
<title>4&#45;&gt;6</title>
<path fill="none" stroke="#475569" stroke-dasharray="5,2" d="M1061.14,-1617.19C1168.14,-1665.88 1305.69,-1728.47 1418.84,-1779.96"/>
<polygon fill="#475569" stroke="#475569" points="1417.43,-1783.16 1427.98,-1784.12 1420.33,-1776.79 1417.43,-1783.16"/>
<polygon fill="white" stroke="transparent" points="1145,-1766.5 1145,-1826.5 1344,-1826.5 1344,-1766.5 1145,-1766.5"/>
<text text-anchor="start" x="1149.5" y="-1803.3" font-family="Arial" font-size="24.00" fill="#475569">3. Select selected</text>
<text text-anchor="start" x="1150" y="-1777.3" font-family="Arial" font-size="24.00" fill="#475569">provider adapters</text>
</g>
<!-- 7 -->
<g id="7" class="node">
<title>7</title>
<polygon fill="#f0fdf4" stroke="#22c55e" points="1827.5,-1326 1436.5,-1326 1436.5,-1119 1827.5,-1119 1827.5,-1326"/>
<text text-anchor="start" x="1493.5" y="-1277.8" font-family="Arial" font-size="34.00" fill="#111827">Fetch orchestrator</text>
<text text-anchor="start" x="1502.5" y="-1255.8" font-family="Arial" font-size="19.00" fill="#111827">[Component: ai_usage.fetcher]</text>
<text text-anchor="start" x="1465.5" y="-1218.8" font-family="Arial" font-size="24.00" fill="#111827">Runs selected provider fetches</text>
<text text-anchor="start" x="1484.5" y="-1194.8" font-family="Arial" font-size="24.00" fill="#111827">sequentially or concurrently</text>
<text text-anchor="start" x="1507" y="-1170.8" font-family="Arial" font-size="24.00" fill="#111827">with a total timeout and</text>
<text text-anchor="start" x="1486" y="-1146.8" font-family="Arial" font-size="24.00" fill="#111827">per&#45;provider error isolation.</text>
</g>
<!-- 4&#45;&gt;7 -->
<g id="32" class="edge">
<title>4&#45;&gt;7</title>
<path fill="none" stroke="#475569" stroke-dasharray="5,2" d="M1061.14,-1463.45C1170.76,-1417.1 1312.44,-1357.19 1427.1,-1308.71"/>
<polygon fill="#475569" stroke="#475569" points="1428.51,-1311.92 1436.36,-1304.8 1425.78,-1305.47 1428.51,-1311.92"/>
<polygon fill="white" stroke="transparent" points="1148,-1443.5 1148,-1503.5 1341,-1503.5 1341,-1443.5 1148,-1443.5"/>
<text text-anchor="start" x="1152.5" y="-1480.3" font-family="Arial" font-size="24.00" fill="#475569">4. Fetch selected</text>
<text text-anchor="start" x="1195" y="-1454.3" font-family="Arial" font-size="24.00" fill="#475569">providers</text>
</g>
<!-- 8 -->
<g id="8" class="node">
<title>8</title>
<polygon fill="#f0fdf4" stroke="#22c55e" points="2640,-1083 2272,-1083 2272,-876 2640,-876 2640,-1083"/>
<text text-anchor="start" x="2322" y="-1034.8" font-family="Arial" font-size="34.00" fill="#111827">Provider adapters</text>
<text text-anchor="start" x="2301" y="-1012.8" font-family="Arial" font-size="19.00" fill="#111827">[Component: src/ai_usage/providers]</text>
<text text-anchor="start" x="2317.5" y="-975.8" font-family="Arial" font-size="24.00" fill="#111827">Provider&#45;specific modules</text>
<text text-anchor="start" x="2302.5" y="-951.8" font-family="Arial" font-size="24.00" fill="#111827">convert raw HTTP, local CLI,</text>
<text text-anchor="start" x="2306.5" y="-927.8" font-family="Arial" font-size="24.00" fill="#111827">and local file responses into</text>
<text text-anchor="start" x="2319" y="-903.8" font-family="Arial" font-size="24.00" fill="#111827">normalized ProviderData.</text>
</g>
<!-- 7&#45;&gt;8 -->
<g id="37" class="edge">
<title>7&#45;&gt;8</title>
<path fill="none" stroke="#475569" stroke-dasharray="5,2" d="M1784.1,-1118.97C1830.75,-1087.1 1870.48,-1060.09 1872,-1059.5 1996.37,-1011.62 2145.37,-991.77 2261.61,-983.81"/>
<polygon fill="#475569" stroke="#475569" points="2261.94,-987.29 2271.69,-983.14 2261.48,-980.31 2261.94,-987.29"/>
<polygon fill="white" stroke="transparent" points="1895.5,-1059.5 1895.5,-1110.5 2141.5,-1110.5 2141.5,-1059.5 1895.5,-1059.5"/>
<text text-anchor="start" x="1899.5" y="-1087.8" font-family="Arial" font-size="24.00" fill="#475569">5. Call provider.fetch()</text>
<text text-anchor="start" x="1926.5" y="-1067.8" font-family="Arial" font-size="19.00" fill="#475569">[ThreadPoolExecutor]</text>
</g>
<!-- 8&#45;&gt;15 -->
<g id="39" class="edge">
<title>8&#45;&gt;15</title>
<path fill="none" stroke="#475569" stroke-dasharray="5,2" d="M2640.13,-879.63C2775.03,-806.06 2958.33,-706.1 3096.69,-630.65"/>
<polygon fill="#475569" stroke="#475569" points="3098.64,-633.57 3105.74,-625.71 3095.28,-627.43 3098.64,-633.57"/>
<polygon fill="white" stroke="transparent" points="2765,-818.5 2765,-917.5 3038,-917.5 3038,-818.5 2765,-818.5"/>
<text text-anchor="start" x="2801.5" y="-894.8" font-family="Arial" font-size="24.00" fill="#475569">8. Use CLI&#45;backed</text>
<text text-anchor="start" x="2769.5" y="-870.8" font-family="Arial" font-size="24.00" fill="#475569">quota/auth fallback flows</text>
<text text-anchor="start" x="2815" y="-846.8" font-family="Arial" font-size="24.00" fill="#475569">when applicable</text>
<text text-anchor="start" x="2847.5" y="-826.8" font-family="Arial" font-size="19.00" fill="#475569">[subprocess]</text>
</g>
<!-- 8&#45;&gt;16 -->
<g id="41" class="edge">
<title>8&#45;&gt;16</title>
<path fill="none" stroke="#475569" stroke-dasharray="5,2" d="M2562.7,-875.91C2614.01,-820.41 2672.69,-748.36 2711,-674.5 2739.39,-619.76 2709.99,-589.83 2747,-540.5 2832.94,-425.94 2970.89,-342.43 3086.87,-287.69"/>
<polygon fill="#475569" stroke="#475569" points="3088.67,-290.71 3096.24,-283.3 3085.7,-284.37 3088.67,-290.71"/>
<polygon fill="white" stroke="transparent" points="2751.5,-540.5 2751.5,-639.5 3051.5,-639.5 3051.5,-540.5 2751.5,-540.5"/>
<text text-anchor="start" x="2834.5" y="-616.8" font-family="Arial" font-size="24.00" fill="#475569">7. Fetch raw</text>
<text text-anchor="start" x="2755.5" y="-592.8" font-family="Arial" font-size="24.00" fill="#475569">balance/spend/quota/token</text>
<text text-anchor="start" x="2877.5" y="-568.8" font-family="Arial" font-size="24.00" fill="#475569">data</text>
<text text-anchor="start" x="2865" y="-548.8" font-family="Arial" font-size="19.00" fill="#475569">[HTTPS]</text>
</g>
<!-- 8&#45;&gt;10 -->
<g id="42" class="edge">
<title>8&#45;&gt;10</title>
<path fill="none" stroke="#475569" stroke-dasharray="5,2" d="M2640.13,-979.5C2770.17,-979.5 2945.16,-979.5 3081.54,-979.5"/>
<polygon fill="#475569" stroke="#475569" points="3081.71,-983 3091.71,-979.5 3081.71,-976 3081.71,-983"/>
<polygon fill="white" stroke="transparent" points="2747,-979.5 2747,-1013.5 3056,-1013.5 3056,-979.5 2747,-979.5"/>
<text text-anchor="start" x="2751.5" y="-990.3" font-family="Arial" font-size="24.00" fill="#475569">9. Normalize raw responses</text>
</g>
<!-- 9 -->
<g id="9" class="node">
<title>9</title>
<polygon fill="#f0fdf4" stroke="#22c55e" points="3486,-1350 3106,-1350 3106,-1167 3486,-1167 3486,-1350"/>
<text text-anchor="start" x="3207" y="-1301.8" font-family="Arial" font-size="34.00" fill="#111827">HTTP client</text>
<text text-anchor="start" x="3135" y="-1279.8" font-family="Arial" font-size="19.00" fill="#111827">[Component: ai_usage.http.HttpClient]</text>
<text text-anchor="start" x="3141.5" y="-1242.8" font-family="Arial" font-size="24.00" fill="#111827">urllib&#45;based JSON client with</text>
<text text-anchor="start" x="3198.5" y="-1218.8" font-family="Arial" font-size="24.00" fill="#111827">timeout, retry, and</text>
<text text-anchor="start" x="3136" y="-1194.8" font-family="Arial" font-size="24.00" fill="#111827">non&#45;retryable status handling.</text>
</g>
<!-- 8&#45;&gt;9 -->
<g id="38" class="edge">
<title>8&#45;&gt;9</title>
<path fill="none" stroke="#475569" stroke-dasharray="5,2" d="M2640.13,-1040.47C2774.76,-1085.29 2957.6,-1146.17 3095.86,-1192.2"/>
<polygon fill="#475569" stroke="#475569" points="3095.15,-1195.65 3105.74,-1195.49 3097.36,-1189.01 3095.15,-1195.65"/>
<polygon fill="white" stroke="transparent" points="2779,-1175.5 2779,-1235.5 3024,-1235.5 3024,-1175.5 2779,-1175.5"/>
<text text-anchor="start" x="2788" y="-1212.3" font-family="Arial" font-size="24.00" fill="#475569">6. Use retrying HTTP</text>
<text text-anchor="start" x="2783.5" y="-1186.3" font-family="Arial" font-size="24.00" fill="#475569">client when applicable</text>
</g>
</g>
</svg>
