<?xml version="1.0" encoding="UTF-8" standalone="no"?>
<!DOCTYPE svg PUBLIC "-//W3C//DTD SVG 1.1//EN"
 "http://www.w3.org/Graphics/SVG/1.1/DTD/svg11.dtd">
<!-- Generated by graphviz version 2.43.0 (0)
 -->
<!-- Title: %3 Pages: 1 -->
<svg width="3566pt" height="2635pt"
 viewBox="0.00 0.00 3566.00 2634.50" xmlns="http://www.w3.org/2000/svg" xmlns:xlink="http://www.w3.org/1999/xlink">
<g id="graph0" class="graph" transform="scale(1 1) rotate(0) translate(4 2630.5)">
<title>%3</title>
<polygon fill="white" stroke="transparent" points="-4,4 -4,-2630.5 3562,-2630.5 3562,4 -4,4"/>
<text text-anchor="start" x="1490" y="-35.8" font-family="Arial" font-size="34.00">Dynamic View: ai&#45;usage &#45; CLI process</text>
<text text-anchor="start" x="1484.5" y="-9.8" font-family="Arial" font-size="24.00">Live fetch sequence for ai&#45;usage [&#45;p providers] [&#45;m] [&#45;j].</text>
<g id="clust1" class="cluster">
<title>cluster_2</title>
<polygon fill="none" stroke="#444444" points="659,-639.5 659,-2618.5 3550,-2618.5 3550,-639.5 659,-639.5"/>
<text text-anchor="start" x="2057.5" y="-668.3" font-family="Arial" font-size="24.00" fill="#444444">ai&#45;usage</text>
<text text-anchor="start" x="2027.5" y="-648.3" font-family="Arial" font-size="19.00" fill="#444444">[Software System]</text>
</g>
<g id="clust2" class="cluster">
<title>cluster_3</title>
<polygon fill="none" stroke="#444444" points="684,-739.5 684,-2236.5 3525,-2236.5 3525,-739.5 684,-739.5"/>
<text text-anchor="start" x="2039.5" y="-768.3" font-family="Arial" font-size="24.00" fill="#444444">CLI process</text>
<text text-anchor="start" x="1979.5" y="-748.3" font-family="Arial" font-size="19.00" fill="#444444">[Container: Python 3.10+ CLI]</text>
</g>
<!-- 1 -->
<g id="1" class="node">
<title>1</title>
<polygon fill="#dbeafe" stroke="#2563eb" points="374,-1617 0,-1617 0,-1386 374,-1386 374,-1617"/>
<text text-anchor="start" x="120" y="-1568.8" font-family="Arial" font-size="34.00" fill="#111827">Operator</text>
<text text-anchor="start" x="151.5" y="-1546.8" font-family="Arial" font-size="19.00" fill="#111827">[Person]</text>
<text text-anchor="start" x="29" y="-1509.8" font-family="Arial" font-size="24.00" fill="#111827">Runs ai&#45;usage from a shell to</text>
<text text-anchor="start" x="46" y="-1485.8" font-family="Arial" font-size="24.00" fill="#111827">inspect provider balances,</text>
<text text-anchor="start" x="39.5" y="-1461.8" font-family="Arial" font-size="24.00" fill="#111827">spend, subscription quotas,</text>
<text text-anchor="start" x="65.5" y="-1437.8" font-family="Arial" font-size="24.00" fill="#111827">token usage, and local</text>
<text text-anchor="start" x="148.5" y="-1413.8" font-family="Arial" font-size="24.00" fill="#111827">history.</text>
</g>
<!-- 4 -->
<g id="4" class="node">
<title>4</title>
<polygon fill="#f0fdf4" stroke="#22c55e" points="1061,-1605 709,-1605 709,-1398 1061,-1398 1061,-1605"/>
<text text-anchor="start" x="757" y="-1556.8" font-family="Arial" font-size="34.00" fill="#111827">Command router</text>
<text text-anchor="start" x="775" y="-1534.8" font-family="Arial" font-size="19.00" fill="#111827">[Component: ai_usage.cli]</text>
<text text-anchor="start" x="742" y="-1497.8" font-family="Arial" font-size="24.00" fill="#111827">Parses CLI flags, validates</text>
<text text-anchor="start" x="738" y="-1473.8" font-family="Arial" font-size="24.00" fill="#111827">provider selection, chooses</text>
<text text-anchor="start" x="745" y="-1449.8" font-family="Arial" font-size="24.00" fill="#111827">live&#45;fetch vs history mode,</text>
<text text-anchor="start" x="758" y="-1425.8" font-family="Arial" font-size="24.00" fill="#111827">and coordinates output.</text>
</g>
<!-- 1&#45;&gt;4 -->
<g id="20" class="edge">
<title>1&#45;&gt;4</title>
<path fill="none" stroke="#475569" stroke-dasharray="5,2" d="M374.06,-1501.5C474.5,-1501.5 598.11,-1501.5 698.47,-1501.5"/>
<polygon fill="#475569" stroke="#475569" points="698.72,-1505 708.72,-1501.5 698.72,-1498 698.72,-1505"/>
<polygon fill="white" stroke="transparent" points="410,-1501.5 410,-1576.5 651,-1576.5 651,-1501.5 410,-1501.5"/>
<text text-anchor="start" x="414.5" y="-1553.8" font-family="Arial" font-size="24.00" fill="#475569">1. Runs ai&#45;usage with</text>
<text text-anchor="start" x="421" y="-1529.8" font-family="Arial" font-size="24.00" fill="#475569">provider/output flags</text>
<text text-anchor="start" x="505.5" y="-1509.8" font-family="Arial" font-size="19.00" fill="#475569">[shell]</text>
</g>
<!-- 15 -->
<g id="15" class="node">
<title>15</title>
<polygon fill="#f3e8ff" stroke="#9333ea" points="3496.5,-614 3095.5,-614 3095.5,-407 3496.5,-407 3496.5,-614"/>
<text text-anchor="start" x="3136" y="-565.8" font-family="Arial" font-size="34.00" fill="#111827">Local developer CLIs</text>
<text text-anchor="start" x="3219" y="-543.8" font-family="Arial" font-size="19.00" fill="#111827">[Software System]</text>
<text text-anchor="start" x="3124.5" y="-506.8" font-family="Arial" font-size="24.00" fill="#111827">Codex CLI app&#45;server/login and</text>
<text text-anchor="start" x="3129" y="-482.8" font-family="Arial" font-size="24.00" fill="#111827">Claude Code CLI refresh paths</text>
<text text-anchor="start" x="3150" y="-458.8" font-family="Arial" font-size="24.00" fill="#111827">used for subscription quota</text>
<text text-anchor="start" x="3144" y="-434.8" font-family="Arial" font-size="24.00" fill="#111827">and OAuth refresh behavior.</text>
</g>
<!-- 16 -->
<g id="16" class="node">
<title>16</title>
<polygon fill="#f3e8ff" stroke="#9333ea" points="3496,-335 3096,-335 3096,-80 3496,-80 3496,-335"/>
<text text-anchor="start" x="3144" y="-286.8" font-family="Arial" font-size="34.00" fill="#111827">Provider HTTP APIs</text>
<text text-anchor="start" x="3219" y="-264.8" font-family="Arial" font-size="19.00" fill="#111827">[Software System]</text>
<text text-anchor="start" x="3143" y="-227.8" font-family="Arial" font-size="24.00" fill="#111827">External APIs for DeepSeek,</text>
<text text-anchor="start" x="3133" y="-203.8" font-family="Arial" font-size="24.00" fill="#111827">xAI, OpenRouter, Vast.ai, Exa,</text>
<text text-anchor="start" x="3145.5" y="-179.8" font-family="Arial" font-size="24.00" fill="#111827">X Console, Anthropic OAuth</text>
<text text-anchor="start" x="3147" y="-155.8" font-family="Arial" font-size="24.00" fill="#111827">usage, Nous Portal, Google</text>
<text text-anchor="start" x="3125" y="-131.8" font-family="Arial" font-size="24.00" fill="#111827">OAuth, and Google Cloud Code</text>
<text text-anchor="start" x="3235" y="-107.8" font-family="Arial" font-size="24.00" fill="#111827">quota data.</text>
</g>
<!-- 17 -->
<g id="17" class="node">
<title>17</title>
<polygon fill="#f3e8ff" stroke="#9333ea" points="2650.5,-614 2261.5,-614 2261.5,-421 2650.5,-421 2650.5,-614"/>
<text text-anchor="start" x="2329" y="-565.8" font-family="Arial" font-size="34.00" fill="#111827">Terminal / calling</text>
<text text-anchor="start" x="2396" y="-531.8" font-family="Arial" font-size="34.00" fill="#111827">process</text>
<text text-anchor="start" x="2379" y="-509.8" font-family="Arial" font-size="19.00" fill="#111827">[Software System]</text>
<text text-anchor="start" x="2290.5" y="-472.8" font-family="Arial" font-size="24.00" fill="#111827">Receives stdout table or JSON</text>
<text text-anchor="start" x="2341" y="-448.8" font-family="Arial" font-size="24.00" fill="#111827">output from ai&#45;usage.</text>
</g>
<!-- 10 -->
<g id="10" class="node">
<title>10</title>
<polygon fill="#f0fdf4" stroke="#22c55e" points="3500,-1071 3092,-1071 3092,-840 3500,-840 3500,-1071"/>
<text text-anchor="start" x="3121" y="-1022.8" font-family="Arial" font-size="34.00" fill="#111827">Normalized data model</text>
<text text-anchor="start" x="3164.5" y="-1000.8" font-family="Arial" font-size="19.00" fill="#111827">[Component: ai_usage.models]</text>
<text text-anchor="start" x="3141" y="-963.8" font-family="Arial" font-size="24.00" fill="#111827">ProviderData and TokenData</text>
<text text-anchor="start" x="3159" y="-939.8" font-family="Arial" font-size="24.00" fill="#111827">dataclasses for balances,</text>
<text text-anchor="start" x="3126.5" y="-915.8" font-family="Arial" font-size="24.00" fill="#111827">spend, tokens, per&#45;model rows,</text>
<text text-anchor="start" x="3158" y="-891.8" font-family="Arial" font-size="24.00" fill="#111827">provider extras, and meta</text>
<text text-anchor="start" x="3260.5" y="-867.8" font-family="Arial" font-size="24.00" fill="#111827">errors.</text>
</g>
<!-- 11 -->
<g id="11" class="node">
<title>11</title>
<polygon fill="#f0fdf4" stroke="#22c55e" points="1828,-2211 1436,-2211 1436,-2028 1828,-2028 1828,-2211"/>
<text text-anchor="start" x="1480.5" y="-2162.8" font-family="Arial" font-size="34.00" fill="#111827">Snapshot repository</text>
<text text-anchor="start" x="1465" y="-2140.8" font-family="Arial" font-size="19.00" fill="#111827">[Component: ai_usage.db.SnapshotDB]</text>
<text text-anchor="start" x="1481" y="-2103.8" font-family="Arial" font-size="24.00" fill="#111827">Creates, writes, and queries</text>
<text text-anchor="start" x="1507.5" y="-2079.8" font-family="Arial" font-size="24.00" fill="#111827">the local SQLite history</text>
<text text-anchor="start" x="1578.5" y="-2055.8" font-family="Arial" font-size="24.00" fill="#111827">database.</text>
</g>
<!-- 13 -->
<g id="13" class="node">
<title>13</title>
<path fill="#fef3c7" stroke="#d97706" d="M2711,-2563.22C2711,-2579.86 2596.7,-2593.38 2456,-2593.38 2315.3,-2593.38 2201,-2579.86 2201,-2563.22 2201,-2563.22 2201,-2291.78 2201,-2291.78 2201,-2275.14 2315.3,-2261.62 2456,-2261.62 2596.7,-2261.62 2711,-2275.14 2711,-2291.78 2711,-2291.78 2711,-2563.22 2711,-2563.22"/>
<path fill="none" stroke="#d97706" d="M2711,-2563.22C2711,-2546.57 2596.7,-2533.06 2456,-2533.06 2315.3,-2533.06 2201,-2546.57 2201,-2563.22"/>
<text text-anchor="start" x="2329" y="-2499.8" font-family="Arial" font-size="34.00" fill="#111827">Snapshot history</text>
<text text-anchor="start" x="2386" y="-2465.8" font-family="Arial" font-size="34.00" fill="#111827">database</text>
<text text-anchor="start" x="2230" y="-2443.8" font-family="Arial" font-size="19.00" fill="#111827">[Container: SQLite WAL file at ~/.hermes/ai&#45;usage.db]</text>
<text text-anchor="start" x="2311" y="-2406.8" font-family="Arial" font-size="24.00" fill="#111827">Stores normalized provider</text>
<text text-anchor="start" x="2335.5" y="-2382.8" font-family="Arial" font-size="24.00" fill="#111827">snapshots for &#45;&#45;history</text>
<text text-anchor="start" x="2290.5" y="-2358.8" font-family="Arial" font-size="24.00" fill="#111827">queries; raw provider payloads</text>
<text text-anchor="start" x="2377.5" y="-2334.8" font-family="Arial" font-size="24.00" fill="#111827">are not stored.</text>
</g>
<!-- 11&#45;&gt;13 -->
<g id="44" class="edge">
<title>11&#45;&gt;13</title>
<path fill="none" stroke="#475569" stroke-dasharray="5,2" d="M1828.06,-2192.59C1936.58,-2233.25 2073.15,-2284.42 2191.1,-2328.62"/>
<polygon fill="#475569" stroke="#475569" points="2190.04,-2331.96 2200.64,-2332.19 2192.5,-2325.4 2190.04,-2331.96"/>
<polygon fill="white" stroke="transparent" points="1872,-2309.5 1872,-2360.5 2165,-2360.5 2165,-2309.5 1872,-2309.5"/>
<text text-anchor="start" x="1876.5" y="-2337.8" font-family="Arial" font-size="24.00" fill="#475569">11. Insert normalized rows</text>
<text text-anchor="start" x="1985.5" y="-2317.8" font-family="Arial" font-size="19.00" fill="#475569">[sqlite3]</text>
</g>
<!-- 12 -->
<g id="12" class="node">
<title>12</title>
<polygon fill="#f0fdf4" stroke="#22c55e" points="1804,-1023 1460,-1023 1460,-840 1804,-840 1804,-1023"/>
<text text-anchor="start" x="1561" y="-974.8" font-family="Arial" font-size="34.00" fill="#111827">Renderer</text>
<text text-anchor="start" x="1504" y="-952.8" font-family="Arial" font-size="19.00" fill="#111827">[Component: ai_usage.render]</text>
<text text-anchor="start" x="1489" y="-915.8" font-family="Arial" font-size="24.00" fill="#111827">Formats normalized live or</text>
<text text-anchor="start" x="1510.5" y="-891.8" font-family="Arial" font-size="24.00" fill="#111827">history data as aligned</text>
<text text-anchor="start" x="1500" y="-867.8" font-family="Arial" font-size="24.00" fill="#111827">terminal tables or JSON.</text>
</g>
<!-- 12&#45;&gt;17 -->
<g id="46" class="edge">
<title>12&#45;&gt;17</title>
<path fill="none" stroke="#475569" stroke-dasharray="5,2" d="M1804.32,-845.22C1935.3,-779.24 2116.22,-688.13 2254.04,-618.72"/>
<polygon fill="#475569" stroke="#475569" points="2255.69,-621.8 2263.05,-614.18 2252.55,-615.55 2255.69,-621.8"/>
<polygon fill="white" stroke="transparent" points="1905,-808.5 1905,-859.5 2132,-859.5 2132,-808.5 1905,-808.5"/>
<text text-anchor="start" x="1909.5" y="-836.8" font-family="Arial" font-size="24.00" fill="#475569">13. Write final report</text>
<text text-anchor="start" x="1987.5" y="-816.8" font-family="Arial" font-size="19.00" fill="#475569">[stdout]</text>
</g>
<!-- 4&#45;&gt;11 -->
<g id="33" class="edge">
<title>4&#45;&gt;11</title>
<path fill="none" stroke="#475569" stroke-dasharray="5,2" d="M944.13,-1605.28C982.13,-1666.96 1035.95,-1743.93 1097,-1800.5 1194.36,-1890.73 1321.34,-1967.85 1427.05,-2023.66"/>
<polygon fill="#475569" stroke="#475569" points="1425.43,-2026.76 1435.91,-2028.31 1428.68,-2020.56 1425.43,-2026.76"/>
<polygon fill="white" stroke="transparent" points="1097,-2001.5 1097,-2061.5 1392,-2061.5 1392,-2001.5 1097,-2001.5"/>
<text text-anchor="start" x="1101.5" y="-2038.3" font-family="Arial" font-size="24.00" fill="#475569">10. Save fetched snapshot</text>
<text text-anchor="start" x="1219" y="-2012.3" font-family="Arial" font-size="24.00" fill="#475569">rows</text>
</g>
<!-- 4&#45;&gt;12 -->
<g id="34" class="edge">
<title>4&#45;&gt;12</title>
<path fill="none" stroke="#475569" stroke-dasharray="5,2" d="M957.72,-1397.8C995.49,-1347.78 1044.76,-1289.11 1097,-1244.5 1204.3,-1152.87 1342.02,-1072.89 1450.72,-1016.72"/>
<polygon fill="#475569" stroke="#475569" points="1452.53,-1019.72 1459.82,-1012.04 1449.33,-1013.5 1452.53,-1019.72"/>
<polygon fill="white" stroke="transparent" points="1101,-1244.5 1101,-1278.5 1388,-1278.5 1388,-1244.5 1101,-1244.5"/>
<text text-anchor="start" x="1105.5" y="-1255.3" font-family="Arial" font-size="24.00" fill="#475569">12. Render table or JSON</text>
</g>
<!-- 5 -->
<g id="5" class="node">
<title>5</title>
<polygon fill="#f0fdf4" stroke="#22c55e" points="1810.5,-1629 1453.5,-1629 1453.5,-1374 1810.5,-1374 1810.5,-1629"/>
<text text-anchor="start" x="1502.5" y="-1580.8" font-family="Arial" font-size="34.00" fill="#111827">Credential loader</text>
<text text-anchor="start" x="1505.5" y="-1558.8" font-family="Arial" font-size="19.00" fill="#111827">[Component: ai_usage.config]</text>
<text text-anchor="start" x="1545.5" y="-1521.8" font-family="Arial" font-size="24.00" fill="#111827">Loads API keys,</text>
<text text-anchor="start" x="1496" y="-1497.8" font-family="Arial" font-size="24.00" fill="#111827">browser&#45;session cookies,</text>
<text text-anchor="start" x="1482.5" y="-1473.8" font-family="Arial" font-size="24.00" fill="#111827">timeout settings, and OAuth</text>
<text text-anchor="start" x="1489" y="-1449.8" font-family="Arial" font-size="24.00" fill="#111827">state references from local</text>
<text text-anchor="start" x="1516.5" y="-1425.8" font-family="Arial" font-size="24.00" fill="#111827">files and environment</text>
<text text-anchor="start" x="1580" y="-1401.8" font-family="Arial" font-size="24.00" fill="#111827">variables.</text>
</g>
<!-- 4&#45;&gt;5 -->
<g id="30" class="edge">
<title>4&#45;&gt;5</title>
<path fill="none" stroke="#475569" stroke-dasharray="5,2" d="M1061.14,-1501.5C1175.97,-1501.5 1325.99,-1501.5 1443.27,-1501.5"/>
<polygon fill="#475569" stroke="#475569" points="1443.44,-1505 1453.44,-1501.5 1443.44,-1498 1443.44,-1505"/>
<polygon fill="white" stroke="transparent" points="1114,-1501.5 1114,-1561.5 1375,-1561.5 1375,-1501.5 1114,-1501.5"/>
<text text-anchor="start" x="1118.5" y="-1538.3" font-family="Arial" font-size="24.00" fill="#475569">2. Load credentials and</text>
<text text-anchor="start" x="1160" y="-1512.3" font-family="Arial" font-size="24.00" fill="#475569">timeout settings</text>
</g>
<!-- 6 -->
<g id="6" class="node">
<title>6</title>
<polygon fill="#f0fdf4" stroke="#22c55e" points="1836,-1956 1428,-1956 1428,-1701 1836,-1701 1836,-1956"/>
<text text-anchor="start" x="1508" y="-1907.8" font-family="Arial" font-size="34.00" fill="#111827">Provider registry</text>
<text text-anchor="start" x="1492" y="-1885.8" font-family="Arial" font-size="19.00" fill="#111827">[Component: ai_usage.providers]</text>
<text text-anchor="start" x="1498.5" y="-1848.8" font-family="Arial" font-size="24.00" fill="#111827">Registers and constructs</text>
<text text-anchor="start" x="1506" y="-1824.8" font-family="Arial" font-size="24.00" fill="#111827">Provider subclasses for</text>
<text text-anchor="start" x="1476" y="-1800.8" font-family="Arial" font-size="24.00" fill="#111827">DeepSeek, xAI, OpenRouter,</text>
<text text-anchor="start" x="1487" y="-1776.8" font-family="Arial" font-size="24.00" fill="#111827">Vast.ai, Exa, X API, Codex,</text>
<text text-anchor="start" x="1457" y="-1752.8" font-family="Arial" font-size="24.00" fill="#111827">Claude Code, Nous, and Google</text>
<text text-anchor="start" x="1579.5" y="-1728.8" font-family="Arial" font-size="24.00" fill="#111827">AI Studio.</text>
</g>
<!-- 4&#45;&gt;6 -->
<g id="31" class="edge">
<title>4&#45;&gt;6</title>
<path fill="none" stroke="#475569" stroke-dasharray="5,2" d="M1061.14,-1578.37C1168.03,-1625.29 1305.41,-1685.59 1418.5,-1735.23"/>
<polygon fill="#475569" stroke="#475569" points="1417.42,-1738.58 1427.98,-1739.39 1420.23,-1732.17 1417.42,-1738.58"/>
<polygon fill="white" stroke="transparent" points="1145,-1722.5 1145,-1782.5 1344,-1782.5 1344,-1722.5 1145,-1722.5"/>
<text text-anchor="start" x="1149.5" y="-1759.3" font-family="Arial" font-size="24.00" fill="#475569">3. Select selected</text>
<text text-anchor="start" x="1150" y="-1733.3" font-family="Arial" font-size="24.00" fill="#475569">provider adapters</text>
</g>
<!-- 7 -->
<g id="7" class="node">
<title>7</title>
<polygon fill="#f0fdf4" stroke="#22c55e" points="1827.5,-1302 1436.5,-1302 1436.5,-1095 1827.5,-1095 1827.5,-1302"/>
<text text-anchor="start" x="1493.5" y="-1253.8" font-family="Arial" font-size="34.00" fill="#111827">Fetch orchestrator</text>
<text text-anchor="start" x="1502.5" y="-1231.8" font-family="Arial" font-size="19.00" fill="#111827">[Component: ai_usage.fetcher]</text>
<text text-anchor="start" x="1465.5" y="-1194.8" font-family="Arial" font-size="24.00" fill="#111827">Runs selected provider fetches</text>
<text text-anchor="start" x="1484.5" y="-1170.8" font-family="Arial" font-size="24.00" fill="#111827">sequentially or concurrently</text>
<text text-anchor="start" x="1507" y="-1146.8" font-family="Arial" font-size="24.00" fill="#111827">with a total timeout and</text>
<text text-anchor="start" x="1486" y="-1122.8" font-family="Arial" font-size="24.00" fill="#111827">per&#45;provider error isolation.</text>
</g>
<!-- 4&#45;&gt;7 -->
<g id="32" class="edge">
<title>4&#45;&gt;7</title>
<path fill="none" stroke="#475569" stroke-dasharray="5,2" d="M1061.14,-1430.27C1170.65,-1385.73 1312.15,-1328.18 1426.76,-1281.57"/>
<polygon fill="#475569" stroke="#475569" points="1428.41,-1284.67 1436.36,-1277.66 1425.78,-1278.19 1428.41,-1284.67"/>
<polygon fill="white" stroke="transparent" points="1148,-1411.5 1148,-1471.5 1341,-1471.5 1341,-1411.5 1148,-1411.5"/>
<text text-anchor="start" x="1152.5" y="-1448.3" font-family="Arial" font-size="24.00" fill="#475569">4. Fetch selected</text>
<text text-anchor="start" x="1195" y="-1422.3" font-family="Arial" font-size="24.00" fill="#475569">providers</text>
</g>
<!-- 8 -->
<g id="8" class="node">
<title>8</title>
<polygon fill="#f0fdf4" stroke="#22c55e" points="2640,-1059 2272,-1059 2272,-852 2640,-852 2640,-1059"/>
<text text-anchor="start" x="2322" y="-1010.8" font-family="Arial" font-size="34.00" fill="#111827">Provider adapters</text>
<text text-anchor="start" x="2301" y="-988.8" font-family="Arial" font-size="19.00" fill="#111827">[Component: src/ai_usage/providers]</text>
<text text-anchor="start" x="2317.5" y="-951.8" font-family="Arial" font-size="24.00" fill="#111827">Provider&#45;specific modules</text>
<text text-anchor="start" x="2302.5" y="-927.8" font-family="Arial" font-size="24.00" fill="#111827">convert raw HTTP, local CLI,</text>
<text text-anchor="start" x="2306.5" y="-903.8" font-family="Arial" font-size="24.00" fill="#111827">and local file responses into</text>
<text text-anchor="start" x="2319" y="-879.8" font-family="Arial" font-size="24.00" fill="#111827">normalized ProviderData.</text>
</g>
<!-- 7&#45;&gt;8 -->
<g id="37" class="edge">
<title>7&#45;&gt;8</title>
<path fill="none" stroke="#475569" stroke-dasharray="5,2" d="M1784.1,-1094.97C1830.75,-1063.1 1870.48,-1036.09 1872,-1035.5 1996.37,-987.62 2145.37,-967.77 2261.61,-959.81"/>
<polygon fill="#475569" stroke="#475569" points="2261.94,-963.29 2271.69,-959.14 2261.48,-956.31 2261.94,-963.29"/>
<polygon fill="white" stroke="transparent" points="1895.5,-1035.5 1895.5,-1086.5 2141.5,-1086.5 2141.5,-1035.5 1895.5,-1035.5"/>
<text text-anchor="start" x="1899.5" y="-1063.8" font-family="Arial" font-size="24.00" fill="#475569">5. Call provider.fetch()</text>
<text text-anchor="start" x="1926.5" y="-1043.8" font-family="Arial" font-size="19.00" fill="#475569">[ThreadPoolExecutor]</text>
</g>
<!-- 8&#45;&gt;15 -->
<g id="39" class="edge">
<title>8&#45;&gt;15</title>
<path fill="none" stroke="#475569" stroke-dasharray="5,2" d="M2640.13,-858.26C2773.15,-787.62 2953.21,-692 3090.86,-618.9"/>
<polygon fill="#475569" stroke="#475569" points="3092.68,-621.9 3099.87,-614.12 3089.4,-615.72 3092.68,-621.9"/>
<polygon fill="white" stroke="transparent" points="2777,-798.5 2777,-897.5 3026,-897.5 3026,-798.5 2777,-798.5"/>
<text text-anchor="start" x="2801.5" y="-874.8" font-family="Arial" font-size="24.00" fill="#475569">8. Use CLI&#45;backed</text>
<text text-anchor="start" x="2781.5" y="-850.8" font-family="Arial" font-size="24.00" fill="#475569">quota/auth flows when</text>
<text text-anchor="start" x="2847.5" y="-826.8" font-family="Arial" font-size="24.00" fill="#475569">applicable</text>
<text text-anchor="start" x="2847.5" y="-806.8" font-family="Arial" font-size="19.00" fill="#475569">[subprocess]</text>
</g>
<!-- 8&#45;&gt;16 -->
<g id="41" class="edge">
<title>8&#45;&gt;16</title>
<path fill="none" stroke="#475569" stroke-dasharray="5,2" d="M2561.89,-852C2613.15,-796.38 2672.03,-724.21 2711,-650.5 2738.22,-599.01 2711.18,-570.43 2747,-524.5 2833.7,-413.32 2971.11,-333.97 3086.63,-282.46"/>
<polygon fill="#475569" stroke="#475569" points="3088.24,-285.58 3095.97,-278.34 3085.41,-279.18 3088.24,-285.58"/>
<polygon fill="white" stroke="transparent" points="2751.5,-524.5 2751.5,-623.5 3051.5,-623.5 3051.5,-524.5 2751.5,-524.5"/>
<text text-anchor="start" x="2834.5" y="-600.8" font-family="Arial" font-size="24.00" fill="#475569">7. Fetch raw</text>
<text text-anchor="start" x="2755.5" y="-576.8" font-family="Arial" font-size="24.00" fill="#475569">balance/spend/quota/token</text>
<text text-anchor="start" x="2877.5" y="-552.8" font-family="Arial" font-size="24.00" fill="#475569">data</text>
<text text-anchor="start" x="2865" y="-532.8" font-family="Arial" font-size="19.00" fill="#475569">[HTTPS]</text>
</g>
<!-- 8&#45;&gt;10 -->
<g id="42" class="edge">
<title>8&#45;&gt;10</title>
<path fill="none" stroke="#475569" stroke-dasharray="5,2" d="M2640.13,-955.5C2770.17,-955.5 2945.16,-955.5 3081.54,-955.5"/>
<polygon fill="#475569" stroke="#475569" points="3081.71,-959 3091.71,-955.5 3081.71,-952 3081.71,-959"/>
<polygon fill="white" stroke="transparent" points="2747,-955.5 2747,-989.5 3056,-989.5 3056,-955.5 2747,-955.5"/>
<text text-anchor="start" x="2751.5" y="-966.3" font-family="Arial" font-size="24.00" fill="#475569">9. Normalize raw responses</text>
</g>
<!-- 9 -->
<g id="9" class="node">
<title>9</title>
<polygon fill="#f0fdf4" stroke="#22c55e" points="3486,-1326 3106,-1326 3106,-1143 3486,-1143 3486,-1326"/>
<text text-anchor="start" x="3207" y="-1277.8" font-family="Arial" font-size="34.00" fill="#111827">HTTP client</text>
<text text-anchor="start" x="3135" y="-1255.8" font-family="Arial" font-size="19.00" fill="#111827">[Component: ai_usage.http.HttpClient]</text>
<text text-anchor="start" x="3141.5" y="-1218.8" font-family="Arial" font-size="24.00" fill="#111827">urllib&#45;based JSON client with</text>
<text text-anchor="start" x="3198.5" y="-1194.8" font-family="Arial" font-size="24.00" fill="#111827">timeout, retry, and</text>
<text text-anchor="start" x="3136" y="-1170.8" font-family="Arial" font-size="24.00" fill="#111827">non&#45;retryable status handling.</text>
</g>
<!-- 8&#45;&gt;9 -->
<g id="38" class="edge">
<title>8&#45;&gt;9</title>
<path fill="none" stroke="#475569" stroke-dasharray="5,2" d="M2640.13,-1016.47C2774.76,-1061.29 2957.6,-1122.17 3095.86,-1168.2"/>
<polygon fill="#475569" stroke="#475569" points="3095.15,-1171.65 3105.74,-1171.49 3097.36,-1165.01 3095.15,-1171.65"/>
<polygon fill="white" stroke="transparent" points="2779,-1151.5 2779,-1211.5 3024,-1211.5 3024,-1151.5 2779,-1151.5"/>
<text text-anchor="start" x="2788" y="-1188.3" font-family="Arial" font-size="24.00" fill="#475569">6. Use retrying HTTP</text>
<text text-anchor="start" x="2783.5" y="-1162.3" font-family="Arial" font-size="24.00" fill="#475569">client when applicable</text>
</g>
</g>
</svg>
