<?xml version="1.0" encoding="UTF-8" standalone="no"?>
<!DOCTYPE svg PUBLIC "-//W3C//DTD SVG 1.1//EN"
 "http://www.w3.org/Graphics/SVG/1.1/DTD/svg11.dtd">
<!-- Generated by graphviz version 2.43.0 (0)
 -->
<!-- Title: %3 Pages: 1 -->
<svg width="1928pt" height="1536pt"
 viewBox="0.00 0.00 1928.00 1536.19" xmlns="http://www.w3.org/2000/svg" xmlns:xlink="http://www.w3.org/1999/xlink">
<g id="graph0" class="graph" transform="scale(1 1) rotate(0) translate(4 1532.19)">
<title>%3</title>
<polygon fill="white" stroke="transparent" points="-4,4 -4,-1532.19 1924,-1532.19 1924,4 -4,4"/>
<text text-anchor="start" x="723" y="-35.8" font-family="Arial" font-size="34.00">System Context View: ai&#45;usage</text>
<text text-anchor="start" x="588.5" y="-9.8" font-family="Arial" font-size="24.00">C1: ai&#45;usage in its local workstation and provider&#45;account ecosystem.</text>
<!-- 1 -->
<g id="1" class="node">
<title>1</title>
<polygon fill="#dbeafe" stroke="#2563eb" points="374,-763 0,-763 0,-532 374,-532 374,-763"/>
<text text-anchor="start" x="120" y="-714.8" font-family="Arial" font-size="34.00" fill="#111827">Operator</text>
<text text-anchor="start" x="151.5" y="-692.8" font-family="Arial" font-size="19.00" fill="#111827">[Person]</text>
<text text-anchor="start" x="29" y="-655.8" font-family="Arial" font-size="24.00" fill="#111827">Runs ai&#45;usage from a shell to</text>
<text text-anchor="start" x="46" y="-631.8" font-family="Arial" font-size="24.00" fill="#111827">inspect provider balances,</text>
<text text-anchor="start" x="39.5" y="-607.8" font-family="Arial" font-size="24.00" fill="#111827">spend, subscription quotas,</text>
<text text-anchor="start" x="65.5" y="-583.8" font-family="Arial" font-size="24.00" fill="#111827">token usage, and local</text>
<text text-anchor="start" x="148.5" y="-559.8" font-family="Arial" font-size="24.00" fill="#111827">history.</text>
</g>
<!-- 2 -->
<g id="2" class="node">
<title>2</title>
<polygon fill="#dcfce7" stroke="#16a34a" points="1130,-775 740,-775 740,-520 1130,-520 1130,-775"/>
<text text-anchor="start" x="870" y="-726.8" font-family="Arial" font-size="34.00" fill="#111827">ai&#45;usage</text>
<text text-anchor="start" x="858" y="-704.8" font-family="Arial" font-size="19.00" fill="#111827">[Software System]</text>
<text text-anchor="start" x="808" y="-667.8" font-family="Arial" font-size="24.00" fill="#111827">Python CLI that collects</text>
<text text-anchor="start" x="769" y="-643.8" font-family="Arial" font-size="24.00" fill="#111827">cross&#45;provider balance, spend,</text>
<text text-anchor="start" x="777" y="-619.8" font-family="Arial" font-size="24.00" fill="#111827">quota, and token&#45;usage data,</text>
<text text-anchor="start" x="827" y="-595.8" font-family="Arial" font-size="24.00" fill="#111827">normalizes it, stores</text>
<text text-anchor="start" x="778.5" y="-571.8" font-family="Arial" font-size="24.00" fill="#111827">snapshots, and renders table</text>
<text text-anchor="start" x="848" y="-547.8" font-family="Arial" font-size="24.00" fill="#111827">or JSON output.</text>
</g>
<!-- 1&#45;&gt;2 -->
<g id="18" class="edge">
<title>1&#45;&gt;2</title>
<path fill="none" stroke="#475569" stroke-dasharray="5,2" d="M374.32,-647.5C482.4,-647.5 618.65,-647.5 729.66,-647.5"/>
<polygon fill="#475569" stroke="#475569" points="729.98,-651 739.98,-647.5 729.98,-644 729.98,-651"/>
<polygon fill="white" stroke="transparent" points="410,-647.5 410,-722.5 704,-722.5 704,-647.5 410,-647.5"/>
<text text-anchor="start" x="414" y="-699.8" font-family="Arial" font-size="24.00" fill="#475569">Requests current usage or</text>
<text text-anchor="start" x="480" y="-675.8" font-family="Arial" font-size="24.00" fill="#475569">history reports</text>
<text text-anchor="start" x="531.5" y="-655.8" font-family="Arial" font-size="19.00" fill="#475569">[shell]</text>
</g>
<!-- 14 -->
<g id="14" class="node">
<title>14</title>
<path fill="#fef3c7" stroke="#d97706" d="M1920,-1480.22C1920,-1506.79 1822.96,-1528.38 1703.5,-1528.38 1584.04,-1528.38 1487,-1506.79 1487,-1480.22 1487,-1480.22 1487,-1046.78 1487,-1046.78 1487,-1020.21 1584.04,-998.62 1703.5,-998.62 1822.96,-998.62 1920,-1020.21 1920,-1046.78 1920,-1046.78 1920,-1480.22 1920,-1480.22"/>
<path fill="none" stroke="#d97706" d="M1920,-1480.22C1920,-1453.64 1822.96,-1432.06 1703.5,-1432.06 1584.04,-1432.06 1487,-1453.64 1487,-1480.22"/>
<text text-anchor="start" x="1584.5" y="-1407.8" font-family="Arial" font-size="34.00" fill="#111827">Local credential</text>
<text text-anchor="start" x="1673" y="-1373.8" font-family="Arial" font-size="34.00" fill="#111827">files</text>
<text text-anchor="start" x="1626.5" y="-1351.8" font-family="Arial" font-size="19.00" fill="#111827">[Software System]</text>
<text text-anchor="start" x="1557.5" y="-1314.8" font-family="Arial" font-size="24.00" fill="#111827">Credential and OAuth state</text>
<text text-anchor="start" x="1613" y="-1290.8" font-family="Arial" font-size="24.00" fill="#111827">outside the repo:</text>
<text text-anchor="start" x="1620" y="-1266.8" font-family="Arial" font-size="24.00" fill="#111827">~/.hermes/.env,</text>
<text text-anchor="start" x="1545.5" y="-1242.8" font-family="Arial" font-size="24.00" fill="#111827">~/.config/vastai/vast_api_key,</text>
<text text-anchor="start" x="1545.5" y="-1218.8" font-family="Arial" font-size="24.00" fill="#111827">~/.hermes/auth.json including</text>
<text text-anchor="start" x="1541.5" y="-1194.8" font-family="Arial" font-size="24.00" fill="#111827">credential_pool.openai&#45;codex,</text>
<text text-anchor="start" x="1516" y="-1170.8" font-family="Arial" font-size="24.00" fill="#111827">~/.hermes/auth/google_oauth.json,</text>
<text text-anchor="start" x="1559.5" y="-1146.8" font-family="Arial" font-size="24.00" fill="#111827">~/.claude/.credentials.json,</text>
<text text-anchor="start" x="1601" y="-1122.8" font-family="Arial" font-size="24.00" fill="#111827">~/.claude.json, and</text>
<text text-anchor="start" x="1559.5" y="-1098.8" font-family="Arial" font-size="24.00" fill="#111827">~/.claude/stats&#45;cache.json.</text>
</g>
<!-- 15 -->
<g id="15" class="node">
<title>15</title>
<polygon fill="#f3e8ff" stroke="#9333ea" points="1893.5,-927 1513.5,-927 1513.5,-696 1893.5,-696 1893.5,-927"/>
<text text-anchor="start" x="1543.5" y="-878.8" font-family="Arial" font-size="34.00" fill="#111827">Local developer CLIs</text>
<text text-anchor="start" x="1626.5" y="-856.8" font-family="Arial" font-size="19.00" fill="#111827">[Software System]</text>
<text text-anchor="start" x="1556" y="-819.8" font-family="Arial" font-size="24.00" fill="#111827">Codex CLI app&#45;server/login</text>
<text text-anchor="start" x="1542.5" y="-795.8" font-family="Arial" font-size="24.00" fill="#111827">fallback and Claude Code CLI</text>
<text text-anchor="start" x="1585" y="-771.8" font-family="Arial" font-size="24.00" fill="#111827">refresh paths used for</text>
<text text-anchor="start" x="1544" y="-747.8" font-family="Arial" font-size="24.00" fill="#111827">subscription quota and OAuth</text>
<text text-anchor="start" x="1613" y="-723.8" font-family="Arial" font-size="24.00" fill="#111827">refresh behavior.</text>
</g>
<!-- 16 -->
<g id="16" class="node">
<title>16</title>
<polygon fill="#f3e8ff" stroke="#9333ea" points="1895.5,-624 1511.5,-624 1511.5,-345 1895.5,-345 1895.5,-624"/>
<text text-anchor="start" x="1551.5" y="-575.8" font-family="Arial" font-size="34.00" fill="#111827">Provider HTTP APIs</text>
<text text-anchor="start" x="1626.5" y="-553.8" font-family="Arial" font-size="19.00" fill="#111827">[Software System]</text>
<text text-anchor="start" x="1550.5" y="-516.8" font-family="Arial" font-size="24.00" fill="#111827">External APIs for DeepSeek,</text>
<text text-anchor="start" x="1540.5" y="-492.8" font-family="Arial" font-size="24.00" fill="#111827">xAI, OpenRouter, Vast.ai, Exa,</text>
<text text-anchor="start" x="1566.5" y="-468.8" font-family="Arial" font-size="24.00" fill="#111827">X Console, Codex usage,</text>
<text text-anchor="start" x="1543.5" y="-444.8" font-family="Arial" font-size="24.00" fill="#111827">Anthropic OAuth usage, Nous</text>
<text text-anchor="start" x="1561.5" y="-420.8" font-family="Arial" font-size="24.00" fill="#111827">Portal, Google OAuth, and</text>
<text text-anchor="start" x="1597" y="-396.8" font-family="Arial" font-size="24.00" fill="#111827">Google Cloud Code</text>
<text text-anchor="start" x="1580" y="-372.8" font-family="Arial" font-size="24.00" fill="#111827">entitlement/quota data.</text>
</g>
<!-- 17 -->
<g id="17" class="node">
<title>17</title>
<polygon fill="#f3e8ff" stroke="#9333ea" points="1898,-273 1509,-273 1509,-80 1898,-80 1898,-273"/>
<text text-anchor="start" x="1576.5" y="-224.8" font-family="Arial" font-size="34.00" fill="#111827">Terminal / calling</text>
<text text-anchor="start" x="1643.5" y="-190.8" font-family="Arial" font-size="34.00" fill="#111827">process</text>
<text text-anchor="start" x="1626.5" y="-168.8" font-family="Arial" font-size="19.00" fill="#111827">[Software System]</text>
<text text-anchor="start" x="1538" y="-131.8" font-family="Arial" font-size="24.00" fill="#111827">Receives stdout table or JSON</text>
<text text-anchor="start" x="1588.5" y="-107.8" font-family="Arial" font-size="24.00" fill="#111827">output from ai&#45;usage.</text>
</g>
<!-- 2&#45;&gt;14 -->
<g id="22" class="edge">
<title>2&#45;&gt;14</title>
<path fill="none" stroke="#475569" stroke-dasharray="5,2" d="M1081.33,-775.26C1109.21,-799.19 1138.34,-823.81 1166,-846.5 1267.25,-929.55 1381.56,-1018.98 1478.57,-1093.64"/>
<polygon fill="#475569" stroke="#475569" points="1476.65,-1096.58 1486.72,-1099.91 1480.92,-1091.04 1476.65,-1096.58"/>
<polygon fill="white" stroke="transparent" points="1184,-1064.5 1184,-1139.5 1433,-1139.5 1433,-1064.5 1184,-1064.5"/>
<text text-anchor="start" x="1188.5" y="-1116.8" font-family="Arial" font-size="24.00" fill="#475569">Reads credentials and</text>
<text text-anchor="start" x="1245" y="-1092.8" font-family="Arial" font-size="24.00" fill="#475569">OAuth state</text>
<text text-anchor="start" x="1260.5" y="-1072.8" font-family="Arial" font-size="19.00" fill="#475569">[filesystem]</text>
</g>
<!-- 2&#45;&gt;15 -->
<g id="23" class="edge">
<title>2&#45;&gt;15</title>
<path fill="none" stroke="#475569" stroke-dasharray="5,2" d="M1130.41,-689.1C1244.51,-713.51 1388.38,-744.29 1503.29,-768.88"/>
<polygon fill="#475569" stroke="#475569" points="1502.75,-772.34 1513.26,-771.01 1504.22,-765.5 1502.75,-772.34"/>
<polygon fill="white" stroke="transparent" points="1184.5,-753.5 1184.5,-828.5 1432.5,-828.5 1432.5,-753.5 1184.5,-753.5"/>
<text text-anchor="start" x="1188.5" y="-805.8" font-family="Arial" font-size="24.00" fill="#475569">Delegates CLI&#45;backed</text>
<text text-anchor="start" x="1220" y="-781.8" font-family="Arial" font-size="24.00" fill="#475569">quota/auth flows</text>
<text text-anchor="start" x="1254" y="-761.8" font-family="Arial" font-size="19.00" fill="#475569">[subprocess]</text>
</g>
<!-- 2&#45;&gt;16 -->
<g id="21" class="edge">
<title>2&#45;&gt;16</title>
<path fill="none" stroke="#475569" stroke-dasharray="5,2" d="M1130.41,-606.16C1243.86,-582.03 1386.75,-551.65 1501.34,-527.28"/>
<polygon fill="#475569" stroke="#475569" points="1502.23,-530.67 1511.28,-525.16 1500.77,-523.82 1502.23,-530.67"/>
<polygon fill="white" stroke="transparent" points="1166,-594.5 1166,-669.5 1451,-669.5 1451,-594.5 1166,-594.5"/>
<text text-anchor="start" x="1170.5" y="-646.8" font-family="Arial" font-size="24.00" fill="#475569">Fetches balances, spend,</text>
<text text-anchor="start" x="1182" y="-622.8" font-family="Arial" font-size="24.00" fill="#475569">quota, and token usage</text>
<text text-anchor="start" x="1272.5" y="-602.8" font-family="Arial" font-size="19.00" fill="#475569">[HTTPS]</text>
</g>
<!-- 2&#45;&gt;17 -->
<g id="29" class="edge">
<title>2&#45;&gt;17</title>
<path fill="none" stroke="#475569" stroke-dasharray="5,2" d="M1072.43,-519.97C1102.21,-494.88 1134.33,-469.76 1166,-448.5 1270.78,-378.15 1396.2,-313.61 1499.41,-265.06"/>
<polygon fill="#475569" stroke="#475569" points="1501.13,-268.13 1508.7,-260.71 1498.16,-261.79 1501.13,-268.13"/>
<polygon fill="white" stroke="transparent" points="1194.5,-448.5 1194.5,-523.5 1422.5,-523.5 1422.5,-448.5 1194.5,-448.5"/>
<text text-anchor="start" x="1198.5" y="-500.8" font-family="Arial" font-size="24.00" fill="#475569">Prints table or JSON</text>
<text text-anchor="start" x="1270.5" y="-476.8" font-family="Arial" font-size="24.00" fill="#475569">reports</text>
<text text-anchor="start" x="1277" y="-456.8" font-family="Arial" font-size="19.00" fill="#475569">[stdout]</text>
</g>
</g>
</svg>
