<?xml version="1.0" encoding="UTF-8" standalone="no"?>
<!DOCTYPE svg PUBLIC "-//W3C//DTD SVG 1.1//EN"
 "http://www.w3.org/Graphics/SVG/1.1/DTD/svg11.dtd">
<!-- Generated by graphviz version 2.43.0 (0)
 -->
<!-- Title: %3 Pages: 1 -->
<svg width="4507pt" height="2907pt"
 viewBox="0.00 0.00 4506.50 2906.69" xmlns="http://www.w3.org/2000/svg" xmlns:xlink="http://www.w3.org/1999/xlink">
<g id="graph0" class="graph" transform="scale(1 1) rotate(0) translate(4 2902.69)">
<title>%3</title>
<polygon fill="white" stroke="transparent" points="-4,4 -4,-2902.69 4502.5,-2902.69 4502.5,4 -4,4"/>
<text text-anchor="start" x="1938.75" y="-35.8" font-family="Arial" font-size="34.00">Component View: ai&#45;usage &#45; CLI process</text>
<text text-anchor="start" x="1924.75" y="-9.8" font-family="Arial" font-size="24.00">C3: source&#45;level components inside the Python CLI process.</text>
<g id="clust1" class="cluster">
<title>cluster_2</title>
<polygon fill="none" stroke="#444444" points="708,-881.19 708,-2680.19 3730.5,-2680.19 3730.5,-881.19 708,-881.19"/>
<text text-anchor="start" x="2172.25" y="-909.99" font-family="Arial" font-size="24.00" fill="#444444">ai&#45;usage</text>
<text text-anchor="start" x="2142.25" y="-889.99" font-family="Arial" font-size="19.00" fill="#444444">[Software System]</text>
</g>
<g id="clust2" class="cluster">
<title>cluster_3</title>
<polygon fill="none" stroke="#444444" points="733,-981.19 733,-2298.19 3705.5,-2298.19 3705.5,-981.19 733,-981.19"/>
<text text-anchor="start" x="2154.25" y="-1009.99" font-family="Arial" font-size="24.00" fill="#444444">CLI process</text>
<text text-anchor="start" x="2094.25" y="-989.99" font-family="Arial" font-size="19.00" fill="#444444">[Container: Python 3.10+ CLI]</text>
</g>
<!-- 1 -->
<g id="1" class="node">
<title>1</title>
<polygon fill="#dbeafe" stroke="#2563eb" points="374,-1954.69 0,-1954.69 0,-1723.69 374,-1723.69 374,-1954.69"/>
<text text-anchor="start" x="120" y="-1906.49" font-family="Arial" font-size="34.00" fill="#111827">Operator</text>
<text text-anchor="start" x="151.5" y="-1884.49" font-family="Arial" font-size="19.00" fill="#111827">[Person]</text>
<text text-anchor="start" x="29" y="-1847.49" font-family="Arial" font-size="24.00" fill="#111827">Runs ai&#45;usage from a shell to</text>
<text text-anchor="start" x="46" y="-1823.49" font-family="Arial" font-size="24.00" fill="#111827">inspect provider balances,</text>
<text text-anchor="start" x="39.5" y="-1799.49" font-family="Arial" font-size="24.00" fill="#111827">spend, subscription quotas,</text>
<text text-anchor="start" x="65.5" y="-1775.49" font-family="Arial" font-size="24.00" fill="#111827">token usage, and local</text>
<text text-anchor="start" x="148.5" y="-1751.49" font-family="Arial" font-size="24.00" fill="#111827">history.</text>
</g>
<!-- 4 -->
<g id="4" class="node">
<title>4</title>
<polygon fill="#f0fdf4" stroke="#22c55e" points="1110,-1942.69 758,-1942.69 758,-1735.69 1110,-1735.69 1110,-1942.69"/>
<text text-anchor="start" x="806" y="-1894.49" font-family="Arial" font-size="34.00" fill="#111827">Command router</text>
<text text-anchor="start" x="824" y="-1872.49" font-family="Arial" font-size="19.00" fill="#111827">[Component: ai_usage.cli]</text>
<text text-anchor="start" x="791" y="-1835.49" font-family="Arial" font-size="24.00" fill="#111827">Parses CLI flags, validates</text>
<text text-anchor="start" x="787" y="-1811.49" font-family="Arial" font-size="24.00" fill="#111827">provider selection, chooses</text>
<text text-anchor="start" x="794" y="-1787.49" font-family="Arial" font-size="24.00" fill="#111827">live&#45;fetch vs history mode,</text>
<text text-anchor="start" x="807" y="-1763.49" font-family="Arial" font-size="24.00" fill="#111827">and coordinates output.</text>
</g>
<!-- 1&#45;&gt;4 -->
<g id="20" class="edge">
<title>1&#45;&gt;4</title>
<path fill="none" stroke="#475569" stroke-dasharray="5,2" d="M374.07,-1839.19C488.18,-1839.19 633.73,-1839.19 747.7,-1839.19"/>
<polygon fill="#475569" stroke="#475569" points="747.93,-1842.69 757.93,-1839.19 747.93,-1835.69 747.93,-1842.69"/>
<polygon fill="white" stroke="transparent" points="410,-1839.19 410,-1890.19 700,-1890.19 700,-1839.19 410,-1839.19"/>
<text text-anchor="start" x="414" y="-1867.49" font-family="Arial" font-size="24.00" fill="#475569">Runs ai&#45;usage commands</text>
<text text-anchor="start" x="529.5" y="-1847.49" font-family="Arial" font-size="19.00" fill="#475569">[shell]</text>
</g>
<!-- 14 -->
<g id="14" class="node">
<title>14</title>
<path fill="#fef3c7" stroke="#d97706" d="M3693,-531.4C3693,-556.32 3595.96,-576.56 3476.5,-576.56 3357.04,-576.56 3260,-556.32 3260,-531.4 3260,-531.4 3260,-124.97 3260,-124.97 3260,-100.05 3357.04,-79.81 3476.5,-79.81 3595.96,-79.81 3693,-100.05 3693,-124.97 3693,-124.97 3693,-531.4 3693,-531.4"/>
<path fill="none" stroke="#d97706" d="M3693,-531.4C3693,-506.49 3595.96,-486.24 3476.5,-486.24 3357.04,-486.24 3260,-506.49 3260,-531.4"/>
<text text-anchor="start" x="3357.5" y="-460.49" font-family="Arial" font-size="34.00" fill="#111827">Local credential</text>
<text text-anchor="start" x="3446" y="-426.49" font-family="Arial" font-size="34.00" fill="#111827">files</text>
<text text-anchor="start" x="3399.5" y="-404.49" font-family="Arial" font-size="19.00" fill="#111827">[Software System]</text>
<text text-anchor="start" x="3330.5" y="-367.49" font-family="Arial" font-size="24.00" fill="#111827">Credential and OAuth state</text>
<text text-anchor="start" x="3386" y="-343.49" font-family="Arial" font-size="24.00" fill="#111827">outside the repo:</text>
<text text-anchor="start" x="3393" y="-319.49" font-family="Arial" font-size="24.00" fill="#111827">~/.hermes/.env,</text>
<text text-anchor="start" x="3318.5" y="-295.49" font-family="Arial" font-size="24.00" fill="#111827">~/.config/vastai/vast_api_key,</text>
<text text-anchor="start" x="3366" y="-271.49" font-family="Arial" font-size="24.00" fill="#111827">~/.hermes/auth.json,</text>
<text text-anchor="start" x="3289" y="-247.49" font-family="Arial" font-size="24.00" fill="#111827">~/.hermes/auth/google_oauth.json,</text>
<text text-anchor="start" x="3332.5" y="-223.49" font-family="Arial" font-size="24.00" fill="#111827">~/.claude/.credentials.json,</text>
<text text-anchor="start" x="3374" y="-199.49" font-family="Arial" font-size="24.00" fill="#111827">~/.claude.json, and</text>
<text text-anchor="start" x="3332.5" y="-175.49" font-family="Arial" font-size="24.00" fill="#111827">~/.claude/stats&#45;cache.json.</text>
</g>
<!-- 15 -->
<g id="15" class="node">
<title>15</title>
<polygon fill="#f3e8ff" stroke="#9333ea" points="3677,-855.69 3276,-855.69 3276,-648.69 3677,-648.69 3677,-855.69"/>
<text text-anchor="start" x="3316.5" y="-807.49" font-family="Arial" font-size="34.00" fill="#111827">Local developer CLIs</text>
<text text-anchor="start" x="3399.5" y="-785.49" font-family="Arial" font-size="19.00" fill="#111827">[Software System]</text>
<text text-anchor="start" x="3305" y="-748.49" font-family="Arial" font-size="24.00" fill="#111827">Codex CLI app&#45;server/login and</text>
<text text-anchor="start" x="3309.5" y="-724.49" font-family="Arial" font-size="24.00" fill="#111827">Claude Code CLI refresh paths</text>
<text text-anchor="start" x="3330.5" y="-700.49" font-family="Arial" font-size="24.00" fill="#111827">used for subscription quota</text>
<text text-anchor="start" x="3324.5" y="-676.49" font-family="Arial" font-size="24.00" fill="#111827">and OAuth refresh behavior.</text>
</g>
<!-- 16 -->
<g id="16" class="node">
<title>16</title>
<polygon fill="#f3e8ff" stroke="#9333ea" points="4498.5,-1866.69 4098.5,-1866.69 4098.5,-1611.69 4498.5,-1611.69 4498.5,-1866.69"/>
<text text-anchor="start" x="4146.5" y="-1818.49" font-family="Arial" font-size="34.00" fill="#111827">Provider HTTP APIs</text>
<text text-anchor="start" x="4221.5" y="-1796.49" font-family="Arial" font-size="19.00" fill="#111827">[Software System]</text>
<text text-anchor="start" x="4145.5" y="-1759.49" font-family="Arial" font-size="24.00" fill="#111827">External APIs for DeepSeek,</text>
<text text-anchor="start" x="4135.5" y="-1735.49" font-family="Arial" font-size="24.00" fill="#111827">xAI, OpenRouter, Vast.ai, Exa,</text>
<text text-anchor="start" x="4148" y="-1711.49" font-family="Arial" font-size="24.00" fill="#111827">X Console, Anthropic OAuth</text>
<text text-anchor="start" x="4149.5" y="-1687.49" font-family="Arial" font-size="24.00" fill="#111827">usage, Nous Portal, Google</text>
<text text-anchor="start" x="4127.5" y="-1663.49" font-family="Arial" font-size="24.00" fill="#111827">OAuth, and Google Cloud Code</text>
<text text-anchor="start" x="4237.5" y="-1639.49" font-family="Arial" font-size="24.00" fill="#111827">quota data.</text>
</g>
<!-- 17 -->
<g id="17" class="node">
<title>17</title>
<polygon fill="#f3e8ff" stroke="#9333ea" points="3224,-2898.69 2835,-2898.69 2835,-2705.69 3224,-2705.69 3224,-2898.69"/>
<text text-anchor="start" x="2902.5" y="-2850.49" font-family="Arial" font-size="34.00" fill="#111827">Terminal / calling</text>
<text text-anchor="start" x="2969.5" y="-2816.49" font-family="Arial" font-size="34.00" fill="#111827">process</text>
<text text-anchor="start" x="2952.5" y="-2794.49" font-family="Arial" font-size="19.00" fill="#111827">[Software System]</text>
<text text-anchor="start" x="2864" y="-2757.49" font-family="Arial" font-size="24.00" fill="#111827">Receives stdout table or JSON</text>
<text text-anchor="start" x="2914.5" y="-2733.49" font-family="Arial" font-size="24.00" fill="#111827">output from ai&#45;usage.</text>
</g>
<!-- 10 -->
<g id="10" class="node">
<title>10</title>
<polygon fill="#f0fdf4" stroke="#22c55e" points="3680.5,-1864.69 3272.5,-1864.69 3272.5,-1633.69 3680.5,-1633.69 3680.5,-1864.69"/>
<text text-anchor="start" x="3301.5" y="-1816.49" font-family="Arial" font-size="34.00" fill="#111827">Normalized data model</text>
<text text-anchor="start" x="3345" y="-1794.49" font-family="Arial" font-size="19.00" fill="#111827">[Component: ai_usage.models]</text>
<text text-anchor="start" x="3321.5" y="-1757.49" font-family="Arial" font-size="24.00" fill="#111827">ProviderData and TokenData</text>
<text text-anchor="start" x="3339.5" y="-1733.49" font-family="Arial" font-size="24.00" fill="#111827">dataclasses for balances,</text>
<text text-anchor="start" x="3307" y="-1709.49" font-family="Arial" font-size="24.00" fill="#111827">spend, tokens, per&#45;model rows,</text>
<text text-anchor="start" x="3338.5" y="-1685.49" font-family="Arial" font-size="24.00" fill="#111827">provider extras, and meta</text>
<text text-anchor="start" x="3441" y="-1661.49" font-family="Arial" font-size="24.00" fill="#111827">errors.</text>
</g>
<!-- 11 -->
<g id="11" class="node">
<title>11</title>
<polygon fill="#f0fdf4" stroke="#22c55e" points="1865,-2272.69 1473,-2272.69 1473,-2089.69 1865,-2089.69 1865,-2272.69"/>
<text text-anchor="start" x="1517.5" y="-2224.49" font-family="Arial" font-size="34.00" fill="#111827">Snapshot repository</text>
<text text-anchor="start" x="1502" y="-2202.49" font-family="Arial" font-size="19.00" fill="#111827">[Component: ai_usage.db.SnapshotDB]</text>
<text text-anchor="start" x="1518" y="-2165.49" font-family="Arial" font-size="24.00" fill="#111827">Creates, writes, and queries</text>
<text text-anchor="start" x="1544.5" y="-2141.49" font-family="Arial" font-size="24.00" fill="#111827">the local SQLite history</text>
<text text-anchor="start" x="1615.5" y="-2117.49" font-family="Arial" font-size="24.00" fill="#111827">database.</text>
</g>
<!-- 13 -->
<g id="13" class="node">
<title>13</title>
<path fill="#fef3c7" stroke="#d97706" d="M2799,-2624.9C2799,-2641.54 2684.7,-2655.06 2544,-2655.06 2403.3,-2655.06 2289,-2641.54 2289,-2624.9 2289,-2624.9 2289,-2353.47 2289,-2353.47 2289,-2336.83 2403.3,-2323.31 2544,-2323.31 2684.7,-2323.31 2799,-2336.83 2799,-2353.47 2799,-2353.47 2799,-2624.9 2799,-2624.9"/>
<path fill="none" stroke="#d97706" d="M2799,-2624.9C2799,-2608.26 2684.7,-2594.74 2544,-2594.74 2403.3,-2594.74 2289,-2608.26 2289,-2624.9"/>
<text text-anchor="start" x="2417" y="-2561.49" font-family="Arial" font-size="34.00" fill="#111827">Snapshot history</text>
<text text-anchor="start" x="2474" y="-2527.49" font-family="Arial" font-size="34.00" fill="#111827">database</text>
<text text-anchor="start" x="2318" y="-2505.49" font-family="Arial" font-size="19.00" fill="#111827">[Container: SQLite WAL file at ~/.hermes/ai&#45;usage.db]</text>
<text text-anchor="start" x="2399" y="-2468.49" font-family="Arial" font-size="24.00" fill="#111827">Stores normalized provider</text>
<text text-anchor="start" x="2423.5" y="-2444.49" font-family="Arial" font-size="24.00" fill="#111827">snapshots for &#45;&#45;history</text>
<text text-anchor="start" x="2378.5" y="-2420.49" font-family="Arial" font-size="24.00" fill="#111827">queries; raw provider payloads</text>
<text text-anchor="start" x="2465.5" y="-2396.49" font-family="Arial" font-size="24.00" fill="#111827">are not stored.</text>
</g>
<!-- 11&#45;&gt;13 -->
<g id="44" class="edge">
<title>11&#45;&gt;13</title>
<path fill="none" stroke="#475569" stroke-dasharray="5,2" d="M1865.1,-2250.02C1987.19,-2293.09 2146.02,-2349.13 2279.26,-2396.14"/>
<polygon fill="#475569" stroke="#475569" points="2278.21,-2399.48 2288.8,-2399.51 2280.54,-2392.88 2278.21,-2399.48"/>
<polygon fill="white" stroke="transparent" points="1959,-2380.19 1959,-2455.19 2203,-2455.19 2203,-2380.19 1959,-2380.19"/>
<text text-anchor="start" x="1993" y="-2432.49" font-family="Arial" font-size="24.00" fill="#475569">Insert and query</text>
<text text-anchor="start" x="1963" y="-2408.49" font-family="Arial" font-size="24.00" fill="#475569">normalized snapshots</text>
<text text-anchor="start" x="2047.5" y="-2388.49" font-family="Arial" font-size="19.00" fill="#475569">[sqlite3]</text>
</g>
<!-- 12 -->
<g id="12" class="node">
<title>12</title>
<polygon fill="#f0fdf4" stroke="#22c55e" points="2253,-2107.69 1909,-2107.69 1909,-1924.69 2253,-1924.69 2253,-2107.69"/>
<text text-anchor="start" x="2010" y="-2059.49" font-family="Arial" font-size="34.00" fill="#111827">Renderer</text>
<text text-anchor="start" x="1953" y="-2037.49" font-family="Arial" font-size="19.00" fill="#111827">[Component: ai_usage.render]</text>
<text text-anchor="start" x="1938" y="-2000.49" font-family="Arial" font-size="24.00" fill="#111827">Formats normalized live or</text>
<text text-anchor="start" x="1959.5" y="-1976.49" font-family="Arial" font-size="24.00" fill="#111827">history data as aligned</text>
<text text-anchor="start" x="1949" y="-1952.49" font-family="Arial" font-size="24.00" fill="#111827">terminal tables or JSON.</text>
</g>
<!-- 12&#45;&gt;17 -->
<g id="46" class="edge">
<title>12&#45;&gt;17</title>
<path fill="none" stroke="#475569" stroke-dasharray="5,2" d="M2250.2,-2107.92C2251.16,-2109.32 2252.1,-2110.75 2253,-2112.19 2322.34,-2222.71 2200.43,-2602.39 2289,-2698.19 2422,-2842.04 2655.66,-2852.3 2824.8,-2836.56"/>
<polygon fill="#475569" stroke="#475569" points="2825.21,-2840.04 2834.82,-2835.59 2824.53,-2833.07 2825.21,-2840.04"/>
<polygon fill="white" stroke="transparent" points="2426.5,-2841.19 2426.5,-2892.19 2661.5,-2892.19 2661.5,-2841.19 2426.5,-2841.19"/>
<text text-anchor="start" x="2431" y="-2869.49" font-family="Arial" font-size="24.00" fill="#475569">Writes table or JSON</text>
<text text-anchor="start" x="2513" y="-2849.49" font-family="Arial" font-size="19.00" fill="#475569">[stdout]</text>
</g>
<!-- 12&#45;&gt;10 -->
<g id="45" class="edge">
<title>12&#45;&gt;10</title>
<path fill="none" stroke="#475569" stroke-dasharray="5,2" d="M2196.14,-1924.66C2224.98,-1905.69 2256.91,-1887.92 2289,-1876.19 2377.96,-1843.65 2945.38,-1792.78 3262.22,-1766.38"/>
<polygon fill="#475569" stroke="#475569" points="3262.78,-1769.85 3272.46,-1765.53 3262.2,-1762.87 3262.78,-1769.85"/>
<polygon fill="white" stroke="transparent" points="2393.5,-1876.19 2393.5,-1910.19 2694.5,-1910.19 2694.5,-1876.19 2393.5,-1876.19"/>
<text text-anchor="start" x="2398" y="-1886.99" font-family="Arial" font-size="24.00" fill="#475569">Formats normalized results</text>
</g>
<!-- 4&#45;&gt;11 -->
<g id="33" class="edge">
<title>4&#45;&gt;11</title>
<path fill="none" stroke="#475569" stroke-dasharray="5,2" d="M996.53,-1942.94C1033.25,-1995.67 1084.68,-2055.89 1146,-2091.19 1241.46,-2146.12 1361.84,-2169.36 1462.94,-2178.53"/>
<polygon fill="#475569" stroke="#475569" points="1462.71,-2182.02 1472.98,-2179.4 1463.32,-2175.05 1462.71,-2182.02"/>
<polygon fill="white" stroke="transparent" points="1168,-2173.19 1168,-2207.19 1407,-2207.19 1407,-2173.19 1168,-2173.19"/>
<text text-anchor="start" x="1172.5" y="-2183.99" font-family="Arial" font-size="24.00" fill="#475569">Queries history mode</text>
</g>
<!-- 4&#45;&gt;12 -->
<g id="34" class="edge">
<title>4&#45;&gt;12</title>
<path fill="none" stroke="#475569" stroke-dasharray="5,2" d="M1110.09,-1894.79C1212.48,-1924.95 1344.84,-1959.9 1465,-1979.19 1609.58,-2002.4 1775.41,-2011.36 1898.4,-2014.68"/>
<polygon fill="#475569" stroke="#475569" points="1898.59,-2018.19 1908.68,-2014.95 1898.77,-2011.19 1898.59,-2018.19"/>
<polygon fill="white" stroke="transparent" points="1152,-1971.19 1152,-2031.19 1423,-2031.19 1423,-1971.19 1152,-1971.19"/>
<text text-anchor="start" x="1156.5" y="-2007.99" font-family="Arial" font-size="24.00" fill="#475569">Renders selected output</text>
<text text-anchor="start" x="1253" y="-1981.99" font-family="Arial" font-size="24.00" fill="#475569">format</text>
</g>
<!-- 5 -->
<g id="5" class="node">
<title>5</title>
<polygon fill="#f0fdf4" stroke="#22c55e" points="1847.5,-1336.69 1490.5,-1336.69 1490.5,-1081.69 1847.5,-1081.69 1847.5,-1336.69"/>
<text text-anchor="start" x="1539.5" y="-1288.49" font-family="Arial" font-size="34.00" fill="#111827">Credential loader</text>
<text text-anchor="start" x="1542.5" y="-1266.49" font-family="Arial" font-size="19.00" fill="#111827">[Component: ai_usage.config]</text>
<text text-anchor="start" x="1582.5" y="-1229.49" font-family="Arial" font-size="24.00" fill="#111827">Loads API keys,</text>
<text text-anchor="start" x="1533" y="-1205.49" font-family="Arial" font-size="24.00" fill="#111827">browser&#45;session cookies,</text>
<text text-anchor="start" x="1519.5" y="-1181.49" font-family="Arial" font-size="24.00" fill="#111827">timeout settings, and OAuth</text>
<text text-anchor="start" x="1526" y="-1157.49" font-family="Arial" font-size="24.00" fill="#111827">state references from local</text>
<text text-anchor="start" x="1553.5" y="-1133.49" font-family="Arial" font-size="24.00" fill="#111827">files and environment</text>
<text text-anchor="start" x="1617" y="-1109.49" font-family="Arial" font-size="24.00" fill="#111827">variables.</text>
</g>
<!-- 4&#45;&gt;5 -->
<g id="30" class="edge">
<title>4&#45;&gt;5</title>
<path fill="none" stroke="#475569" stroke-dasharray="5,2" d="M1002.64,-1735.45C1040.96,-1681.01 1091.97,-1615.21 1146,-1564.19 1247.34,-1468.49 1376.81,-1380.27 1481.46,-1315.7"/>
<polygon fill="#475569" stroke="#475569" points="1483.54,-1318.53 1490.23,-1310.32 1479.87,-1312.57 1483.54,-1318.53"/>
<polygon fill="white" stroke="transparent" points="1149.5,-1564.19 1149.5,-1624.19 1425.5,-1624.19 1425.5,-1564.19 1149.5,-1564.19"/>
<text text-anchor="start" x="1153.5" y="-1600.99" font-family="Arial" font-size="24.00" fill="#475569">Loads credentials for live</text>
<text text-anchor="start" x="1227" y="-1574.99" font-family="Arial" font-size="24.00" fill="#475569">fetch mode</text>
</g>
<!-- 6 -->
<g id="6" class="node">
<title>6</title>
<polygon fill="#f0fdf4" stroke="#22c55e" points="1873,-1663.69 1465,-1663.69 1465,-1408.69 1873,-1408.69 1873,-1663.69"/>
<text text-anchor="start" x="1545" y="-1615.49" font-family="Arial" font-size="34.00" fill="#111827">Provider registry</text>
<text text-anchor="start" x="1529" y="-1593.49" font-family="Arial" font-size="19.00" fill="#111827">[Component: ai_usage.providers]</text>
<text text-anchor="start" x="1535.5" y="-1556.49" font-family="Arial" font-size="24.00" fill="#111827">Registers and constructs</text>
<text text-anchor="start" x="1543" y="-1532.49" font-family="Arial" font-size="24.00" fill="#111827">Provider subclasses for</text>
<text text-anchor="start" x="1513" y="-1508.49" font-family="Arial" font-size="24.00" fill="#111827">DeepSeek, xAI, OpenRouter,</text>
<text text-anchor="start" x="1524" y="-1484.49" font-family="Arial" font-size="24.00" fill="#111827">Vast.ai, Exa, X API, Codex,</text>
<text text-anchor="start" x="1494" y="-1460.49" font-family="Arial" font-size="24.00" fill="#111827">Claude Code, Nous, and Google</text>
<text text-anchor="start" x="1616.5" y="-1436.49" font-family="Arial" font-size="24.00" fill="#111827">AI Studio.</text>
</g>
<!-- 4&#45;&gt;6 -->
<g id="31" class="edge">
<title>4&#45;&gt;6</title>
<path fill="none" stroke="#475569" stroke-dasharray="5,2" d="M1110.11,-1766.8C1213.7,-1723.98 1345.66,-1669.43 1455.22,-1624.14"/>
<polygon fill="#475569" stroke="#475569" points="1456.84,-1627.26 1464.75,-1620.21 1454.17,-1620.79 1456.84,-1627.26"/>
<polygon fill="white" stroke="transparent" points="1146,-1749.19 1146,-1809.19 1429,-1809.19 1429,-1749.19 1146,-1749.19"/>
<text text-anchor="start" x="1150.5" y="-1785.99" font-family="Arial" font-size="24.00" fill="#475569">Builds requested provider</text>
<text text-anchor="start" x="1271.5" y="-1759.99" font-family="Arial" font-size="24.00" fill="#475569">set</text>
</g>
<!-- 7 -->
<g id="7" class="node">
<title>7</title>
<polygon fill="#f0fdf4" stroke="#22c55e" points="1864.5,-1942.69 1473.5,-1942.69 1473.5,-1735.69 1864.5,-1735.69 1864.5,-1942.69"/>
<text text-anchor="start" x="1530.5" y="-1894.49" font-family="Arial" font-size="34.00" fill="#111827">Fetch orchestrator</text>
<text text-anchor="start" x="1539.5" y="-1872.49" font-family="Arial" font-size="19.00" fill="#111827">[Component: ai_usage.fetcher]</text>
<text text-anchor="start" x="1502.5" y="-1835.49" font-family="Arial" font-size="24.00" fill="#111827">Runs selected provider fetches</text>
<text text-anchor="start" x="1521.5" y="-1811.49" font-family="Arial" font-size="24.00" fill="#111827">sequentially or concurrently</text>
<text text-anchor="start" x="1544" y="-1787.49" font-family="Arial" font-size="24.00" fill="#111827">with a total timeout and</text>
<text text-anchor="start" x="1523" y="-1763.49" font-family="Arial" font-size="24.00" fill="#111827">per&#45;provider error isolation.</text>
</g>
<!-- 4&#45;&gt;7 -->
<g id="32" class="edge">
<title>4&#45;&gt;7</title>
<path fill="none" stroke="#475569" stroke-dasharray="5,2" d="M1110.11,-1839.19C1216.16,-1839.19 1351.94,-1839.19 1462.99,-1839.19"/>
<polygon fill="#475569" stroke="#475569" points="1463.32,-1842.69 1473.32,-1839.19 1463.32,-1835.69 1463.32,-1842.69"/>
<polygon fill="white" stroke="transparent" points="1170.5,-1839.19 1170.5,-1873.19 1404.5,-1873.19 1404.5,-1839.19 1170.5,-1839.19"/>
<text text-anchor="start" x="1174.5" y="-1849.99" font-family="Arial" font-size="24.00" fill="#475569">Runs live fetch mode</text>
</g>
<!-- 5&#45;&gt;14 -->
<g id="35" class="edge">
<title>5&#45;&gt;14</title>
<path fill="none" stroke="#475569" stroke-dasharray="5,2" d="M1839.04,-1081.65C2058,-922.06 2456.61,-650.32 2835,-490.19 2967.8,-433.99 3124.64,-393.92 3249.87,-367.69"/>
<polygon fill="#475569" stroke="#475569" points="3250.9,-371.05 3259.98,-365.59 3249.47,-364.2 3250.9,-371.05"/>
<polygon fill="white" stroke="transparent" points="2402,-772.19 2402,-847.19 2686,-847.19 2686,-772.19 2402,-772.19"/>
<text text-anchor="start" x="2406" y="-824.49" font-family="Arial" font-size="24.00" fill="#475569">Reads .env, key files, and</text>
<text text-anchor="start" x="2474.5" y="-800.49" font-family="Arial" font-size="24.00" fill="#475569">OAuth JSON</text>
<text text-anchor="start" x="2495.5" y="-780.49" font-family="Arial" font-size="19.00" fill="#475569">[filesystem]</text>
</g>
<!-- 8 -->
<g id="8" class="node">
<title>8</title>
<polygon fill="#f0fdf4" stroke="#22c55e" points="2728,-1639.69 2360,-1639.69 2360,-1432.69 2728,-1432.69 2728,-1639.69"/>
<text text-anchor="start" x="2410" y="-1591.49" font-family="Arial" font-size="34.00" fill="#111827">Provider adapters</text>
<text text-anchor="start" x="2389" y="-1569.49" font-family="Arial" font-size="19.00" fill="#111827">[Component: src/ai_usage/providers]</text>
<text text-anchor="start" x="2405.5" y="-1532.49" font-family="Arial" font-size="24.00" fill="#111827">Provider&#45;specific modules</text>
<text text-anchor="start" x="2390.5" y="-1508.49" font-family="Arial" font-size="24.00" fill="#111827">convert raw HTTP, local CLI,</text>
<text text-anchor="start" x="2394.5" y="-1484.49" font-family="Arial" font-size="24.00" fill="#111827">and local file responses into</text>
<text text-anchor="start" x="2407" y="-1460.49" font-family="Arial" font-size="24.00" fill="#111827">normalized ProviderData.</text>
</g>
<!-- 6&#45;&gt;8 -->
<g id="36" class="edge">
<title>6&#45;&gt;8</title>
<path fill="none" stroke="#475569" stroke-dasharray="5,2" d="M1873.03,-1536.19C2016.68,-1536.19 2208.14,-1536.19 2349.59,-1536.19"/>
<polygon fill="#475569" stroke="#475569" points="2349.69,-1539.69 2359.69,-1536.19 2349.69,-1532.69 2349.69,-1539.69"/>
<polygon fill="white" stroke="transparent" points="1961.5,-1536.19 1961.5,-1596.19 2200.5,-1596.19 2200.5,-1536.19 1961.5,-1536.19"/>
<text text-anchor="start" x="1966" y="-1572.99" font-family="Arial" font-size="24.00" fill="#475569">Constructs registered</text>
<text text-anchor="start" x="1973" y="-1546.99" font-family="Arial" font-size="24.00" fill="#475569">Provider subclasses</text>
</g>
<!-- 7&#45;&gt;8 -->
<g id="37" class="edge">
<title>7&#45;&gt;8</title>
<path fill="none" stroke="#475569" stroke-dasharray="5,2" d="M1864.56,-1771.66C2009.22,-1721.45 2205.69,-1653.26 2349.98,-1603.18"/>
<polygon fill="#475569" stroke="#475569" points="2351.54,-1606.34 2359.84,-1599.76 2349.24,-1599.73 2351.54,-1606.34"/>
<polygon fill="white" stroke="transparent" points="1943,-1749.19 1943,-1848.19 2219,-1848.19 2219,-1749.19 1943,-1749.19"/>
<text text-anchor="start" x="2001" y="-1825.49" font-family="Arial" font-size="24.00" fill="#475569">Invokes fetch()</text>
<text text-anchor="start" x="1947" y="-1801.49" font-family="Arial" font-size="24.00" fill="#475569">concurrently with timeout</text>
<text text-anchor="start" x="2036.5" y="-1777.49" font-family="Arial" font-size="24.00" fill="#475569">isolation</text>
<text text-anchor="start" x="1989" y="-1757.49" font-family="Arial" font-size="19.00" fill="#475569">[ThreadPoolExecutor]</text>
</g>
<!-- 8&#45;&gt;14 -->
<g id="40" class="edge">
<title>8&#45;&gt;14</title>
<path fill="none" stroke="#475569" stroke-dasharray="5,2" d="M2576.17,-1432.48C2619.73,-1298.5 2707.99,-1062.11 2835,-890.19 2951.03,-733.13 3117.68,-588.62 3251.91,-485.48"/>
<polygon fill="#475569" stroke="#475569" points="3254.09,-488.23 3259.9,-479.37 3249.83,-482.67 3254.09,-488.23"/>
<polygon fill="white" stroke="transparent" points="2905,-890.19 2905,-965.19 3154,-965.19 3154,-890.19 2905,-890.19"/>
<text text-anchor="start" x="2909.5" y="-942.49" font-family="Arial" font-size="24.00" fill="#475569">Read provider&#45;specific</text>
<text text-anchor="start" x="2953" y="-918.49" font-family="Arial" font-size="24.00" fill="#475569">local auth files</text>
<text text-anchor="start" x="2981.5" y="-898.49" font-family="Arial" font-size="19.00" fill="#475569">[filesystem]</text>
</g>
<!-- 8&#45;&gt;15 -->
<g id="39" class="edge">
<title>8&#45;&gt;15</title>
<path fill="none" stroke="#475569" stroke-dasharray="5,2" d="M2668.08,-1432.48C2843.75,-1284.48 3164.94,-1013.85 3344.74,-862.36"/>
<polygon fill="#475569" stroke="#475569" points="3347,-865.03 3352.4,-855.91 3342.49,-859.68 3347,-865.03"/>
<polygon fill="white" stroke="transparent" points="2884,-1282.19 2884,-1357.19 3175,-1357.19 3175,-1282.19 2884,-1282.19"/>
<text text-anchor="start" x="2888.5" y="-1334.49" font-family="Arial" font-size="24.00" fill="#475569">Spawn app&#45;server/login or</text>
<text text-anchor="start" x="2929" y="-1310.49" font-family="Arial" font-size="24.00" fill="#475569">refresh commands</text>
<text text-anchor="start" x="2975.5" y="-1290.49" font-family="Arial" font-size="19.00" fill="#475569">[subprocess]</text>
</g>
<!-- 8&#45;&gt;16 -->
<g id="41" class="edge">
<title>8&#45;&gt;16</title>
<path fill="none" stroke="#475569" stroke-dasharray="5,2" d="M2657.28,-1639.75C2708.54,-1682.85 2771.82,-1730.56 2835,-1764.19 3010.2,-1857.42 3063.95,-1870.37 3260,-1901.19 3466.57,-1933.66 3523.41,-1930.19 3730.5,-1901.19 3851.43,-1884.25 3982.76,-1847.93 4088.54,-1813.96"/>
<polygon fill="#475569" stroke="#475569" points="4089.94,-1817.19 4098.38,-1810.79 4087.78,-1810.53 4089.94,-1817.19"/>
<polygon fill="white" stroke="transparent" points="3350.5,-1924.19 3350.5,-1999.19 3602.5,-1999.19 3602.5,-1924.19 3350.5,-1924.19"/>
<text text-anchor="start" x="3354.5" y="-1976.49" font-family="Arial" font-size="24.00" fill="#475569">Fetch provider&#45;specific</text>
<text text-anchor="start" x="3452.5" y="-1952.49" font-family="Arial" font-size="24.00" fill="#475569">data</text>
<text text-anchor="start" x="3440" y="-1932.49" font-family="Arial" font-size="19.00" fill="#475569">[HTTPS]</text>
</g>
<!-- 8&#45;&gt;10 -->
<g id="42" class="edge">
<title>8&#45;&gt;10</title>
<path fill="none" stroke="#475569" stroke-dasharray="5,2" d="M2728,-1578.08C2881.48,-1613.21 3100.83,-1663.42 3262.24,-1700.37"/>
<polygon fill="#475569" stroke="#475569" points="3261.77,-1703.85 3272.3,-1702.67 3263.33,-1697.03 3261.77,-1703.85"/>
<polygon fill="white" stroke="transparent" points="2891.5,-1686.19 2891.5,-1746.19 3167.5,-1746.19 3167.5,-1686.19 2891.5,-1686.19"/>
<text text-anchor="start" x="2895.5" y="-1722.99" font-family="Arial" font-size="24.00" fill="#475569">Return ProviderData and</text>
<text text-anchor="start" x="2971.5" y="-1696.99" font-family="Arial" font-size="24.00" fill="#475569">TokenData</text>
</g>
<!-- 9 -->
<g id="9" class="node">
<title>9</title>
<polygon fill="#f0fdf4" stroke="#22c55e" points="3666.5,-1561.69 3286.5,-1561.69 3286.5,-1378.69 3666.5,-1378.69 3666.5,-1561.69"/>
<text text-anchor="start" x="3387.5" y="-1513.49" font-family="Arial" font-size="34.00" fill="#111827">HTTP client</text>
<text text-anchor="start" x="3315.5" y="-1491.49" font-family="Arial" font-size="19.00" fill="#111827">[Component: ai_usage.http.HttpClient]</text>
<text text-anchor="start" x="3322" y="-1454.49" font-family="Arial" font-size="24.00" fill="#111827">urllib&#45;based JSON client with</text>
<text text-anchor="start" x="3379" y="-1430.49" font-family="Arial" font-size="24.00" fill="#111827">timeout, retry, and</text>
<text text-anchor="start" x="3316.5" y="-1406.49" font-family="Arial" font-size="24.00" fill="#111827">non&#45;retryable status handling.</text>
</g>
<!-- 8&#45;&gt;9 -->
<g id="38" class="edge">
<title>8&#45;&gt;9</title>
<path fill="none" stroke="#475569" stroke-dasharray="5,2" d="M2728,-1523.21C2885.89,-1512.01 3113.49,-1495.87 3276,-1484.34"/>
<polygon fill="#475569" stroke="#475569" points="3276.39,-1487.82 3286.12,-1483.62 3275.9,-1480.84 3276.39,-1487.82"/>
<polygon fill="white" stroke="transparent" points="2879,-1514.19 2879,-1574.19 3180,-1574.19 3180,-1514.19 2879,-1514.19"/>
<text text-anchor="start" x="2883.5" y="-1550.99" font-family="Arial" font-size="24.00" fill="#475569">Use shared JSON client for</text>
<text text-anchor="start" x="2945" y="-1524.99" font-family="Arial" font-size="24.00" fill="#475569">HTTP providers</text>
</g>
<!-- 9&#45;&gt;16 -->
<g id="43" class="edge">
<title>9&#45;&gt;16</title>
<path fill="none" stroke="#475569" stroke-dasharray="5,2" d="M3666.65,-1532.24C3792.74,-1573.6 3958.55,-1627.99 4088.53,-1670.63"/>
<polygon fill="#475569" stroke="#475569" points="4087.63,-1674.02 4098.22,-1673.81 4089.81,-1667.37 4087.63,-1674.02"/>
<polygon fill="white" stroke="transparent" points="3738.5,-1659.19 3738.5,-1734.19 4062.5,-1734.19 4062.5,-1659.19 3738.5,-1659.19"/>
<text text-anchor="start" x="3742.5" y="-1711.49" font-family="Arial" font-size="24.00" fill="#475569">GET/POST JSON with retries</text>
<text text-anchor="start" x="3831" y="-1687.49" font-family="Arial" font-size="24.00" fill="#475569">and timeouts</text>
<text text-anchor="start" x="3864" y="-1667.49" font-family="Arial" font-size="19.00" fill="#475569">[HTTPS]</text>
</g>
</g>
</svg>
