<?xml version="1.0" encoding="UTF-8" standalone="no"?>
<!DOCTYPE svg PUBLIC "-//W3C//DTD SVG 1.1//EN"
 "http://www.w3.org/Graphics/SVG/1.1/DTD/svg11.dtd">
<!-- Generated by graphviz version 2.43.0 (0)
 -->
<!-- Title: %3 Pages: 1 -->
<svg width="4509pt" height="2883pt"
 viewBox="0.00 0.00 4508.50 2882.69" xmlns="http://www.w3.org/2000/svg" xmlns:xlink="http://www.w3.org/1999/xlink">
<g id="graph0" class="graph" transform="scale(1 1) rotate(0) translate(4 2878.69)">
<title>%3</title>
<polygon fill="white" stroke="transparent" points="-4,4 -4,-2878.69 4504.5,-2878.69 4504.5,4 -4,4"/>
<text text-anchor="start" x="1939.75" y="-35.8" font-family="Arial" font-size="34.00">Component View: ai&#45;usage &#45; CLI process</text>
<text text-anchor="start" x="1925.75" y="-9.8" font-family="Arial" font-size="24.00">C3: source&#45;level components inside the Python CLI process.</text>
<g id="clust1" class="cluster">
<title>cluster_2</title>
<polygon fill="none" stroke="#444444" points="708,-881.19 708,-2656.19 3733.5,-2656.19 3733.5,-881.19 708,-881.19"/>
<text text-anchor="start" x="2173.75" y="-909.99" font-family="Arial" font-size="24.00" fill="#444444">ai&#45;usage</text>
<text text-anchor="start" x="2143.75" y="-889.99" font-family="Arial" font-size="19.00" fill="#444444">[Software System]</text>
</g>
<g id="clust2" class="cluster">
<title>cluster_3</title>
<polygon fill="none" stroke="#444444" points="733,-981.19 733,-2274.19 3708.5,-2274.19 3708.5,-981.19 733,-981.19"/>
<text text-anchor="start" x="2155.75" y="-1009.99" font-family="Arial" font-size="24.00" fill="#444444">CLI process</text>
<text text-anchor="start" x="2095.75" y="-989.99" font-family="Arial" font-size="19.00" fill="#444444">[Container: Python 3.10+ CLI]</text>
</g>
<!-- 1 -->
<g id="1" class="node">
<title>1</title>
<polygon fill="#dbeafe" stroke="#2563eb" points="374,-1930.69 0,-1930.69 0,-1699.69 374,-1699.69 374,-1930.69"/>
<text text-anchor="start" x="120" y="-1882.49" font-family="Arial" font-size="34.00" fill="#111827">Operator</text>
<text text-anchor="start" x="151.5" y="-1860.49" font-family="Arial" font-size="19.00" fill="#111827">[Person]</text>
<text text-anchor="start" x="29" y="-1823.49" font-family="Arial" font-size="24.00" fill="#111827">Runs ai&#45;usage from a shell to</text>
<text text-anchor="start" x="46" y="-1799.49" font-family="Arial" font-size="24.00" fill="#111827">inspect provider balances,</text>
<text text-anchor="start" x="39.5" y="-1775.49" font-family="Arial" font-size="24.00" fill="#111827">spend, subscription quotas,</text>
<text text-anchor="start" x="65.5" y="-1751.49" font-family="Arial" font-size="24.00" fill="#111827">token usage, and local</text>
<text text-anchor="start" x="148.5" y="-1727.49" font-family="Arial" font-size="24.00" fill="#111827">history.</text>
</g>
<!-- 4 -->
<g id="4" class="node">
<title>4</title>
<polygon fill="#f0fdf4" stroke="#22c55e" points="1110,-1918.69 758,-1918.69 758,-1711.69 1110,-1711.69 1110,-1918.69"/>
<text text-anchor="start" x="806" y="-1870.49" font-family="Arial" font-size="34.00" fill="#111827">Command router</text>
<text text-anchor="start" x="824" y="-1848.49" font-family="Arial" font-size="19.00" fill="#111827">[Component: ai_usage.cli]</text>
<text text-anchor="start" x="791" y="-1811.49" font-family="Arial" font-size="24.00" fill="#111827">Parses CLI flags, validates</text>
<text text-anchor="start" x="787" y="-1787.49" font-family="Arial" font-size="24.00" fill="#111827">provider selection, chooses</text>
<text text-anchor="start" x="794" y="-1763.49" font-family="Arial" font-size="24.00" fill="#111827">live&#45;fetch vs history mode,</text>
<text text-anchor="start" x="807" y="-1739.49" font-family="Arial" font-size="24.00" fill="#111827">and coordinates output.</text>
</g>
<!-- 1&#45;&gt;4 -->
<g id="20" class="edge">
<title>1&#45;&gt;4</title>
<path fill="none" stroke="#475569" stroke-dasharray="5,2" d="M374.07,-1815.19C488.18,-1815.19 633.73,-1815.19 747.7,-1815.19"/>
<polygon fill="#475569" stroke="#475569" points="747.93,-1818.69 757.93,-1815.19 747.93,-1811.69 747.93,-1818.69"/>
<polygon fill="white" stroke="transparent" points="410,-1815.19 410,-1866.19 700,-1866.19 700,-1815.19 410,-1815.19"/>
<text text-anchor="start" x="414" y="-1843.49" font-family="Arial" font-size="24.00" fill="#475569">Runs ai&#45;usage commands</text>
<text text-anchor="start" x="529.5" y="-1823.49" font-family="Arial" font-size="19.00" fill="#475569">[shell]</text>
</g>
<!-- 14 -->
<g id="14" class="node">
<title>14</title>
<path fill="#fef3c7" stroke="#d97706" d="M3696,-531.4C3696,-556.32 3598.96,-576.56 3479.5,-576.56 3360.04,-576.56 3263,-556.32 3263,-531.4 3263,-531.4 3263,-124.97 3263,-124.97 3263,-100.05 3360.04,-79.81 3479.5,-79.81 3598.96,-79.81 3696,-100.05 3696,-124.97 3696,-124.97 3696,-531.4 3696,-531.4"/>
<path fill="none" stroke="#d97706" d="M3696,-531.4C3696,-506.49 3598.96,-486.24 3479.5,-486.24 3360.04,-486.24 3263,-506.49 3263,-531.4"/>
<text text-anchor="start" x="3360.5" y="-460.49" font-family="Arial" font-size="34.00" fill="#111827">Local credential</text>
<text text-anchor="start" x="3449" y="-426.49" font-family="Arial" font-size="34.00" fill="#111827">files</text>
<text text-anchor="start" x="3402.5" y="-404.49" font-family="Arial" font-size="19.00" fill="#111827">[Software System]</text>
<text text-anchor="start" x="3333.5" y="-367.49" font-family="Arial" font-size="24.00" fill="#111827">Credential and OAuth state</text>
<text text-anchor="start" x="3389" y="-343.49" font-family="Arial" font-size="24.00" fill="#111827">outside the repo:</text>
<text text-anchor="start" x="3396" y="-319.49" font-family="Arial" font-size="24.00" fill="#111827">~/.hermes/.env,</text>
<text text-anchor="start" x="3321.5" y="-295.49" font-family="Arial" font-size="24.00" fill="#111827">~/.config/vastai/vast_api_key,</text>
<text text-anchor="start" x="3369" y="-271.49" font-family="Arial" font-size="24.00" fill="#111827">~/.hermes/auth.json,</text>
<text text-anchor="start" x="3292" y="-247.49" font-family="Arial" font-size="24.00" fill="#111827">~/.hermes/auth/google_oauth.json,</text>
<text text-anchor="start" x="3335.5" y="-223.49" font-family="Arial" font-size="24.00" fill="#111827">~/.claude/.credentials.json,</text>
<text text-anchor="start" x="3377" y="-199.49" font-family="Arial" font-size="24.00" fill="#111827">~/.claude.json, and</text>
<text text-anchor="start" x="3335.5" y="-175.49" font-family="Arial" font-size="24.00" fill="#111827">~/.claude/stats&#45;cache.json.</text>
</g>
<!-- 15 -->
<g id="15" class="node">
<title>15</title>
<polygon fill="#f3e8ff" stroke="#9333ea" points="3680,-855.69 3279,-855.69 3279,-648.69 3680,-648.69 3680,-855.69"/>
<text text-anchor="start" x="3319.5" y="-807.49" font-family="Arial" font-size="34.00" fill="#111827">Local developer CLIs</text>
<text text-anchor="start" x="3402.5" y="-785.49" font-family="Arial" font-size="19.00" fill="#111827">[Software System]</text>
<text text-anchor="start" x="3308" y="-748.49" font-family="Arial" font-size="24.00" fill="#111827">Codex CLI app&#45;server/login and</text>
<text text-anchor="start" x="3312.5" y="-724.49" font-family="Arial" font-size="24.00" fill="#111827">Claude Code CLI refresh paths</text>
<text text-anchor="start" x="3333.5" y="-700.49" font-family="Arial" font-size="24.00" fill="#111827">used for subscription quota</text>
<text text-anchor="start" x="3327.5" y="-676.49" font-family="Arial" font-size="24.00" fill="#111827">and OAuth refresh behavior.</text>
</g>
<!-- 16 -->
<g id="16" class="node">
<title>16</title>
<polygon fill="#f3e8ff" stroke="#9333ea" points="4500.5,-1839.69 4101.5,-1839.69 4101.5,-1608.69 4500.5,-1608.69 4500.5,-1839.69"/>
<text text-anchor="start" x="4149" y="-1791.49" font-family="Arial" font-size="34.00" fill="#111827">Provider HTTP APIs</text>
<text text-anchor="start" x="4224" y="-1769.49" font-family="Arial" font-size="19.00" fill="#111827">[Software System]</text>
<text text-anchor="start" x="4148" y="-1732.49" font-family="Arial" font-size="24.00" fill="#111827">External APIs for DeepSeek,</text>
<text text-anchor="start" x="4147.5" y="-1708.49" font-family="Arial" font-size="24.00" fill="#111827">xAI, Vast.ai, Exa, X Console,</text>
<text text-anchor="start" x="4141" y="-1684.49" font-family="Arial" font-size="24.00" fill="#111827">Anthropic OAuth usage, Nous</text>
<text text-anchor="start" x="4159" y="-1660.49" font-family="Arial" font-size="24.00" fill="#111827">Portal, Google OAuth, and</text>
<text text-anchor="start" x="4130.5" y="-1636.49" font-family="Arial" font-size="24.00" fill="#111827">Google Cloud Code quota data.</text>
</g>
<!-- 17 -->
<g id="17" class="node">
<title>17</title>
<polygon fill="#f3e8ff" stroke="#9333ea" points="3227,-2874.69 2838,-2874.69 2838,-2681.69 3227,-2681.69 3227,-2874.69"/>
<text text-anchor="start" x="2905.5" y="-2826.49" font-family="Arial" font-size="34.00" fill="#111827">Terminal / calling</text>
<text text-anchor="start" x="2972.5" y="-2792.49" font-family="Arial" font-size="34.00" fill="#111827">process</text>
<text text-anchor="start" x="2955.5" y="-2770.49" font-family="Arial" font-size="19.00" fill="#111827">[Software System]</text>
<text text-anchor="start" x="2867" y="-2733.49" font-family="Arial" font-size="24.00" fill="#111827">Receives stdout table or JSON</text>
<text text-anchor="start" x="2917.5" y="-2709.49" font-family="Arial" font-size="24.00" fill="#111827">output from ai&#45;usage.</text>
</g>
<!-- 10 -->
<g id="10" class="node">
<title>10</title>
<polygon fill="#f0fdf4" stroke="#22c55e" points="3683.5,-1849.69 3275.5,-1849.69 3275.5,-1618.69 3683.5,-1618.69 3683.5,-1849.69"/>
<text text-anchor="start" x="3304.5" y="-1801.49" font-family="Arial" font-size="34.00" fill="#111827">Normalized data model</text>
<text text-anchor="start" x="3348" y="-1779.49" font-family="Arial" font-size="19.00" fill="#111827">[Component: ai_usage.models]</text>
<text text-anchor="start" x="3324.5" y="-1742.49" font-family="Arial" font-size="24.00" fill="#111827">ProviderData and TokenData</text>
<text text-anchor="start" x="3342.5" y="-1718.49" font-family="Arial" font-size="24.00" fill="#111827">dataclasses for balances,</text>
<text text-anchor="start" x="3310" y="-1694.49" font-family="Arial" font-size="24.00" fill="#111827">spend, tokens, per&#45;model rows,</text>
<text text-anchor="start" x="3341.5" y="-1670.49" font-family="Arial" font-size="24.00" fill="#111827">provider extras, and meta</text>
<text text-anchor="start" x="3444" y="-1646.49" font-family="Arial" font-size="24.00" fill="#111827">errors.</text>
</g>
<!-- 11 -->
<g id="11" class="node">
<title>11</title>
<polygon fill="#f0fdf4" stroke="#22c55e" points="1866.5,-2248.69 1474.5,-2248.69 1474.5,-2065.69 1866.5,-2065.69 1866.5,-2248.69"/>
<text text-anchor="start" x="1519" y="-2200.49" font-family="Arial" font-size="34.00" fill="#111827">Snapshot repository</text>
<text text-anchor="start" x="1503.5" y="-2178.49" font-family="Arial" font-size="19.00" fill="#111827">[Component: ai_usage.db.SnapshotDB]</text>
<text text-anchor="start" x="1519.5" y="-2141.49" font-family="Arial" font-size="24.00" fill="#111827">Creates, writes, and queries</text>
<text text-anchor="start" x="1546" y="-2117.49" font-family="Arial" font-size="24.00" fill="#111827">the local SQLite history</text>
<text text-anchor="start" x="1617" y="-2093.49" font-family="Arial" font-size="24.00" fill="#111827">database.</text>
</g>
<!-- 13 -->
<g id="13" class="node">
<title>13</title>
<path fill="#fef3c7" stroke="#d97706" d="M2802,-2600.9C2802,-2617.54 2687.7,-2631.06 2547,-2631.06 2406.3,-2631.06 2292,-2617.54 2292,-2600.9 2292,-2600.9 2292,-2329.47 2292,-2329.47 2292,-2312.83 2406.3,-2299.31 2547,-2299.31 2687.7,-2299.31 2802,-2312.83 2802,-2329.47 2802,-2329.47 2802,-2600.9 2802,-2600.9"/>
<path fill="none" stroke="#d97706" d="M2802,-2600.9C2802,-2584.26 2687.7,-2570.74 2547,-2570.74 2406.3,-2570.74 2292,-2584.26 2292,-2600.9"/>
<text text-anchor="start" x="2420" y="-2537.49" font-family="Arial" font-size="34.00" fill="#111827">Snapshot history</text>
<text text-anchor="start" x="2477" y="-2503.49" font-family="Arial" font-size="34.00" fill="#111827">database</text>
<text text-anchor="start" x="2321" y="-2481.49" font-family="Arial" font-size="19.00" fill="#111827">[Container: SQLite WAL file at ~/.hermes/ai&#45;usage.db]</text>
<text text-anchor="start" x="2402" y="-2444.49" font-family="Arial" font-size="24.00" fill="#111827">Stores normalized provider</text>
<text text-anchor="start" x="2426.5" y="-2420.49" font-family="Arial" font-size="24.00" fill="#111827">snapshots for &#45;&#45;history</text>
<text text-anchor="start" x="2381.5" y="-2396.49" font-family="Arial" font-size="24.00" fill="#111827">queries; raw provider payloads</text>
<text text-anchor="start" x="2468.5" y="-2372.49" font-family="Arial" font-size="24.00" fill="#111827">are not stored.</text>
</g>
<!-- 11&#45;&gt;13 -->
<g id="44" class="edge">
<title>11&#45;&gt;13</title>
<path fill="none" stroke="#475569" stroke-dasharray="5,2" d="M1866.67,-2225.93C1989.07,-2269.04 2148.44,-2325.17 2282.05,-2372.22"/>
<polygon fill="#475569" stroke="#475569" points="2281.03,-2375.58 2291.62,-2375.6 2283.35,-2368.97 2281.03,-2375.58"/>
<polygon fill="white" stroke="transparent" points="1962,-2356.19 1962,-2431.19 2206,-2431.19 2206,-2356.19 1962,-2356.19"/>
<text text-anchor="start" x="1996" y="-2408.49" font-family="Arial" font-size="24.00" fill="#475569">Insert and query</text>
<text text-anchor="start" x="1966" y="-2384.49" font-family="Arial" font-size="24.00" fill="#475569">normalized snapshots</text>
<text text-anchor="start" x="2050.5" y="-2364.49" font-family="Arial" font-size="19.00" fill="#475569">[sqlite3]</text>
</g>
<!-- 12 -->
<g id="12" class="node">
<title>12</title>
<polygon fill="#f0fdf4" stroke="#22c55e" points="2256,-2083.69 1912,-2083.69 1912,-1900.69 2256,-1900.69 2256,-2083.69"/>
<text text-anchor="start" x="2013" y="-2035.49" font-family="Arial" font-size="34.00" fill="#111827">Renderer</text>
<text text-anchor="start" x="1956" y="-2013.49" font-family="Arial" font-size="19.00" fill="#111827">[Component: ai_usage.render]</text>
<text text-anchor="start" x="1941" y="-1976.49" font-family="Arial" font-size="24.00" fill="#111827">Formats normalized live or</text>
<text text-anchor="start" x="1962.5" y="-1952.49" font-family="Arial" font-size="24.00" fill="#111827">history data as aligned</text>
<text text-anchor="start" x="1952" y="-1928.49" font-family="Arial" font-size="24.00" fill="#111827">terminal tables or JSON.</text>
</g>
<!-- 12&#45;&gt;17 -->
<g id="46" class="edge">
<title>12&#45;&gt;17</title>
<path fill="none" stroke="#475569" stroke-dasharray="5,2" d="M2253.2,-2083.92C2254.16,-2085.32 2255.1,-2086.75 2256,-2088.19 2325.34,-2198.71 2203.43,-2578.39 2292,-2674.19 2425,-2818.04 2658.66,-2828.3 2827.8,-2812.56"/>
<polygon fill="#475569" stroke="#475569" points="2828.21,-2816.04 2837.82,-2811.59 2827.53,-2809.07 2828.21,-2816.04"/>
<polygon fill="white" stroke="transparent" points="2429.5,-2817.19 2429.5,-2868.19 2664.5,-2868.19 2664.5,-2817.19 2429.5,-2817.19"/>
<text text-anchor="start" x="2434" y="-2845.49" font-family="Arial" font-size="24.00" fill="#475569">Writes table or JSON</text>
<text text-anchor="start" x="2516" y="-2825.49" font-family="Arial" font-size="19.00" fill="#475569">[stdout]</text>
</g>
<!-- 12&#45;&gt;10 -->
<g id="45" class="edge">
<title>12&#45;&gt;10</title>
<path fill="none" stroke="#475569" stroke-dasharray="5,2" d="M2205.93,-1900.61C2233.04,-1883.95 2262.53,-1868.59 2292,-1858.19 2381.27,-1826.68 2948.19,-1776.93 3264.98,-1751.07"/>
<polygon fill="#475569" stroke="#475569" points="3265.53,-1754.53 3275.22,-1750.23 3264.96,-1747.56 3265.53,-1754.53"/>
<polygon fill="white" stroke="transparent" points="2396.5,-1858.19 2396.5,-1892.19 2697.5,-1892.19 2697.5,-1858.19 2396.5,-1858.19"/>
<text text-anchor="start" x="2401" y="-1868.99" font-family="Arial" font-size="24.00" fill="#475569">Formats normalized results</text>
</g>
<!-- 4&#45;&gt;11 -->
<g id="33" class="edge">
<title>4&#45;&gt;11</title>
<path fill="none" stroke="#475569" stroke-dasharray="5,2" d="M996.52,-1918.95C1033.25,-1971.68 1084.67,-2031.91 1146,-2067.19 1241.83,-2122.31 1362.71,-2145.54 1464.16,-2154.66"/>
<polygon fill="#475569" stroke="#475569" points="1463.97,-2158.16 1474.23,-2155.53 1464.57,-2151.19 1463.97,-2158.16"/>
<polygon fill="white" stroke="transparent" points="1168,-2149.19 1168,-2183.19 1407,-2183.19 1407,-2149.19 1168,-2149.19"/>
<text text-anchor="start" x="1172.5" y="-2159.99" font-family="Arial" font-size="24.00" fill="#475569">Queries history mode</text>
</g>
<!-- 4&#45;&gt;12 -->
<g id="34" class="edge">
<title>4&#45;&gt;12</title>
<path fill="none" stroke="#475569" stroke-dasharray="5,2" d="M1110.09,-1870.81C1212.48,-1900.97 1344.84,-1935.92 1465,-1955.19 1610.68,-1978.55 1777.81,-1987.5 1901.51,-1990.77"/>
<polygon fill="#475569" stroke="#475569" points="1901.75,-1994.28 1911.83,-1991.03 1901.93,-1987.28 1901.75,-1994.28"/>
<polygon fill="white" stroke="transparent" points="1152,-1947.19 1152,-2007.19 1423,-2007.19 1423,-1947.19 1152,-1947.19"/>
<text text-anchor="start" x="1156.5" y="-1983.99" font-family="Arial" font-size="24.00" fill="#475569">Renders selected output</text>
<text text-anchor="start" x="1253" y="-1957.99" font-family="Arial" font-size="24.00" fill="#475569">format</text>
</g>
<!-- 5 -->
<g id="5" class="node">
<title>5</title>
<polygon fill="#f0fdf4" stroke="#22c55e" points="1849,-1336.69 1492,-1336.69 1492,-1081.69 1849,-1081.69 1849,-1336.69"/>
<text text-anchor="start" x="1541" y="-1288.49" font-family="Arial" font-size="34.00" fill="#111827">Credential loader</text>
<text text-anchor="start" x="1544" y="-1266.49" font-family="Arial" font-size="19.00" fill="#111827">[Component: ai_usage.config]</text>
<text text-anchor="start" x="1584" y="-1229.49" font-family="Arial" font-size="24.00" fill="#111827">Loads API keys,</text>
<text text-anchor="start" x="1534.5" y="-1205.49" font-family="Arial" font-size="24.00" fill="#111827">browser&#45;session cookies,</text>
<text text-anchor="start" x="1521" y="-1181.49" font-family="Arial" font-size="24.00" fill="#111827">timeout settings, and OAuth</text>
<text text-anchor="start" x="1527.5" y="-1157.49" font-family="Arial" font-size="24.00" fill="#111827">state references from local</text>
<text text-anchor="start" x="1555" y="-1133.49" font-family="Arial" font-size="24.00" fill="#111827">files and environment</text>
<text text-anchor="start" x="1618.5" y="-1109.49" font-family="Arial" font-size="24.00" fill="#111827">variables.</text>
</g>
<!-- 4&#45;&gt;5 -->
<g id="30" class="edge">
<title>4&#45;&gt;5</title>
<path fill="none" stroke="#475569" stroke-dasharray="5,2" d="M1004.56,-1711.54C1042.69,-1659.1 1092.91,-1596.5 1146,-1548.19 1248.04,-1455.33 1378.19,-1370.93 1483.19,-1309.56"/>
<polygon fill="#475569" stroke="#475569" points="1485.1,-1312.5 1491.98,-1304.44 1481.58,-1306.45 1485.1,-1312.5"/>
<polygon fill="white" stroke="transparent" points="1149.5,-1548.19 1149.5,-1608.19 1425.5,-1608.19 1425.5,-1548.19 1149.5,-1548.19"/>
<text text-anchor="start" x="1153.5" y="-1584.99" font-family="Arial" font-size="24.00" fill="#475569">Loads credentials for live</text>
<text text-anchor="start" x="1227" y="-1558.99" font-family="Arial" font-size="24.00" fill="#475569">fetch mode</text>
</g>
<!-- 6 -->
<g id="6" class="node">
<title>6</title>
<polygon fill="#f0fdf4" stroke="#22c55e" points="1876,-1639.69 1465,-1639.69 1465,-1408.69 1876,-1408.69 1876,-1639.69"/>
<text text-anchor="start" x="1546.5" y="-1591.49" font-family="Arial" font-size="34.00" fill="#111827">Provider registry</text>
<text text-anchor="start" x="1530.5" y="-1569.49" font-family="Arial" font-size="19.00" fill="#111827">[Component: ai_usage.providers]</text>
<text text-anchor="start" x="1537" y="-1532.49" font-family="Arial" font-size="24.00" fill="#111827">Registers and constructs</text>
<text text-anchor="start" x="1544.5" y="-1508.49" font-family="Arial" font-size="24.00" fill="#111827">Provider subclasses for</text>
<text text-anchor="start" x="1505" y="-1484.49" font-family="Arial" font-size="24.00" fill="#111827">DeepSeek, xAI, Vast.ai, Exa, X</text>
<text text-anchor="start" x="1494" y="-1460.49" font-family="Arial" font-size="24.00" fill="#111827">API, Codex, Claude Code, Nous,</text>
<text text-anchor="start" x="1553" y="-1436.49" font-family="Arial" font-size="24.00" fill="#111827">and Google AI Studio.</text>
</g>
<!-- 4&#45;&gt;6 -->
<g id="31" class="edge">
<title>4&#45;&gt;6</title>
<path fill="none" stroke="#475569" stroke-dasharray="5,2" d="M1110.46,-1745.67C1213.96,-1704.67 1345.71,-1652.47 1455.31,-1609.05"/>
<polygon fill="#475569" stroke="#475569" points="1456.82,-1612.21 1464.83,-1605.27 1454.25,-1605.7 1456.82,-1612.21"/>
<polygon fill="white" stroke="transparent" points="1146,-1729.19 1146,-1789.19 1429,-1789.19 1429,-1729.19 1146,-1729.19"/>
<text text-anchor="start" x="1150.5" y="-1765.99" font-family="Arial" font-size="24.00" fill="#475569">Builds requested provider</text>
<text text-anchor="start" x="1271.5" y="-1739.99" font-family="Arial" font-size="24.00" fill="#475569">set</text>
</g>
<!-- 7 -->
<g id="7" class="node">
<title>7</title>
<polygon fill="#f0fdf4" stroke="#22c55e" points="1866,-1918.69 1475,-1918.69 1475,-1711.69 1866,-1711.69 1866,-1918.69"/>
<text text-anchor="start" x="1532" y="-1870.49" font-family="Arial" font-size="34.00" fill="#111827">Fetch orchestrator</text>
<text text-anchor="start" x="1541" y="-1848.49" font-family="Arial" font-size="19.00" fill="#111827">[Component: ai_usage.fetcher]</text>
<text text-anchor="start" x="1504" y="-1811.49" font-family="Arial" font-size="24.00" fill="#111827">Runs selected provider fetches</text>
<text text-anchor="start" x="1523" y="-1787.49" font-family="Arial" font-size="24.00" fill="#111827">sequentially or concurrently</text>
<text text-anchor="start" x="1545.5" y="-1763.49" font-family="Arial" font-size="24.00" fill="#111827">with a total timeout and</text>
<text text-anchor="start" x="1524.5" y="-1739.49" font-family="Arial" font-size="24.00" fill="#111827">per&#45;provider error isolation.</text>
</g>
<!-- 4&#45;&gt;7 -->
<g id="32" class="edge">
<title>4&#45;&gt;7</title>
<path fill="none" stroke="#475569" stroke-dasharray="5,2" d="M1110.46,-1815.19C1216.95,-1815.19 1353.33,-1815.19 1464.73,-1815.19"/>
<polygon fill="#475569" stroke="#475569" points="1464.75,-1818.69 1474.75,-1815.19 1464.75,-1811.69 1464.75,-1818.69"/>
<polygon fill="white" stroke="transparent" points="1170.5,-1815.19 1170.5,-1849.19 1404.5,-1849.19 1404.5,-1815.19 1170.5,-1815.19"/>
<text text-anchor="start" x="1174.5" y="-1825.99" font-family="Arial" font-size="24.00" fill="#475569">Runs live fetch mode</text>
</g>
<!-- 5&#45;&gt;14 -->
<g id="35" class="edge">
<title>5&#45;&gt;14</title>
<path fill="none" stroke="#475569" stroke-dasharray="5,2" d="M1840.72,-1081.38C2059.92,-921.48 2459,-649.26 2838,-489.19 2970.79,-433.1 3127.63,-393.28 3252.87,-367.26"/>
<polygon fill="#475569" stroke="#475569" points="3253.88,-370.63 3262.97,-365.18 3252.47,-363.77 3253.88,-370.63"/>
<polygon fill="white" stroke="transparent" points="2405,-771.19 2405,-846.19 2689,-846.19 2689,-771.19 2405,-771.19"/>
<text text-anchor="start" x="2409" y="-823.49" font-family="Arial" font-size="24.00" fill="#475569">Reads .env, key files, and</text>
<text text-anchor="start" x="2477.5" y="-799.49" font-family="Arial" font-size="24.00" fill="#475569">OAuth JSON</text>
<text text-anchor="start" x="2498.5" y="-779.49" font-family="Arial" font-size="19.00" fill="#475569">[filesystem]</text>
</g>
<!-- 8 -->
<g id="8" class="node">
<title>8</title>
<polygon fill="#f0fdf4" stroke="#22c55e" points="2731,-1627.69 2363,-1627.69 2363,-1420.69 2731,-1420.69 2731,-1627.69"/>
<text text-anchor="start" x="2413" y="-1579.49" font-family="Arial" font-size="34.00" fill="#111827">Provider adapters</text>
<text text-anchor="start" x="2392" y="-1557.49" font-family="Arial" font-size="19.00" fill="#111827">[Component: src/ai_usage/providers]</text>
<text text-anchor="start" x="2408.5" y="-1520.49" font-family="Arial" font-size="24.00" fill="#111827">Provider&#45;specific modules</text>
<text text-anchor="start" x="2393.5" y="-1496.49" font-family="Arial" font-size="24.00" fill="#111827">convert raw HTTP, local CLI,</text>
<text text-anchor="start" x="2397.5" y="-1472.49" font-family="Arial" font-size="24.00" fill="#111827">and local file responses into</text>
<text text-anchor="start" x="2410" y="-1448.49" font-family="Arial" font-size="24.00" fill="#111827">normalized ProviderData.</text>
</g>
<!-- 6&#45;&gt;8 -->
<g id="36" class="edge">
<title>6&#45;&gt;8</title>
<path fill="none" stroke="#475569" stroke-dasharray="5,2" d="M1876.26,-1524.19C2020.2,-1524.19 2211.56,-1524.19 2352.86,-1524.19"/>
<polygon fill="#475569" stroke="#475569" points="2352.94,-1527.69 2362.94,-1524.19 2352.94,-1520.69 2352.94,-1527.69"/>
<polygon fill="white" stroke="transparent" points="1964.5,-1524.19 1964.5,-1584.19 2203.5,-1584.19 2203.5,-1524.19 1964.5,-1524.19"/>
<text text-anchor="start" x="1969" y="-1560.99" font-family="Arial" font-size="24.00" fill="#475569">Constructs registered</text>
<text text-anchor="start" x="1976" y="-1534.99" font-family="Arial" font-size="24.00" fill="#475569">Provider subclasses</text>
</g>
<!-- 7&#45;&gt;8 -->
<g id="37" class="edge">
<title>7&#45;&gt;8</title>
<path fill="none" stroke="#475569" stroke-dasharray="5,2" d="M1866.12,-1750.42C2011.14,-1702.17 2208.25,-1636.58 2352.9,-1588.45"/>
<polygon fill="#475569" stroke="#475569" points="2354.4,-1591.63 2362.78,-1585.16 2352.19,-1584.99 2354.4,-1591.63"/>
<polygon fill="white" stroke="transparent" points="1946,-1729.19 1946,-1828.19 2222,-1828.19 2222,-1729.19 1946,-1729.19"/>
<text text-anchor="start" x="2004" y="-1805.49" font-family="Arial" font-size="24.00" fill="#475569">Invokes fetch()</text>
<text text-anchor="start" x="1950" y="-1781.49" font-family="Arial" font-size="24.00" fill="#475569">concurrently with timeout</text>
<text text-anchor="start" x="2039.5" y="-1757.49" font-family="Arial" font-size="24.00" fill="#475569">isolation</text>
<text text-anchor="start" x="1992" y="-1737.49" font-family="Arial" font-size="19.00" fill="#475569">[ThreadPoolExecutor]</text>
</g>
<!-- 8&#45;&gt;14 -->
<g id="40" class="edge">
<title>8&#45;&gt;14</title>
<path fill="none" stroke="#475569" stroke-dasharray="5,2" d="M2579.89,-1420.46C2623.88,-1288.08 2712.24,-1056.01 2838,-887.19 2954.27,-731.1 3120.71,-587.49 3254.79,-484.92"/>
<polygon fill="#475569" stroke="#475569" points="3256.93,-487.68 3262.76,-478.84 3252.69,-482.12 3256.93,-487.68"/>
<polygon fill="white" stroke="transparent" points="2908,-887.19 2908,-962.19 3157,-962.19 3157,-887.19 2908,-887.19"/>
<text text-anchor="start" x="2912.5" y="-939.49" font-family="Arial" font-size="24.00" fill="#475569">Read provider&#45;specific</text>
<text text-anchor="start" x="2956" y="-915.49" font-family="Arial" font-size="24.00" fill="#475569">local auth files</text>
<text text-anchor="start" x="2984.5" y="-895.49" font-family="Arial" font-size="19.00" fill="#475569">[filesystem]</text>
</g>
<!-- 8&#45;&gt;15 -->
<g id="39" class="edge">
<title>8&#45;&gt;15</title>
<path fill="none" stroke="#475569" stroke-dasharray="5,2" d="M2673.01,-1420.47C2848.46,-1274.91 3166.34,-1011.18 3345.83,-862.26"/>
<polygon fill="#475569" stroke="#475569" points="3348.28,-864.77 3353.74,-855.69 3343.81,-859.39 3348.28,-864.77"/>
<polygon fill="white" stroke="transparent" points="2887,-1274.19 2887,-1349.19 3178,-1349.19 3178,-1274.19 2887,-1274.19"/>
<text text-anchor="start" x="2891.5" y="-1326.49" font-family="Arial" font-size="24.00" fill="#475569">Spawn app&#45;server/login or</text>
<text text-anchor="start" x="2932" y="-1302.49" font-family="Arial" font-size="24.00" fill="#475569">refresh commands</text>
<text text-anchor="start" x="2978.5" y="-1282.49" font-family="Arial" font-size="19.00" fill="#475569">[subprocess]</text>
</g>
<!-- 8&#45;&gt;16 -->
<g id="41" class="edge">
<title>8&#45;&gt;16</title>
<path fill="none" stroke="#475569" stroke-dasharray="5,2" d="M2662.21,-1627.75C2713.19,-1669.89 2775.73,-1716.31 2838,-1749.19 3013.49,-1841.86 3066.95,-1855.37 3263,-1886.19 3469.57,-1918.66 3526.41,-1915.22 3733.5,-1886.19 3854.45,-1869.23 3985.81,-1832.85 4091.56,-1798.86"/>
<polygon fill="#475569" stroke="#475569" points="4092.95,-1802.09 4101.38,-1795.68 4090.79,-1795.43 4092.95,-1802.09"/>
<polygon fill="white" stroke="transparent" points="3353.5,-1909.19 3353.5,-1984.19 3605.5,-1984.19 3605.5,-1909.19 3353.5,-1909.19"/>
<text text-anchor="start" x="3357.5" y="-1961.49" font-family="Arial" font-size="24.00" fill="#475569">Fetch provider&#45;specific</text>
<text text-anchor="start" x="3455.5" y="-1937.49" font-family="Arial" font-size="24.00" fill="#475569">data</text>
<text text-anchor="start" x="3443" y="-1917.49" font-family="Arial" font-size="19.00" fill="#475569">[HTTPS]</text>
</g>
<!-- 8&#45;&gt;10 -->
<g id="42" class="edge">
<title>8&#45;&gt;10</title>
<path fill="none" stroke="#475569" stroke-dasharray="5,2" d="M2731,-1565.49C2884.48,-1600.13 3103.83,-1649.63 3265.24,-1686.06"/>
<polygon fill="#475569" stroke="#475569" points="3264.77,-1689.54 3275.3,-1688.33 3266.32,-1682.71 3264.77,-1689.54"/>
<polygon fill="white" stroke="transparent" points="2894.5,-1671.19 2894.5,-1731.19 3170.5,-1731.19 3170.5,-1671.19 2894.5,-1671.19"/>
<text text-anchor="start" x="2898.5" y="-1707.99" font-family="Arial" font-size="24.00" fill="#475569">Return ProviderData and</text>
<text text-anchor="start" x="2974.5" y="-1681.99" font-family="Arial" font-size="24.00" fill="#475569">TokenData</text>
</g>
<!-- 9 -->
<g id="9" class="node">
<title>9</title>
<polygon fill="#f0fdf4" stroke="#22c55e" points="3669.5,-1546.69 3289.5,-1546.69 3289.5,-1363.69 3669.5,-1363.69 3669.5,-1546.69"/>
<text text-anchor="start" x="3390.5" y="-1498.49" font-family="Arial" font-size="34.00" fill="#111827">HTTP client</text>
<text text-anchor="start" x="3318.5" y="-1476.49" font-family="Arial" font-size="19.00" fill="#111827">[Component: ai_usage.http.HttpClient]</text>
<text text-anchor="start" x="3325" y="-1439.49" font-family="Arial" font-size="24.00" fill="#111827">urllib&#45;based JSON client with</text>
<text text-anchor="start" x="3382" y="-1415.49" font-family="Arial" font-size="24.00" fill="#111827">timeout, retry, and</text>
<text text-anchor="start" x="3319.5" y="-1391.49" font-family="Arial" font-size="24.00" fill="#111827">non&#45;retryable status handling.</text>
</g>
<!-- 8&#45;&gt;9 -->
<g id="38" class="edge">
<title>8&#45;&gt;9</title>
<path fill="none" stroke="#475569" stroke-dasharray="5,2" d="M2731,-1510.62C2888.89,-1498.91 3116.49,-1482.03 3279,-1469.98"/>
<polygon fill="#475569" stroke="#475569" points="3279.4,-1473.46 3289.12,-1469.23 3278.89,-1466.48 3279.4,-1473.46"/>
<polygon fill="white" stroke="transparent" points="2882,-1501.19 2882,-1561.19 3183,-1561.19 3183,-1501.19 2882,-1501.19"/>
<text text-anchor="start" x="2886.5" y="-1537.99" font-family="Arial" font-size="24.00" fill="#475569">Use shared JSON client for</text>
<text text-anchor="start" x="2948" y="-1511.99" font-family="Arial" font-size="24.00" fill="#475569">HTTP providers</text>
</g>
<!-- 9&#45;&gt;16 -->
<g id="43" class="edge">
<title>9&#45;&gt;16</title>
<path fill="none" stroke="#475569" stroke-dasharray="5,2" d="M3669.54,-1517.24C3795.66,-1558.64 3961.56,-1613.09 4091.51,-1655.75"/>
<polygon fill="#475569" stroke="#475569" points="4090.61,-1659.14 4101.2,-1658.93 4092.79,-1652.49 4090.61,-1659.14"/>
<polygon fill="white" stroke="transparent" points="3741.5,-1644.19 3741.5,-1719.19 4065.5,-1719.19 4065.5,-1644.19 3741.5,-1644.19"/>
<text text-anchor="start" x="3745.5" y="-1696.49" font-family="Arial" font-size="24.00" fill="#475569">GET/POST JSON with retries</text>
<text text-anchor="start" x="3834" y="-1672.49" font-family="Arial" font-size="24.00" fill="#475569">and timeouts</text>
<text text-anchor="start" x="3867" y="-1652.49" font-family="Arial" font-size="19.00" fill="#475569">[HTTPS]</text>
</g>
</g>
</svg>
