<?xml version="1.0" encoding="UTF-8" standalone="no"?>
<!DOCTYPE svg PUBLIC "-//W3C//DTD SVG 1.1//EN"
 "http://www.w3.org/Graphics/SVG/1.1/DTD/svg11.dtd">
<!-- Generated by graphviz version 2.43.0 (0)
 -->
<!-- Title: %3 Pages: 1 -->
<svg width="2714pt" height="1004pt"
 viewBox="0.00 0.00 2714.00 1003.50" xmlns="http://www.w3.org/2000/svg" xmlns:xlink="http://www.w3.org/1999/xlink">
<g id="graph0" class="graph" transform="scale(1 1) rotate(0) translate(4 999.5)">
<title>%3</title>
<polygon fill="white" stroke="transparent" points="-4,4 -4,-999.5 2710,-999.5 2710,4 -4,4"/>
<text text-anchor="start" x="1064" y="-35.8" font-family="Arial" font-size="34.00">Dynamic View: ai&#45;usage &#45; CLI process</text>
<text text-anchor="start" x="1108" y="-9.8" font-family="Arial" font-size="24.00">History query sequence for ai&#45;usage &#45;&#45;history.</text>
<g id="clust1" class="cluster">
<title>cluster_2</title>
<polygon fill="none" stroke="#444444" points="704,-298.5 704,-987.5 2698,-987.5 2698,-298.5 704,-298.5"/>
<text text-anchor="start" x="1654" y="-327.3" font-family="Arial" font-size="24.00" fill="#444444">ai&#45;usage</text>
<text text-anchor="start" x="1624" y="-307.3" font-family="Arial" font-size="19.00" fill="#444444">[Software System]</text>
</g>
<g id="clust2" class="cluster">
<title>cluster_3</title>
<polygon fill="none" stroke="#444444" points="729,-398.5 729,-962.5 1876,-962.5 1876,-398.5 729,-398.5"/>
<text text-anchor="start" x="1237.5" y="-427.3" font-family="Arial" font-size="24.00" fill="#444444">CLI process</text>
<text text-anchor="start" x="1177.5" y="-407.3" font-family="Arial" font-size="19.00" fill="#444444">[Container: Python 3.10+ CLI]</text>
</g>
<!-- 1 -->
<g id="1" class="node">
<title>1</title>
<polygon fill="#dbeafe" stroke="#2563eb" points="374,-780 0,-780 0,-549 374,-549 374,-780"/>
<text text-anchor="start" x="120" y="-731.8" font-family="Arial" font-size="34.00" fill="#111827">Operator</text>
<text text-anchor="start" x="151.5" y="-709.8" font-family="Arial" font-size="19.00" fill="#111827">[Person]</text>
<text text-anchor="start" x="29" y="-672.8" font-family="Arial" font-size="24.00" fill="#111827">Runs ai&#45;usage from a shell to</text>
<text text-anchor="start" x="46" y="-648.8" font-family="Arial" font-size="24.00" fill="#111827">inspect provider balances,</text>
<text text-anchor="start" x="39.5" y="-624.8" font-family="Arial" font-size="24.00" fill="#111827">spend, subscription quotas,</text>
<text text-anchor="start" x="65.5" y="-600.8" font-family="Arial" font-size="24.00" fill="#111827">token usage, and local</text>
<text text-anchor="start" x="148.5" y="-576.8" font-family="Arial" font-size="24.00" fill="#111827">history.</text>
</g>
<!-- 4 -->
<g id="4" class="node">
<title>4</title>
<polygon fill="#f0fdf4" stroke="#22c55e" points="1106,-768 754,-768 754,-561 1106,-561 1106,-768"/>
<text text-anchor="start" x="802" y="-719.8" font-family="Arial" font-size="34.00" fill="#111827">Command router</text>
<text text-anchor="start" x="820" y="-697.8" font-family="Arial" font-size="19.00" fill="#111827">[Component: ai_usage.cli]</text>
<text text-anchor="start" x="787" y="-660.8" font-family="Arial" font-size="24.00" fill="#111827">Parses CLI flags, validates</text>
<text text-anchor="start" x="783" y="-636.8" font-family="Arial" font-size="24.00" fill="#111827">provider selection, chooses</text>
<text text-anchor="start" x="790" y="-612.8" font-family="Arial" font-size="24.00" fill="#111827">live&#45;fetch vs history mode,</text>
<text text-anchor="start" x="803" y="-588.8" font-family="Arial" font-size="24.00" fill="#111827">and coordinates output.</text>
</g>
<!-- 1&#45;&gt;4 -->
<g id="20" class="edge">
<title>1&#45;&gt;4</title>
<path fill="none" stroke="#475569" stroke-dasharray="5,2" d="M374.03,-664.5C487.01,-664.5 630.73,-664.5 743.6,-664.5"/>
<polygon fill="#475569" stroke="#475569" points="743.73,-668 753.73,-664.5 743.73,-661 743.73,-668"/>
<polygon fill="white" stroke="transparent" points="410,-664.5 410,-715.5 696,-715.5 696,-664.5 410,-664.5"/>
<text text-anchor="start" x="414" y="-692.8" font-family="Arial" font-size="24.00" fill="#475569">1. Runs ai&#45;usage &#45;&#45;history</text>
<text text-anchor="start" x="527.5" y="-672.8" font-family="Arial" font-size="19.00" fill="#475569">[shell]</text>
</g>
<!-- 17 -->
<g id="17" class="node">
<title>17</title>
<polygon fill="#f3e8ff" stroke="#9333ea" points="2612.5,-273 2223.5,-273 2223.5,-80 2612.5,-80 2612.5,-273"/>
<text text-anchor="start" x="2291" y="-224.8" font-family="Arial" font-size="34.00" fill="#111827">Terminal / calling</text>
<text text-anchor="start" x="2358" y="-190.8" font-family="Arial" font-size="34.00" fill="#111827">process</text>
<text text-anchor="start" x="2341" y="-168.8" font-family="Arial" font-size="19.00" fill="#111827">[Software System]</text>
<text text-anchor="start" x="2252.5" y="-131.8" font-family="Arial" font-size="24.00" fill="#111827">Receives stdout table or JSON</text>
<text text-anchor="start" x="2303" y="-107.8" font-family="Arial" font-size="24.00" fill="#111827">output from ai&#45;usage.</text>
</g>
<!-- 11 -->
<g id="11" class="node">
<title>11</title>
<polygon fill="#f0fdf4" stroke="#22c55e" points="1851,-937 1459,-937 1459,-754 1851,-754 1851,-937"/>
<text text-anchor="start" x="1503.5" y="-888.8" font-family="Arial" font-size="34.00" fill="#111827">Snapshot repository</text>
<text text-anchor="start" x="1488" y="-866.8" font-family="Arial" font-size="19.00" fill="#111827">[Component: ai_usage.db.SnapshotDB]</text>
<text text-anchor="start" x="1504" y="-829.8" font-family="Arial" font-size="24.00" fill="#111827">Creates, writes, and queries</text>
<text text-anchor="start" x="1530.5" y="-805.8" font-family="Arial" font-size="24.00" fill="#111827">the local SQLite history</text>
<text text-anchor="start" x="1601.5" y="-781.8" font-family="Arial" font-size="24.00" fill="#111827">database.</text>
</g>
<!-- 13 -->
<g id="13" class="node">
<title>13</title>
<path fill="#fef3c7" stroke="#d97706" d="M2673,-932.22C2673,-948.86 2558.7,-962.38 2418,-962.38 2277.3,-962.38 2163,-948.86 2163,-932.22 2163,-932.22 2163,-660.78 2163,-660.78 2163,-644.14 2277.3,-630.62 2418,-630.62 2558.7,-630.62 2673,-644.14 2673,-660.78 2673,-660.78 2673,-932.22 2673,-932.22"/>
<path fill="none" stroke="#d97706" d="M2673,-932.22C2673,-915.57 2558.7,-902.06 2418,-902.06 2277.3,-902.06 2163,-915.57 2163,-932.22"/>
<text text-anchor="start" x="2291" y="-868.8" font-family="Arial" font-size="34.00" fill="#111827">Snapshot history</text>
<text text-anchor="start" x="2348" y="-834.8" font-family="Arial" font-size="34.00" fill="#111827">database</text>
<text text-anchor="start" x="2192" y="-812.8" font-family="Arial" font-size="19.00" fill="#111827">[Container: SQLite WAL file at ~/.hermes/ai&#45;usage.db]</text>
<text text-anchor="start" x="2273" y="-775.8" font-family="Arial" font-size="24.00" fill="#111827">Stores normalized provider</text>
<text text-anchor="start" x="2297.5" y="-751.8" font-family="Arial" font-size="24.00" fill="#111827">snapshots for &#45;&#45;history</text>
<text text-anchor="start" x="2252.5" y="-727.8" font-family="Arial" font-size="24.00" fill="#111827">queries; raw provider payloads</text>
<text text-anchor="start" x="2339.5" y="-703.8" font-family="Arial" font-size="24.00" fill="#111827">are not stored.</text>
</g>
<!-- 11&#45;&gt;13 -->
<g id="44" class="edge">
<title>11&#45;&gt;13</title>
<path fill="none" stroke="#475569" stroke-dasharray="5,2" d="M1851.48,-832.91C1943.13,-827.01 2053.7,-819.89 2152.67,-813.52"/>
<polygon fill="#475569" stroke="#475569" points="2153.07,-817 2162.83,-812.87 2152.62,-810.02 2153.07,-817"/>
<polygon fill="white" stroke="transparent" points="1890,-829.5 1890,-880.5 2124,-880.5 2124,-829.5 1890,-829.5"/>
<text text-anchor="start" x="1894" y="-857.8" font-family="Arial" font-size="24.00" fill="#475569">3. Read newest rows</text>
<text text-anchor="start" x="1973.5" y="-837.8" font-family="Arial" font-size="19.00" fill="#475569">[sqlite3]</text>
</g>
<!-- 12 -->
<g id="12" class="node">
<title>12</title>
<polygon fill="#f0fdf4" stroke="#22c55e" points="1827,-682 1483,-682 1483,-499 1827,-499 1827,-682"/>
<text text-anchor="start" x="1584" y="-633.8" font-family="Arial" font-size="34.00" fill="#111827">Renderer</text>
<text text-anchor="start" x="1527" y="-611.8" font-family="Arial" font-size="19.00" fill="#111827">[Component: ai_usage.render]</text>
<text text-anchor="start" x="1512" y="-574.8" font-family="Arial" font-size="24.00" fill="#111827">Formats normalized live or</text>
<text text-anchor="start" x="1533.5" y="-550.8" font-family="Arial" font-size="24.00" fill="#111827">history data as aligned</text>
<text text-anchor="start" x="1523" y="-526.8" font-family="Arial" font-size="24.00" fill="#111827">terminal tables or JSON.</text>
</g>
<!-- 12&#45;&gt;17 -->
<g id="46" class="edge">
<title>12&#45;&gt;17</title>
<path fill="none" stroke="#475569" stroke-dasharray="5,2" d="M1687.76,-498.93C1722.51,-413.72 1786.97,-290.91 1887,-229.5 1983.38,-170.33 2108.64,-155.6 2213.19,-156.35"/>
<polygon fill="#475569" stroke="#475569" points="2213.2,-159.85 2223.24,-156.47 2213.28,-152.85 2213.2,-159.85"/>
<polygon fill="white" stroke="transparent" points="1887,-229.5 1887,-280.5 2127,-280.5 2127,-229.5 1887,-229.5"/>
<text text-anchor="start" x="1891" y="-257.8" font-family="Arial" font-size="24.00" fill="#475569">5. Write history report</text>
<text text-anchor="start" x="1975.5" y="-237.8" font-family="Arial" font-size="19.00" fill="#475569">[stdout]</text>
</g>
<!-- 4&#45;&gt;11 -->
<g id="33" class="edge">
<title>4&#45;&gt;11</title>
<path fill="none" stroke="#475569" stroke-dasharray="5,2" d="M1106.22,-711.29C1118.33,-714.43 1130.34,-717.53 1142,-720.5 1242.94,-746.22 1355.36,-773.78 1449.09,-796.46"/>
<polygon fill="#475569" stroke="#475569" points="1448.43,-799.9 1458.97,-798.85 1450.07,-793.1 1448.43,-799.9"/>
<polygon fill="white" stroke="transparent" points="1184.5,-788.5 1184.5,-848.5 1380.5,-848.5 1380.5,-788.5 1184.5,-788.5"/>
<text text-anchor="start" x="1188.5" y="-825.3" font-family="Arial" font-size="24.00" fill="#475569">2. Query provider</text>
<text text-anchor="start" x="1227" y="-799.3" font-family="Arial" font-size="24.00" fill="#475569">snapshots</text>
</g>
<!-- 4&#45;&gt;12 -->
<g id="34" class="edge">
<title>4&#45;&gt;12</title>
<path fill="none" stroke="#475569" stroke-dasharray="5,2" d="M1106.02,-646.59C1217.07,-635.22 1360.46,-620.54 1472.7,-609.06"/>
<polygon fill="#475569" stroke="#475569" points="1473.19,-612.52 1482.78,-608.02 1472.47,-605.56 1473.19,-612.52"/>
<polygon fill="white" stroke="transparent" points="1142,-642.5 1142,-702.5 1423,-702.5 1423,-642.5 1142,-642.5"/>
<text text-anchor="start" x="1146.5" y="-679.3" font-family="Arial" font-size="24.00" fill="#475569">4. Render history table or</text>
<text text-anchor="start" x="1251" y="-653.3" font-family="Arial" font-size="24.00" fill="#475569">JSON</text>
</g>
</g>
</svg>
