<?xml version="1.0" encoding="UTF-8" standalone="no"?>
<!DOCTYPE svg PUBLIC "-//W3C//DTD SVG 1.1//EN"
 "http://www.w3.org/Graphics/SVG/1.1/DTD/svg11.dtd">
<!-- Generated by graphviz version 2.43.0 (0)
 -->
<!-- Title: %3 Pages: 1 -->
<svg width="2039pt" height="2003pt"
 viewBox="0.00 0.00 2039.00 2002.50" xmlns="http://www.w3.org/2000/svg" xmlns:xlink="http://www.w3.org/1999/xlink">
<g id="graph0" class="graph" transform="scale(1 1) rotate(0) translate(4 1998.5)">
<title>%3</title>
<polygon fill="white" stroke="transparent" points="-4,4 -4,-1998.5 2035,-1998.5 2035,4 -4,4"/>
<text text-anchor="start" x="826" y="-35.8" font-family="Arial" font-size="34.00">Container View: ai&#45;usage</text>
<text text-anchor="start" x="713.5" y="-9.8" font-family="Arial" font-size="24.00">C2: runtime containers and local data store for ai&#45;usage.</text>
<g id="clust1" class="cluster">
<title>cluster_2</title>
<polygon fill="none" stroke="#444444" points="738,-1529.5 738,-1986.5 2023,-1986.5 2023,-1529.5 738,-1529.5"/>
<text text-anchor="start" x="1333.5" y="-1558.3" font-family="Arial" font-size="24.00" fill="#444444">ai&#45;usage</text>
<text text-anchor="start" x="1303.5" y="-1538.3" font-family="Arial" font-size="19.00" fill="#444444">[Software System]</text>
</g>
<!-- 1 -->
<g id="1" class="node">
<title>1</title>
<polygon fill="#dbeafe" stroke="#2563eb" points="374,-1849 0,-1849 0,-1618 374,-1618 374,-1849"/>
<text text-anchor="start" x="120" y="-1800.8" font-family="Arial" font-size="34.00" fill="#111827">Operator</text>
<text text-anchor="start" x="151.5" y="-1778.8" font-family="Arial" font-size="19.00" fill="#111827">[Person]</text>
<text text-anchor="start" x="29" y="-1741.8" font-family="Arial" font-size="24.00" fill="#111827">Runs ai&#45;usage from a shell to</text>
<text text-anchor="start" x="46" y="-1717.8" font-family="Arial" font-size="24.00" fill="#111827">inspect provider balances,</text>
<text text-anchor="start" x="39.5" y="-1693.8" font-family="Arial" font-size="24.00" fill="#111827">spend, subscription quotas,</text>
<text text-anchor="start" x="65.5" y="-1669.8" font-family="Arial" font-size="24.00" fill="#111827">token usage, and local</text>
<text text-anchor="start" x="148.5" y="-1645.8" font-family="Arial" font-size="24.00" fill="#111827">history.</text>
</g>
<!-- 3 -->
<g id="3" class="node">
<title>3</title>
<polygon fill="#e0f2fe" stroke="#0284c7" points="1107,-1837 763,-1837 763,-1630 1107,-1630 1107,-1837"/>
<text text-anchor="start" x="843.5" y="-1788.8" font-family="Arial" font-size="34.00" fill="#111827">CLI process</text>
<text text-anchor="start" x="810" y="-1766.8" font-family="Arial" font-size="19.00" fill="#111827">[Container: Python 3.10+ CLI]</text>
<text text-anchor="start" x="792" y="-1729.8" font-family="Arial" font-size="24.00" fill="#111827">Argparse&#45;driven command</text>
<text text-anchor="start" x="827" y="-1705.8" font-family="Arial" font-size="24.00" fill="#111827">process exposed as</text>
<text text-anchor="start" x="797.5" y="-1681.8" font-family="Arial" font-size="24.00" fill="#111827">ai_usage.cli:main and the</text>
<text text-anchor="start" x="807.5" y="-1657.8" font-family="Arial" font-size="24.00" fill="#111827">ai&#45;usage console script.</text>
</g>
<!-- 1&#45;&gt;3 -->
<g id="19" class="edge">
<title>1&#45;&gt;3</title>
<path fill="none" stroke="#475569" stroke-dasharray="5,2" d="M374.32,-1733.5C489.94,-1733.5 637.81,-1733.5 752.52,-1733.5"/>
<polygon fill="#475569" stroke="#475569" points="752.81,-1737 762.81,-1733.5 752.81,-1730 752.81,-1737"/>
<polygon fill="white" stroke="transparent" points="410,-1733.5 410,-1784.5 727,-1784.5 727,-1733.5 410,-1733.5"/>
<text text-anchor="start" x="414.5" y="-1761.8" font-family="Arial" font-size="24.00" fill="#475569">Invokes ai&#45;usage commands</text>
<text text-anchor="start" x="543.5" y="-1741.8" font-family="Arial" font-size="19.00" fill="#475569">[shell]</text>
</g>
<!-- 14 -->
<g id="14" class="node">
<title>14</title>
<path fill="#fef3c7" stroke="#d97706" d="M1959.5,-1456.22C1959.5,-1482.79 1862.46,-1504.38 1743,-1504.38 1623.54,-1504.38 1526.5,-1482.79 1526.5,-1456.22 1526.5,-1456.22 1526.5,-1022.78 1526.5,-1022.78 1526.5,-996.21 1623.54,-974.62 1743,-974.62 1862.46,-974.62 1959.5,-996.21 1959.5,-1022.78 1959.5,-1022.78 1959.5,-1456.22 1959.5,-1456.22"/>
<path fill="none" stroke="#d97706" d="M1959.5,-1456.22C1959.5,-1429.64 1862.46,-1408.06 1743,-1408.06 1623.54,-1408.06 1526.5,-1429.64 1526.5,-1456.22"/>
<text text-anchor="start" x="1624" y="-1383.8" font-family="Arial" font-size="34.00" fill="#111827">Local credential</text>
<text text-anchor="start" x="1712.5" y="-1349.8" font-family="Arial" font-size="34.00" fill="#111827">files</text>
<text text-anchor="start" x="1666" y="-1327.8" font-family="Arial" font-size="19.00" fill="#111827">[Software System]</text>
<text text-anchor="start" x="1597" y="-1290.8" font-family="Arial" font-size="24.00" fill="#111827">Credential and OAuth state</text>
<text text-anchor="start" x="1652.5" y="-1266.8" font-family="Arial" font-size="24.00" fill="#111827">outside the repo:</text>
<text text-anchor="start" x="1659.5" y="-1242.8" font-family="Arial" font-size="24.00" fill="#111827">~/.hermes/.env,</text>
<text text-anchor="start" x="1585" y="-1218.8" font-family="Arial" font-size="24.00" fill="#111827">~/.config/vastai/vast_api_key,</text>
<text text-anchor="start" x="1585" y="-1194.8" font-family="Arial" font-size="24.00" fill="#111827">~/.hermes/auth.json including</text>
<text text-anchor="start" x="1581" y="-1170.8" font-family="Arial" font-size="24.00" fill="#111827">credential_pool.openai&#45;codex,</text>
<text text-anchor="start" x="1555.5" y="-1146.8" font-family="Arial" font-size="24.00" fill="#111827">~/.hermes/auth/google_oauth.json,</text>
<text text-anchor="start" x="1599" y="-1122.8" font-family="Arial" font-size="24.00" fill="#111827">~/.claude/.credentials.json,</text>
<text text-anchor="start" x="1640.5" y="-1098.8" font-family="Arial" font-size="24.00" fill="#111827">~/.claude.json, and</text>
<text text-anchor="start" x="1599" y="-1074.8" font-family="Arial" font-size="24.00" fill="#111827">~/.claude/stats&#45;cache.json.</text>
</g>
<!-- 15 -->
<g id="15" class="node">
<title>15</title>
<polygon fill="#f3e8ff" stroke="#9333ea" points="1933,-903 1553,-903 1553,-672 1933,-672 1933,-903"/>
<text text-anchor="start" x="1583" y="-854.8" font-family="Arial" font-size="34.00" fill="#111827">Local developer CLIs</text>
<text text-anchor="start" x="1666" y="-832.8" font-family="Arial" font-size="19.00" fill="#111827">[Software System]</text>
<text text-anchor="start" x="1595.5" y="-795.8" font-family="Arial" font-size="24.00" fill="#111827">Codex CLI app&#45;server/login</text>
<text text-anchor="start" x="1582" y="-771.8" font-family="Arial" font-size="24.00" fill="#111827">fallback and Claude Code CLI</text>
<text text-anchor="start" x="1624.5" y="-747.8" font-family="Arial" font-size="24.00" fill="#111827">refresh paths used for</text>
<text text-anchor="start" x="1583.5" y="-723.8" font-family="Arial" font-size="24.00" fill="#111827">subscription quota and OAuth</text>
<text text-anchor="start" x="1652.5" y="-699.8" font-family="Arial" font-size="24.00" fill="#111827">refresh behavior.</text>
</g>
<!-- 16 -->
<g id="16" class="node">
<title>16</title>
<polygon fill="#f3e8ff" stroke="#9333ea" points="1942.5,-600 1543.5,-600 1543.5,-345 1942.5,-345 1942.5,-600"/>
<text text-anchor="start" x="1591" y="-551.8" font-family="Arial" font-size="34.00" fill="#111827">Provider HTTP APIs</text>
<text text-anchor="start" x="1666" y="-529.8" font-family="Arial" font-size="19.00" fill="#111827">[Software System]</text>
<text text-anchor="start" x="1590" y="-492.8" font-family="Arial" font-size="24.00" fill="#111827">External APIs for DeepSeek,</text>
<text text-anchor="start" x="1580" y="-468.8" font-family="Arial" font-size="24.00" fill="#111827">xAI, OpenRouter, Vast.ai, Exa,</text>
<text text-anchor="start" x="1606" y="-444.8" font-family="Arial" font-size="24.00" fill="#111827">X Console, Codex usage,</text>
<text text-anchor="start" x="1583" y="-420.8" font-family="Arial" font-size="24.00" fill="#111827">Anthropic OAuth usage, Nous</text>
<text text-anchor="start" x="1601" y="-396.8" font-family="Arial" font-size="24.00" fill="#111827">Portal, Google OAuth, and</text>
<text text-anchor="start" x="1572.5" y="-372.8" font-family="Arial" font-size="24.00" fill="#111827">Google Cloud Code quota data.</text>
</g>
<!-- 17 -->
<g id="17" class="node">
<title>17</title>
<polygon fill="#f3e8ff" stroke="#9333ea" points="1937.5,-273 1548.5,-273 1548.5,-80 1937.5,-80 1937.5,-273"/>
<text text-anchor="start" x="1616" y="-224.8" font-family="Arial" font-size="34.00" fill="#111827">Terminal / calling</text>
<text text-anchor="start" x="1683" y="-190.8" font-family="Arial" font-size="34.00" fill="#111827">process</text>
<text text-anchor="start" x="1666" y="-168.8" font-family="Arial" font-size="19.00" fill="#111827">[Software System]</text>
<text text-anchor="start" x="1577.5" y="-131.8" font-family="Arial" font-size="24.00" fill="#111827">Receives stdout table or JSON</text>
<text text-anchor="start" x="1628" y="-107.8" font-family="Arial" font-size="24.00" fill="#111827">output from ai&#45;usage.</text>
</g>
<!-- 13 -->
<g id="13" class="node">
<title>13</title>
<path fill="#fef3c7" stroke="#d97706" d="M1998,-1931.22C1998,-1947.86 1883.7,-1961.38 1743,-1961.38 1602.3,-1961.38 1488,-1947.86 1488,-1931.22 1488,-1931.22 1488,-1659.78 1488,-1659.78 1488,-1643.14 1602.3,-1629.62 1743,-1629.62 1883.7,-1629.62 1998,-1643.14 1998,-1659.78 1998,-1659.78 1998,-1931.22 1998,-1931.22"/>
<path fill="none" stroke="#d97706" d="M1998,-1931.22C1998,-1914.57 1883.7,-1901.06 1743,-1901.06 1602.3,-1901.06 1488,-1914.57 1488,-1931.22"/>
<text text-anchor="start" x="1616" y="-1867.8" font-family="Arial" font-size="34.00" fill="#111827">Snapshot history</text>
<text text-anchor="start" x="1673" y="-1833.8" font-family="Arial" font-size="34.00" fill="#111827">database</text>
<text text-anchor="start" x="1517" y="-1811.8" font-family="Arial" font-size="19.00" fill="#111827">[Container: SQLite WAL file at ~/.hermes/ai&#45;usage.db]</text>
<text text-anchor="start" x="1598" y="-1774.8" font-family="Arial" font-size="24.00" fill="#111827">Stores normalized provider</text>
<text text-anchor="start" x="1622.5" y="-1750.8" font-family="Arial" font-size="24.00" fill="#111827">snapshots for &#45;&#45;history</text>
<text text-anchor="start" x="1577.5" y="-1726.8" font-family="Arial" font-size="24.00" fill="#111827">queries; raw provider payloads</text>
<text text-anchor="start" x="1664.5" y="-1702.8" font-family="Arial" font-size="24.00" fill="#111827">are not stored.</text>
</g>
<!-- 3&#45;&gt;14 -->
<g id="24" class="edge">
<title>3&#45;&gt;14</title>
<path fill="none" stroke="#475569" stroke-dasharray="5,2" d="M1104.96,-1629.94C1224.89,-1556.44 1387.13,-1457 1517.86,-1376.87"/>
<polygon fill="#475569" stroke="#475569" points="1519.73,-1379.84 1526.43,-1371.63 1516.07,-1373.87 1519.73,-1379.84"/>
<polygon fill="white" stroke="transparent" points="1173,-1600.5 1173,-1675.5 1422,-1675.5 1422,-1600.5 1173,-1600.5"/>
<text text-anchor="start" x="1177.5" y="-1652.8" font-family="Arial" font-size="24.00" fill="#475569">Reads credentials and</text>
<text text-anchor="start" x="1234" y="-1628.8" font-family="Arial" font-size="24.00" fill="#475569">OAuth state</text>
<text text-anchor="start" x="1249.5" y="-1608.8" font-family="Arial" font-size="19.00" fill="#475569">[filesystem]</text>
</g>
<!-- 3&#45;&gt;15 -->
<g id="25" class="edge">
<title>3&#45;&gt;15</title>
<path fill="none" stroke="#475569" stroke-dasharray="5,2" d="M976.91,-1629.6C1014,-1541.25 1073.41,-1412.94 1143,-1311.5 1270.73,-1125.28 1312.46,-1080.56 1488,-938.5 1505.62,-924.24 1524.73,-910.4 1544.28,-897.27"/>
<polygon fill="#475569" stroke="#475569" points="1546.29,-900.13 1552.68,-891.68 1542.42,-894.3 1546.29,-900.13"/>
<polygon fill="white" stroke="transparent" points="1155,-1311.5 1155,-1410.5 1440,-1410.5 1440,-1311.5 1155,-1311.5"/>
<text text-anchor="start" x="1160" y="-1387.8" font-family="Arial" font-size="24.00" fill="#475569">Starts Codex fallback and</text>
<text text-anchor="start" x="1159.5" y="-1363.8" font-family="Arial" font-size="24.00" fill="#475569">Claude helper commands</text>
<text text-anchor="start" x="1221" y="-1339.8" font-family="Arial" font-size="24.00" fill="#475569">when required</text>
<text text-anchor="start" x="1243.5" y="-1319.8" font-family="Arial" font-size="19.00" fill="#475569">[subprocess]</text>
</g>
<!-- 3&#45;&gt;16 -->
<g id="26" class="edge">
<title>3&#45;&gt;16</title>
<path fill="none" stroke="#475569" stroke-dasharray="5,2" d="M938.11,-1629.71C946.3,-1458.76 983.12,-1113.54 1143,-878.5 1239.18,-737.1 1402.44,-631.29 1534.24,-563.19"/>
<polygon fill="#475569" stroke="#475569" points="1535.98,-566.23 1543.28,-558.55 1532.78,-560 1535.98,-566.23"/>
<polygon fill="white" stroke="transparent" points="1191.5,-878.5 1191.5,-953.5 1403.5,-953.5 1403.5,-878.5 1191.5,-878.5"/>
<text text-anchor="start" x="1195.5" y="-930.8" font-family="Arial" font-size="24.00" fill="#475569">Calls provider APIs</text>
<text text-anchor="start" x="1205.5" y="-906.8" font-family="Arial" font-size="24.00" fill="#475569">through adapters</text>
<text text-anchor="start" x="1261" y="-886.8" font-family="Arial" font-size="19.00" fill="#475569">[HTTPS]</text>
</g>
<!-- 3&#45;&gt;17 -->
<g id="28" class="edge">
<title>3&#45;&gt;17</title>
<path fill="none" stroke="#475569" stroke-dasharray="5,2" d="M942.71,-1629.66C961.18,-1369.92 1019.82,-699.97 1143,-518.5 1236.27,-381.11 1404.25,-292.21 1538.64,-239.59"/>
<polygon fill="#475569" stroke="#475569" points="1540.2,-242.74 1548.26,-235.86 1537.67,-236.21 1540.2,-242.74"/>
<polygon fill="white" stroke="transparent" points="1183.5,-518.5 1183.5,-593.5 1411.5,-593.5 1411.5,-518.5 1183.5,-518.5"/>
<text text-anchor="start" x="1187.5" y="-570.8" font-family="Arial" font-size="24.00" fill="#475569">Prints table or JSON</text>
<text text-anchor="start" x="1259.5" y="-546.8" font-family="Arial" font-size="24.00" fill="#475569">reports</text>
<text text-anchor="start" x="1266" y="-526.8" font-family="Arial" font-size="19.00" fill="#475569">[stdout]</text>
</g>
<!-- 3&#45;&gt;13 -->
<g id="27" class="edge">
<title>3&#45;&gt;13</title>
<path fill="none" stroke="#475569" stroke-dasharray="5,2" d="M1107.43,-1746.69C1214.99,-1754.96 1355.86,-1765.8 1477.55,-1775.16"/>
<polygon fill="#475569" stroke="#475569" points="1477.52,-1778.67 1487.76,-1775.94 1478.06,-1771.69 1477.52,-1778.67"/>
<polygon fill="white" stroke="transparent" points="1143,-1771.5 1143,-1822.5 1452,-1822.5 1452,-1771.5 1143,-1771.5"/>
<text text-anchor="start" x="1147.5" y="-1799.8" font-family="Arial" font-size="24.00" fill="#475569">Writes and reads snapshots</text>
<text text-anchor="start" x="1264.5" y="-1779.8" font-family="Arial" font-size="19.00" fill="#475569">[sqlite3]</text>
</g>
</g>
</svg>
